<svg width="61" height="68" viewBox="0 0 61 68" fill="none" xmlns="http://www.w3.org/2000/svg">
<g opacity="0.6">
<path d="M1.77539 49.3106H23.6971H37.8184H59.6281V42.1938H1.77539V49.3106Z" stroke="white" stroke-width="2" stroke-miterlimit="10"/>
<path d="M49.788 21.7406C49.788 21.8154 49.788 21.8154 49.788 21.7406ZM49.788 21.7406V22.1889L49.6759 22.301L42.6712 27.9495C42.5592 28.0616 42.335 28.0616 42.223 28.0616C41.9988 28.0616 41.7747 27.9495 41.6626 27.8375C41.4384 27.5013 41.4384 27.0417 41.7747 26.8176L48.1068 21.7294L41.7747 16.6413C41.4384 16.4171 41.4384 15.9688 41.6626 15.6214C41.8867 15.2852 42.3462 15.2852 42.6825 15.5093L49.7992 21.1579V21.7182L49.788 21.7406ZM1.77539 1.28711V40.8381H59.7401V1.28711H1.77539ZM19.8529 26.8288C20.1892 27.053 20.1892 27.5125 19.965 27.8487C19.853 28.0728 19.6288 28.0728 19.4047 28.0728C19.2926 28.0728 19.0684 28.0728 18.9564 27.9608L11.9517 22.3122C11.9517 22.3122 11.8396 22.3122 11.8396 22.2001V20.844L18.9564 15.1955C19.2926 14.9714 19.7521 14.9714 19.9762 15.3076C20.2004 15.6438 20.2004 16.1033 19.8642 16.3275L13.532 21.4156L19.8642 26.84L19.8529 26.8288ZM38.3788 10.7798L25.6136 31.9058C25.5015 32.1299 25.2773 32.242 25.0532 32.242C24.9411 32.242 24.829 32.242 24.717 32.1299C24.3807 31.9058 24.2687 31.4575 24.4928 31.11L37.2581 9.87199C37.4822 9.53577 37.9305 9.42369 38.2779 9.64784C38.5021 9.98406 38.6142 10.4436 38.39 10.7798H38.3788Z" stroke="white" stroke-width="2" stroke-miterlimit="10"/>
<path d="M42.9068 64.7883H37.1461V50.667H24.3809V64.7883H17.4883C17.1521 64.7883 16.8047 65.1246 16.8047 65.472C16.8047 65.8194 17.1409 66.1444 17.4883 66.1444H42.9068C43.243 66.1444 43.5904 65.8082 43.5904 65.472C43.5904 65.1358 43.2542 64.7883 42.9068 64.7883Z" stroke="white" stroke-width="2" stroke-miterlimit="10"/>
</g>
</svg>
