<svg width="67" height="47" viewBox="0 0 67 47" fill="none" xmlns="http://www.w3.org/2000/svg">
<g opacity="0.6">
<path d="M27.0257 21.057C26.951 21.057 26.951 21.057 27.0257 21.057ZM27.0257 21.057C26.8015 20.9449 26.6895 20.8328 26.4653 20.7208C26.3532 20.6087 26.1291 20.4966 26.017 20.3845H25.905C25.6808 20.2725 25.4567 20.0483 25.2325 19.9362C25.1204 19.8242 25.0084 19.7121 24.8963 19.7121C24.7842 19.6 24.6721 19.6 24.6721 19.4879C24.5601 19.3759 24.448 19.2638 24.3359 19.2638C24.2238 19.1517 24.1118 19.1517 23.9997 19.0397C23.7755 18.9276 23.6635 18.8155 23.4393 18.7034L23.3272 18.5913C23.1031 18.4793 22.879 18.2551 22.7669 18.143C22.6548 18.031 22.5427 18.031 22.5427 17.9189C22.4307 17.8068 22.2065 17.6947 22.0944 17.5827C21.9824 17.4706 21.8703 17.4706 21.8703 17.3585C21.6461 17.2465 21.422 17.0223 21.1978 16.9102C21.1231 16.8355 21.0484 16.7608 20.9737 16.6861C20.8616 16.574 20.6375 16.4619 20.5254 16.3499C20.4133 16.2378 20.3012 16.2378 20.1892 16.1257C20.0771 16.0137 19.8529 15.9016 19.7409 15.7895C19.6288 15.6774 19.5167 15.6774 19.5167 15.5654C19.2926 15.3412 19.0684 15.2291 18.721 15.005C18.6089 15.005 18.6089 14.8929 18.4969 14.8929C18.2727 14.7808 18.1606 14.6688 17.9365 14.5567C17.8244 14.4446 17.7123 14.4446 17.6003 14.3325C17.3761 14.2205 17.264 14.1084 17.0399 13.9963C16.9278 13.8842 16.8157 13.8842 16.8157 13.7722C16.5916 13.548 16.3674 13.4359 16.02 13.2118C15.9079 13.2118 15.9079 13.0997 15.7959 13.0997C15.5717 12.9876 15.3476 12.8756 15.2355 12.6514C15.1608 12.5767 15.0861 12.502 15.0113 12.4273C14.7872 12.3152 14.563 12.091 14.3277 11.979C14.3277 11.979 14.2156 11.979 14.2156 11.8669C13.9915 11.6427 13.6552 11.5307 13.4199 11.3065C13.3078 11.3065 13.3078 11.1945 13.1957 11.1945C12.9716 11.0824 12.7474 10.8582 12.5121 10.7461C12.4 10.7461 12.4 10.6341 12.2879 10.6341C12.0638 10.522 11.8396 10.2978 11.6043 10.1858L11.4922 10.0737C11.2681 9.84958 10.9318 9.73751 10.6965 9.51336C10.5844 9.51336 10.5844 9.40128 10.4723 9.40128C10.2482 9.2892 10.024 9.06506 9.78869 8.95299C9.67662 8.95299 9.67662 8.84091 9.56454 8.84091C9.00417 8.50468 8.43259 8.04517 7.9843 7.70895C7.87222 7.70895 7.87222 7.59686 7.76015 7.59686C7.536 7.48479 7.31185 7.26065 7.0877 7.14858L6.97563 7.03649C6.41526 6.70027 5.95576 6.35287 5.39539 5.90457C5.28331 5.90457 5.28331 5.79249 5.17124 5.79249C4.94709 5.68041 4.72294 5.45627 4.48758 5.3442L4.37551 5.23212C4.15136 5.00797 3.92721 4.89589 3.57978 4.67175H3.46771C3.24356 4.55967 3.01941 4.33553 2.78406 4.22346L2.67198 4.11138C2.44784 3.9993 2.22369 3.77516 1.99954 3.66309H1.88747C1.77539 3.99931 1.77539 4.33553 1.77539 4.68296V42.6537C1.77539 43.102 1.88747 43.5615 1.99954 43.8977L28.2137 22.2001C27.7654 21.7518 27.418 21.5277 27.0817 21.1803L27.0257 21.057Z" stroke="white" stroke-width="2" stroke-miterlimit="10"/>
<path d="M33.8062 25.3606C33.7315 25.3606 33.7315 25.3606 33.8062 25.3606ZM33.8062 25.3606L33.6941 25.4727H33.1338C33.1338 25.4727 33.0217 25.4727 33.0217 25.3606H32.9096C32.5734 25.1365 31.3294 24.2287 29.2896 22.7605L2.73926 44.6822C3.18755 45.0184 3.87121 45.2426 4.54365 45.2426H62.1722C62.8446 45.2426 63.4162 45.0184 63.9766 44.6822L37.4262 22.6484L33.8062 25.3606Z" stroke="white" stroke-width="2" stroke-miterlimit="10"/>
<path d="M2.9522 2.53112C3.51257 2.86734 3.97208 3.21478 4.53245 3.66308C4.64452 3.77515 4.86867 3.88721 4.98075 3.99928H5.09282C5.31697 4.11136 5.42904 4.22342 5.65319 4.33549C6.21356 4.67172 6.78514 5.13123 7.34551 5.46745H7.45758C7.79381 5.6916 8.13003 5.91576 8.47746 6.1399L8.58953 6.25199C8.58953 6.25199 8.70161 6.25199 8.70161 6.36407C8.92575 6.58821 9.26198 6.70029 9.49733 6.92444C9.57205 6.99915 9.64676 7.07385 9.72148 7.14856L9.83356 7.26065C9.94563 7.37272 10.1698 7.48478 10.2819 7.59685C10.3939 7.70893 10.506 7.70894 10.6181 7.82102C10.7301 7.93309 10.8422 7.9331 10.9543 8.04518C11.0664 8.15725 11.1784 8.26931 11.2905 8.26931C11.4026 8.26931 11.4026 8.38139 11.5147 8.38139C11.8509 8.60554 12.1983 8.94175 12.6466 9.1771C12.6466 9.1771 12.7587 9.17711 12.7587 9.28918C12.8708 9.40126 13.0949 9.51332 13.207 9.62539C13.207 9.62539 13.3191 9.6254 13.3191 9.73747C13.4311 9.84955 13.6553 9.96164 13.7674 10.0737C13.7674 10.0737 13.8794 10.0737 13.8794 10.1858C13.9915 10.2978 14.2157 10.4099 14.3277 10.522L14.4398 10.6341C14.5519 10.7462 14.6639 10.8582 14.776 10.8582C14.8881 10.8582 14.8881 10.9703 15.0002 10.9703C15.1122 11.0824 15.3364 11.1944 15.4485 11.3065C15.4485 11.3065 15.5605 11.3065 15.5605 11.4186C15.6726 11.5307 15.8968 11.6428 16.0088 11.7548C16.1209 11.7548 16.1209 11.8669 16.233 11.8669C16.3451 11.979 16.4571 12.091 16.6813 12.091C16.7934 12.091 16.7934 12.2031 16.9054 12.2031C17.0175 12.3152 17.2417 12.4273 17.3537 12.5393L17.4658 12.6514C17.5779 12.7635 17.802 12.8755 17.9141 12.9876L18.0262 13.0997C18.1382 13.2118 18.2503 13.3239 18.4745 13.4359C18.5865 13.4359 18.5865 13.548 18.6986 13.548C18.8107 13.6601 18.9228 13.6601 19.0348 13.7722C19.1469 13.7722 19.1469 13.8842 19.259 13.8842C19.3711 13.9963 19.4831 14.1084 19.7073 14.1084L19.8194 14.2204C19.9314 14.3325 20.1556 14.4446 20.2677 14.5567C20.2677 14.5567 20.3797 14.5567 20.3797 14.6687C20.4918 14.7808 20.716 14.8929 20.828 15.005L20.9401 15.1171C21.0522 15.2291 21.1643 15.3412 21.3884 15.4533L21.5005 15.5653C21.6125 15.6774 21.7246 15.6774 21.8367 15.7895C21.9114 15.8642 21.9861 15.9389 22.0608 16.0136C22.1729 16.1257 22.285 16.1257 22.3971 16.2378C22.4718 16.3125 22.5465 16.3872 22.6212 16.4619C22.7333 16.574 22.8454 16.574 22.9574 16.6861C23.0695 16.7982 23.0695 16.7981 23.1816 16.9102C23.2937 17.0223 23.4057 17.0223 23.5178 17.1344C23.6299 17.1344 23.6299 17.2465 23.742 17.2465C23.854 17.3585 23.9661 17.4706 24.0782 17.4706L24.1903 17.5827C24.3023 17.6947 24.4144 17.8068 24.5265 17.8068L24.6385 17.9189C24.7506 18.031 24.8627 18.031 24.9748 18.143C25.0868 18.143 25.0868 18.2551 25.1989 18.2551C25.311 18.3672 25.4231 18.3672 25.5351 18.4793L25.6472 18.5913C25.7593 18.7034 25.8714 18.7034 25.9834 18.8155L26.0955 18.9276C26.2076 19.0396 26.3197 19.0396 26.4317 19.1517C26.5438 19.1517 26.5438 19.2638 26.6559 19.2638C26.768 19.2638 26.768 19.3759 26.88 19.3759C26.9921 19.4879 27.1042 19.4879 27.2163 19.6L27.3283 19.7121C27.4404 19.8241 27.5525 19.8242 27.6645 19.9362C27.6645 19.9362 27.7766 19.9362 27.7766 20.0483C27.8887 20.1604 28.0008 20.2724 28.1128 20.2724C28.4491 20.4966 28.6732 20.7207 28.9086 20.8328C30.6009 22.0768 31.957 22.9734 32.7527 23.545H32.8648C32.9769 23.6571 33.0889 23.6571 33.201 23.7692L63.1472 1.51124C62.811 1.39916 62.4748 1.28711 62.0153 1.28711H4.53245C3.73672 1.28711 3.06428 1.51125 2.50391 2.08283C2.61598 2.1949 2.72805 2.30696 2.9522 2.41903V2.53112Z" stroke="white" stroke-width="2" stroke-miterlimit="10"/>
<path d="M64.5369 2.53076L39.903 20.7204L38.5469 21.7403L64.8731 43.4378C65.0972 43.1016 65.0972 42.6421 65.0972 42.1938V4.33514C65.0972 3.66269 64.8731 3.09113 64.5369 2.53076Z" stroke="white" stroke-width="2" stroke-miterlimit="10"/>
</g>
</svg>
