<svg width="447" height="526" viewBox="0 0 447 526" fill="none" xmlns="http://www.w3.org/2000/svg">
<g style="mix-blend-mode:overlay">
<path opacity="0.32" d="M35.8085 156.824C37.0296 156.123 38.0173 156.68 38.0173 158.081C38.0173 159.481 37.0296 161.187 35.8264 161.887C34.6053 162.606 33.5996 162.031 33.5996 160.63C33.5996 159.23 34.5873 157.524 35.8085 156.824Z" fill="#EA80FC"/>
<path opacity="0.69" d="M137.489 98.1441C138.71 97.4259 139.698 98.0004 139.698 99.401C139.698 100.802 138.728 102.489 137.507 103.208C136.286 103.908 135.298 103.351 135.298 101.951C135.298 100.55 136.286 98.8444 137.489 98.1441Z" fill="#EA80FC"/>
<path opacity="0.8" d="M306.978 0.302221C308.2 -0.398059 309.187 0.158573 309.187 1.55913C309.187 2.95969 308.2 4.6655 306.996 5.36578C305.775 6.08402 304.77 5.50943 304.77 4.10887C304.77 2.70831 305.757 1.0025 306.978 0.302221Z" fill="#EA80FC"/>
<path opacity="0.57" d="M35.9169 189.521C37.138 188.821 38.1257 189.378 38.1257 190.778C38.1257 192.179 37.138 193.885 35.9348 194.585C34.7137 195.303 33.708 194.729 33.708 193.328C33.708 191.928 34.6957 190.222 35.9169 189.521Z" fill="#EA80FC"/>
<path opacity="0.36" d="M103.691 150.377C104.912 149.677 105.9 150.234 105.9 151.634C105.9 153.035 104.912 154.741 103.709 155.441C102.488 156.141 101.5 155.585 101.5 154.184C101.5 152.784 102.488 151.078 103.691 150.377Z" fill="#EA80FC"/>
<path opacity="0.59" d="M137.579 130.824C138.8 130.106 139.787 130.68 139.787 132.081C139.787 133.481 138.818 135.169 137.597 135.887C136.375 136.588 135.388 136.031 135.388 134.63C135.388 133.23 136.375 131.524 137.579 130.824Z" fill="#EA80FC"/>
<path opacity="0.87" d="M205.389 91.6797C206.61 90.9794 207.598 91.536 207.598 92.9366C207.598 94.3371 206.61 96.0429 205.407 96.7432C204.186 97.4435 203.198 96.8869 203.198 95.4863C203.198 94.0858 204.186 92.3799 205.389 91.6797Z" fill="#EA80FC"/>
<path opacity="0.42" d="M307.068 32.9819C308.289 32.2816 309.277 32.8383 309.277 34.2388C309.277 35.6394 308.289 37.3452 307.086 38.0455C305.865 38.7637 304.859 38.1891 304.859 36.7886C304.859 35.388 305.847 33.6822 307.068 32.9819Z" fill="#EA80FC"/>
<path opacity="0.2" d="M36.0067 222.201C37.2279 221.501 38.2156 222.057 38.2156 223.458C38.2156 224.859 37.2279 226.564 36.0247 227.265C34.8035 227.983 33.7979 227.408 33.7979 226.008C33.7979 224.607 34.7856 222.901 36.0067 222.201Z" fill="#EA80FC"/>
<path opacity="0.24" d="M69.894 202.629C71.1152 201.929 72.1029 202.486 72.1029 203.886C72.1029 205.287 71.1152 206.993 69.912 207.693C68.7088 208.393 67.7031 207.837 67.7031 206.436C67.7031 205.035 68.6908 203.33 69.894 202.629Z" fill="#EA80FC"/>
<path opacity="0.74" d="M103.781 183.057C105.002 182.357 105.99 182.913 105.99 184.314C105.99 185.715 105.002 187.42 103.799 188.121C102.578 188.821 101.59 188.264 101.59 186.864C101.59 185.463 102.578 183.757 103.781 183.057Z" fill="#EA80FC"/>
<path opacity="0.27" d="M137.686 163.503C138.907 162.785 139.895 163.36 139.895 164.76C139.895 166.161 138.925 167.849 137.704 168.567C136.483 169.267 135.495 168.711 135.495 167.31C135.495 165.91 136.483 164.204 137.686 163.503Z" fill="#EA80FC"/>
<path opacity="0.5" d="M171.573 143.932C172.794 143.231 173.782 143.788 173.782 145.189C173.782 146.589 172.794 148.295 171.591 148.995C170.37 149.713 169.364 149.139 169.364 147.738C169.364 146.338 170.352 144.632 171.573 143.932Z" fill="#EA80FC"/>
<path opacity="0.21" d="M205.478 124.359C206.699 123.659 207.687 124.216 207.687 125.616C207.687 127.017 206.699 128.723 205.496 129.423C204.275 130.123 203.287 129.567 203.287 128.166C203.287 126.765 204.275 125.06 205.478 124.359Z" fill="#EA80FC"/>
<path opacity="0.44" d="M273.253 85.2334C274.475 84.5331 275.462 85.0897 275.462 86.4903C275.462 87.8908 274.475 89.5967 273.271 90.2969C272.05 90.9972 271.062 90.4406 271.062 89.04C271.062 87.6395 272.05 85.9337 273.253 85.2334Z" fill="#EA80FC"/>
<path opacity="0.41" d="M307.158 65.6616C308.379 64.9613 309.367 65.5179 309.367 66.9185C309.367 68.3191 308.379 70.0249 307.176 70.7252C305.955 71.4434 304.949 70.8688 304.949 69.4682C304.949 68.0677 305.937 66.3619 307.158 65.6616Z" fill="#EA80FC"/>
<path opacity="0.51" d="M341.045 46.0898C342.267 45.3895 343.254 45.9462 343.254 47.3467C343.254 48.7473 342.267 50.4531 341.063 51.1534C339.842 51.8537 338.854 51.297 338.854 49.8965C338.854 48.4959 339.842 46.7901 341.045 46.0898Z" fill="#EA80FC"/>
<path opacity="0.69" d="M2.19091 274.453C3.41207 273.734 4.41773 274.309 4.41773 275.71C4.41773 277.11 3.43003 278.816 2.20887 279.516C0.987704 280.217 0 279.66 0 278.259C0 276.859 0.987703 275.153 2.19091 274.453Z" fill="#EA80FC"/>
<path d="M36.0966 254.881C37.3177 254.181 38.3054 254.737 38.3054 256.138C38.3054 257.538 37.3177 259.244 36.1145 259.944C34.8934 260.663 33.8877 260.088 33.8877 258.688C33.8877 257.287 34.8754 255.581 36.0966 254.881Z" fill="#EA80FC"/>
<path d="M69.9829 235.309C71.2041 234.609 72.1918 235.165 72.1918 236.566C72.1918 237.967 71.2041 239.672 70.0009 240.373C68.7797 241.073 67.792 240.516 67.792 239.116C67.792 237.715 68.7797 236.009 69.9829 235.309Z" fill="#EA80FC"/>
<path opacity="0.88" d="M103.871 215.737C105.092 215.037 106.079 215.594 106.079 216.994C106.079 218.395 105.092 220.101 103.889 220.801C102.685 221.501 101.68 220.944 101.68 219.544C101.68 218.143 102.667 216.438 103.871 215.737Z" fill="#EA80FC"/>
<path opacity="0.83" d="M137.776 196.183C138.997 195.465 139.985 196.04 139.985 197.44C139.985 198.841 139.015 200.528 137.794 201.247C136.573 201.947 135.585 201.39 135.585 199.99C135.585 198.589 136.573 196.883 137.776 196.183Z" fill="#EA80FC"/>
<path opacity="0.36" d="M171.681 176.611C172.902 175.911 173.889 176.468 173.889 177.868C173.889 179.269 172.902 180.975 171.699 181.675C170.477 182.393 169.472 181.819 169.472 180.418C169.472 179.017 170.459 177.312 171.681 176.611Z" fill="#EA80FC"/>
<path opacity="0.89" d="M205.568 157.039C206.789 156.339 207.777 156.895 207.777 158.296C207.777 159.697 206.789 161.402 205.586 162.103C204.365 162.803 203.377 162.246 203.377 160.846C203.377 159.445 204.365 157.739 205.568 157.039Z" fill="#EA80FC"/>
<path opacity="0.39" d="M239.456 137.467C240.677 136.767 241.664 137.324 241.664 138.724C241.664 140.125 240.677 141.831 239.474 142.531C238.252 143.231 237.265 142.674 237.265 141.274C237.265 139.873 238.252 138.168 239.456 137.467Z" fill="#EA80FC"/>
<path opacity="0.57" d="M273.343 117.914C274.564 117.213 275.552 117.77 275.552 119.17C275.552 120.571 274.564 122.277 273.361 122.977C272.14 123.677 271.152 123.121 271.152 121.72C271.152 120.32 272.14 118.614 273.343 117.914Z" fill="#EA80FC"/>
<path opacity="0.31" d="M307.248 98.3413C308.469 97.641 309.457 98.1976 309.457 99.5982C309.457 100.999 308.469 102.705 307.266 103.405C306.045 104.123 305.039 103.548 305.039 102.148C305.039 100.747 306.027 99.0416 307.248 98.3413Z" fill="#EA80FC"/>
<path opacity="0.63" d="M341.153 78.7695C342.374 78.0692 343.362 78.6259 343.362 80.0264C343.362 81.427 342.374 83.1328 341.171 83.8331C339.95 84.5333 338.962 83.9767 338.962 82.5762C338.962 81.1756 339.95 79.4698 341.153 78.7695Z" fill="#EA80FC"/>
<path opacity="0.94" d="M2.28075 307.132C3.50191 306.414 4.50758 306.989 4.50758 308.389C4.50758 309.79 3.51987 311.496 2.29871 312.196C1.07755 312.896 0.0898438 312.34 0.0898438 310.939C0.0898438 309.538 1.07755 307.833 2.28075 307.132Z" fill="#EA80FC"/>
<path opacity="0.97" d="M36.1854 287.561C37.4066 286.86 38.3943 287.417 38.3943 288.817C38.3943 290.218 37.4066 291.924 36.2034 292.624C34.9822 293.342 33.9766 292.768 33.9766 291.367C33.9766 289.967 34.9643 288.261 36.1854 287.561Z" fill="#EA80FC"/>
<path opacity="0.78" d="M70.0727 267.989C71.2939 267.288 72.2816 267.845 72.2816 269.246C72.2816 270.646 71.2939 272.352 70.0907 273.052C68.8695 273.753 67.8818 273.196 67.8818 271.795C67.8818 270.395 68.8695 268.689 70.0727 267.989Z" fill="#EA80FC"/>
<path opacity="0.9" d="M103.978 248.417C105.199 247.717 106.187 248.273 106.187 249.674C106.187 251.074 105.199 252.78 103.996 253.481C102.775 254.181 101.787 253.624 101.787 252.224C101.787 250.823 102.775 249.117 103.978 248.417Z" fill="#EA80FC"/>
<path opacity="0.44" d="M137.866 228.863C139.087 228.145 140.075 228.719 140.075 230.12C140.075 231.52 139.105 233.208 137.884 233.926C136.663 234.627 135.675 234.07 135.675 232.669C135.675 231.269 136.663 229.563 137.866 228.863Z" fill="#EA80FC"/>
<path opacity="0.62" d="M171.77 209.291C172.992 208.591 173.979 209.147 173.979 210.548C173.979 211.948 172.992 213.654 171.788 214.355C170.567 215.073 169.562 214.498 169.562 213.098C169.562 211.697 170.549 209.991 171.77 209.291Z" fill="#EA80FC"/>
<path opacity="0.85" d="M205.658 189.719C206.879 189.019 207.867 189.576 207.867 190.976C207.867 192.377 206.879 194.082 205.676 194.783C204.472 195.483 203.467 194.926 203.467 193.526C203.467 192.125 204.455 190.419 205.658 189.719Z" fill="#EA80FC"/>
<path opacity="0.83" d="M239.545 170.147C240.767 169.447 241.754 170.003 241.754 171.404C241.754 172.804 240.767 174.51 239.563 175.211C238.36 175.911 237.354 175.354 237.354 173.954C237.354 172.553 238.342 170.847 239.545 170.147Z" fill="#EA80FC"/>
<path opacity="0.69" d="M273.451 150.593C274.672 149.893 275.66 150.45 275.66 151.85C275.66 153.251 274.672 154.957 273.469 155.657C272.247 156.357 271.26 155.8 271.26 154.4C271.26 152.999 272.247 151.294 273.451 150.593Z" fill="#EA80FC"/>
<path opacity="0.24" d="M307.355 131.021C308.577 130.321 309.564 130.877 309.564 132.278C309.564 133.678 308.577 135.384 307.373 136.085C306.152 136.803 305.146 136.228 305.146 134.828C305.146 133.427 306.134 131.721 307.355 131.021Z" fill="#EA80FC"/>
<path opacity="0.48" d="M341.243 111.449C342.464 110.749 343.452 111.306 343.452 112.706C343.452 114.107 342.464 115.812 341.261 116.513C340.039 117.213 339.052 116.656 339.052 115.256C339.052 113.855 340.039 112.149 341.243 111.449Z" fill="#EA80FC"/>
<path opacity="0.56" d="M2.3706 339.812C3.59176 339.094 4.59742 339.668 4.59742 341.069C4.59742 342.487 3.60972 344.193 2.38855 344.894C1.16739 345.594 0.179688 345.037 0.179688 343.619C0.179688 342.218 1.16739 340.512 2.3706 339.812Z" fill="#EA80FC"/>
<path opacity="0.73" d="M36.2753 320.24C37.4964 319.54 38.4841 320.097 38.4841 321.497C38.4841 322.916 37.4964 324.621 36.2932 325.322C35.0721 326.04 34.0664 325.465 34.0664 324.047C34.0664 322.646 35.0541 320.94 36.2753 320.24Z" fill="#EA80FC"/>
<path opacity="0.33" d="M70.1626 300.668C71.3838 299.968 72.3715 300.525 72.3715 301.925C72.3715 303.344 71.3837 305.05 70.1805 305.75C68.9594 306.45 67.9717 305.894 67.9717 304.475C67.9717 303.075 68.9594 301.369 70.1626 300.668Z" fill="#EA80FC"/>
<path opacity="0.69" d="M104.068 281.097C105.289 280.396 106.277 280.953 106.277 282.354C106.277 283.772 105.289 285.478 104.086 286.178C102.865 286.878 101.877 286.322 101.877 284.903C101.877 283.503 102.865 281.797 104.068 281.097Z" fill="#EA80FC"/>
<path opacity="0.68" d="M137.956 261.543C139.177 260.824 140.164 261.399 140.164 262.799C140.164 264.218 139.195 265.906 137.974 266.624C136.752 267.324 135.765 266.768 135.765 265.349C135.765 263.949 136.752 262.243 137.956 261.543Z" fill="#EA80FC"/>
<path opacity="0.66" d="M171.86 241.971C173.081 241.27 174.069 241.827 174.069 243.228C174.069 244.646 173.081 246.352 171.878 247.052C170.657 247.77 169.651 247.196 169.651 245.777C169.651 244.377 170.639 242.671 171.86 241.971Z" fill="#EA80FC"/>
<path opacity="0.63" d="M205.748 222.399C206.969 221.699 207.956 222.255 207.956 223.656C207.956 225.074 206.969 226.78 205.766 227.48C204.544 228.181 203.557 227.624 203.557 226.206C203.557 224.805 204.544 223.099 205.748 222.399Z" fill="#EA80FC"/>
<path opacity="0.5" d="M239.635 202.827C240.856 202.126 241.844 202.683 241.844 204.084C241.844 205.502 240.856 207.208 239.653 207.908C238.432 208.608 237.444 208.052 237.444 206.633C237.444 205.233 238.432 203.527 239.635 202.827Z" fill="#EA80FC"/>
<path opacity="0.2" d="M273.54 183.273C274.762 182.573 275.749 183.129 275.749 184.53C275.749 185.948 274.762 187.654 273.558 188.354C272.337 189.055 271.35 188.498 271.35 187.08C271.35 185.679 272.337 183.973 273.54 183.273Z" fill="#EA80FC"/>
<path opacity="0.2" d="M307.445 163.701C308.666 163 309.654 163.557 309.654 164.958C309.654 166.376 308.666 168.082 307.463 168.782C306.242 169.5 305.236 168.926 305.236 167.507C305.236 166.107 306.224 164.401 307.445 163.701Z" fill="#EA80FC"/>
<path opacity="0.29" d="M341.332 144.129C342.554 143.429 343.541 143.985 343.541 145.386C343.541 146.804 342.554 148.51 341.35 149.21C340.129 149.911 339.142 149.354 339.142 147.936C339.142 146.535 340.129 144.829 341.332 144.129Z" fill="#EA80FC"/>
<path opacity="0.56" d="M2.46044 372.492C3.6816 371.774 4.68726 372.348 4.68726 373.749C4.68726 375.167 3.69956 376.873 2.4784 377.573C1.25724 378.274 0.269531 377.717 0.269531 376.298C0.269531 374.898 1.25724 373.192 2.46044 372.492Z" fill="#EA80FC"/>
<path d="M36.3651 352.92C37.5863 352.22 38.574 352.776 38.574 354.177C38.574 355.595 37.5863 357.301 36.3831 358.001C35.1619 358.72 34.1562 358.145 34.1562 356.727C34.1562 355.326 35.144 353.62 36.3651 352.92Z" fill="#EA80FC"/>
<path opacity="0.33" d="M70.271 333.348C71.4921 332.648 72.4799 333.204 72.4799 334.605C72.4799 336.024 71.4921 337.729 70.2889 338.43C69.0678 339.13 68.0801 338.573 68.0801 337.155C68.0801 335.754 69.0678 334.048 70.271 333.348Z" fill="#EA80FC"/>
<path opacity="0.31" d="M104.158 313.776C105.379 313.076 106.367 313.633 106.367 315.033C106.367 316.452 105.379 318.158 104.176 318.858C102.955 319.558 101.967 319.001 101.967 317.583C101.967 316.182 102.955 314.477 104.158 313.776Z" fill="#EA80FC"/>
<path opacity="0.49" d="M138.045 294.222C139.267 293.504 140.254 294.079 140.254 295.479C140.254 296.898 139.285 298.586 138.063 299.304C136.842 300.004 135.854 299.447 135.854 298.029C135.854 296.628 136.842 294.923 138.045 294.222Z" fill="#EA80FC"/>
<path opacity="0.27" d="M171.95 274.65C173.171 273.95 174.159 274.507 174.159 275.907C174.159 277.326 173.171 279.032 171.968 279.732C170.747 280.45 169.741 279.876 169.741 278.457C169.741 277.056 170.729 275.351 171.95 274.65Z" fill="#EA80FC"/>
<path opacity="0.21" d="M205.837 255.079C207.059 254.378 208.046 254.935 208.046 256.335C208.046 257.754 207.059 259.46 205.855 260.16C204.634 260.86 203.646 260.304 203.646 258.885C203.646 257.485 204.634 255.779 205.837 255.079Z" fill="#EA80FC"/>
<path opacity="0.44" d="M239.743 235.506C240.964 234.806 241.952 235.363 241.952 236.763C241.952 238.182 240.964 239.888 239.761 240.588C238.539 241.288 237.552 240.731 237.552 239.313C237.552 237.912 238.539 236.207 239.743 235.506Z" fill="#EA80FC"/>
<path opacity="0.61" d="M273.63 215.953C274.852 215.252 275.839 215.809 275.839 217.21C275.839 218.628 274.852 220.334 273.648 221.034C272.427 221.734 271.439 221.178 271.439 219.759C271.439 218.359 272.427 216.653 273.63 215.953Z" fill="#EA80FC"/>
<path opacity="0.77" d="M307.535 196.381C308.756 195.681 309.744 196.237 309.744 197.638C309.744 199.056 308.756 200.762 307.553 201.462C306.332 202.181 305.326 201.606 305.326 200.187C305.326 198.787 306.314 197.081 307.535 196.381Z" fill="#EA80FC"/>
<path opacity="0.89" d="M341.422 176.809C342.644 176.108 343.631 176.665 343.631 178.065C343.631 179.484 342.644 181.19 341.44 181.89C340.237 182.59 339.231 182.034 339.231 180.615C339.231 179.215 340.219 177.509 341.422 176.809Z" fill="#EA80FC"/>
<path opacity="0.34" d="M2.56786 405.172C3.78902 404.454 4.79469 405.028 4.79469 406.447C4.79469 407.847 3.80698 409.553 2.58582 410.253C1.36466 410.954 0.376953 410.397 0.376953 408.997C0.376953 407.578 1.36466 405.872 2.56786 405.172Z" fill="#EA80FC"/>
<path opacity="0.8" d="M36.4735 385.6C37.6947 384.899 38.6824 385.456 38.6824 386.875C38.6824 388.275 37.6947 389.981 36.4915 390.681C35.2703 391.399 34.2646 390.825 34.2646 389.424C34.2646 388.006 35.2524 386.3 36.4735 385.6Z" fill="#EA80FC"/>
<path opacity="0.86" d="M70.3608 366.028C71.582 365.328 72.5697 365.884 72.5697 367.303C72.5697 368.703 71.582 370.409 70.3788 371.109C69.1576 371.81 68.1699 371.253 68.1699 369.852C68.1699 368.434 69.1576 366.728 70.3608 366.028Z" fill="#EA80FC"/>
<path opacity="0.92" d="M104.248 346.456C105.469 345.756 106.456 346.312 106.456 347.731C106.456 349.132 105.469 350.837 104.265 351.538C103.044 352.238 102.057 351.681 102.057 350.281C102.057 348.862 103.044 347.156 104.248 346.456Z" fill="#EA80FC"/>
<path opacity="0.48" d="M138.135 326.902C139.356 326.184 140.344 326.758 140.344 328.177C140.344 329.577 139.374 331.265 138.153 331.983C136.932 332.684 135.944 332.127 135.944 330.727C135.944 329.308 136.932 327.602 138.135 326.902Z" fill="#EA80FC"/>
<path opacity="0.58" d="M172.04 307.33C173.261 306.63 174.249 307.186 174.249 308.605C174.249 310.006 173.261 311.711 172.058 312.412C170.837 313.13 169.831 312.555 169.831 311.155C169.831 309.736 170.819 308.03 172.04 307.33Z" fill="#EA80FC"/>
<path opacity="0.67" d="M205.946 287.758C207.167 287.058 208.155 287.615 208.155 289.033C208.155 290.434 207.167 292.14 205.964 292.84C204.743 293.54 203.755 292.983 203.755 291.583C203.755 290.164 204.743 288.459 205.946 287.758Z" fill="#EA80FC"/>
<path opacity="0.85" d="M239.833 268.186C241.054 267.486 242.041 268.042 242.041 269.461C242.041 270.861 241.054 272.567 239.85 273.268C238.647 273.968 237.642 273.411 237.642 272.011C237.642 270.592 238.629 268.886 239.833 268.186Z" fill="#EA80FC"/>
<path opacity="0.35" d="M273.72 248.632C274.941 247.932 275.929 248.489 275.929 249.907C275.929 251.308 274.941 253.014 273.738 253.714C272.535 254.414 271.529 253.858 271.529 252.457C271.529 251.038 272.517 249.333 273.72 248.632Z" fill="#EA80FC"/>
<path opacity="0.2" d="M341.512 209.488C342.733 208.788 343.721 209.345 343.721 210.763C343.721 212.164 342.733 213.87 341.53 214.57C340.309 215.27 339.321 214.713 339.321 213.313C339.321 211.894 340.309 210.189 341.512 209.488Z" fill="#EA80FC"/>
</g>
<path d="M426.455 281.904L426.437 289.571L413.866 296.862L413.884 289.212L426.455 281.904Z" fill="#651FFF"/>
<path d="M413.884 289.212L413.866 296.862L295.396 228.486L295.413 220.836L413.884 289.212Z" fill="#512DA8"/>
<path d="M295.413 220.836L307.984 213.528L426.455 281.904L413.884 289.212L295.413 220.836Z" fill="#7C4DFF"/>
<path d="M404.546 294.635L404.528 302.302L391.939 309.61L391.957 301.943L404.546 294.635Z" fill="#E040FB"/>
<path d="M391.958 301.943L391.94 309.611L342.752 281.204L342.77 273.555L391.958 301.943Z" fill="#7B1FA2"/>
<path d="M342.77 273.555L355.358 266.247L404.546 294.635L391.957 301.943L342.77 273.555Z" fill="#EA80FC"/>
<path d="M382.619 307.384L382.601 315.033L370.03 322.341L370.048 314.674L382.619 307.384Z" fill="#536DFE"/>
<path d="M370.048 314.674L370.03 322.341L292.199 277.398L292.217 269.749L370.048 314.674Z" fill="#3949AB"/>
<path d="M292.217 269.748L304.788 262.44L382.619 307.384L370.048 314.674L292.217 269.748Z" fill="#AEAEAE"/>
<mask id="mask0_1793_936" style="mask-type:luminance" maskUnits="userSpaceOnUse" x="292" y="262" width="91" height="53">
<path d="M292.217 269.748L304.788 262.44L382.619 307.384L370.048 314.674L292.217 269.748Z" fill="white"/>
</mask>
<g mask="url(#mask0_1793_936)">
<path d="M370.048 314.674L292.217 269.748L304.788 262.44L382.619 307.384L370.048 314.674Z" fill="#8C9EFF"/>
</g>
<path d="M424.408 314.476C424.408 316.81 421.247 318.714 417.261 318.822C417.153 318.822 417.045 318.822 416.919 318.822C416.794 318.822 416.686 318.822 416.56 318.822C414.675 318.768 412.933 318.337 411.586 317.547C410.167 316.721 409.377 315.625 409.377 314.476C409.377 312.088 412.717 310.131 416.866 310.131C418.877 310.131 420.763 310.58 422.181 311.406C423.618 312.232 424.39 313.327 424.408 314.494V314.476ZM416.901 317.403C419.703 317.403 421.966 316.092 421.948 314.476C421.948 313.704 421.427 312.95 420.457 312.393C419.505 311.837 418.212 311.549 416.866 311.549C414.082 311.549 411.819 312.86 411.819 314.476C411.819 315.248 412.358 315.984 413.31 316.541C414.262 317.098 415.537 317.403 416.884 317.403" fill="#E040FB"/>
<path d="M417.261 318.821V319.881V319.97H416.561V319.881V318.821C416.686 318.821 416.794 318.821 416.92 318.821C417.027 318.821 417.153 318.821 417.261 318.821Z" fill="#E040FB"/>
<path d="M418.087 324.298C418.087 324.657 417.566 324.962 416.937 324.962C416.632 324.962 416.345 324.89 416.129 324.765C415.914 324.639 415.788 324.477 415.788 324.298V319.863H416.56V319.953H417.261V319.863H418.051V324.298H418.087ZM416.955 324.765C417.386 324.765 417.746 324.549 417.746 324.316V320.078H416.129L416.165 324.316C416.165 324.442 416.255 324.549 416.399 324.639C416.542 324.729 416.74 324.783 416.955 324.783" fill="#E040FB"/>
<path d="M417.728 320.06V324.298C417.746 324.549 417.387 324.747 416.974 324.747C416.758 324.747 416.561 324.693 416.417 324.603C416.273 324.513 416.183 324.406 416.183 324.28L416.147 320.042H417.746L417.728 320.06Z" fill="#E040FB"/>
<path d="M440.643 299.214C442.241 300.148 442.959 301.387 442.762 302.59C442.636 303.398 443.103 304.188 444.091 304.762L444.576 305.032C444.791 305.157 444.773 305.337 444.576 305.445L441.181 307.42C440.984 307.528 440.661 307.546 440.445 307.42L439.96 307.151C438.973 306.594 437.626 306.307 436.261 306.378C434.16 306.504 431.987 306.109 430.371 305.175C430.173 305.068 429.975 304.942 429.796 304.816C427.677 303.29 427.659 301.099 429.76 299.573C432.508 297.58 437.554 297.454 440.607 299.214H440.643Z" fill="#651FFF"/>
<path d="M446.084 305.93C446.299 306.055 446.299 306.253 446.084 306.379L442.761 308.318C442.546 308.444 442.187 308.444 441.971 308.318C441.756 308.192 441.756 307.995 441.971 307.869L445.293 305.93C445.509 305.804 445.85 305.804 446.066 305.93H446.084Z" fill="#651FFF"/>
<path d="M446.73 307.24C446.946 307.366 446.946 307.563 446.73 307.689L445.024 308.677C444.809 308.802 444.449 308.802 444.234 308.677C444.018 308.551 444.018 308.354 444.234 308.228L445.94 307.24C446.155 307.115 446.515 307.115 446.73 307.24Z" fill="#651FFF"/>
<path d="M398.261 333.025V333.132V333.168C398.261 333.168 397.938 333.276 397.614 333.402C397.453 333.473 397.273 333.491 397.13 333.545L396.914 333.599C396.914 333.599 396.842 333.563 396.699 333.527C396.573 333.473 396.393 333.42 396.232 333.33C395.89 333.186 395.603 333.025 395.585 333.025L395.459 333.061L395.316 333.096H395.154C394.939 333.15 394.723 333.186 394.705 333.186H394.562L394.238 333.24C394.023 333.258 393.789 333.294 393.789 333.294C393.789 333.294 393.753 333.348 393.682 333.42C393.61 333.491 393.538 333.599 393.43 333.707C393.233 333.922 392.999 334.12 392.999 334.12H392.766C392.622 334.12 392.442 334.12 392.245 334.12H391.958L391.724 334.084H391.491C391.491 334.084 391.437 334.012 391.383 333.922C391.311 333.833 391.239 333.725 391.149 333.617C391.006 333.384 390.898 333.168 390.898 333.168H390.754L390.449 333.096C390.216 333.06 390.018 333.025 390.018 333.025L389.874 332.989L389.569 332.917C389.372 332.863 389.174 332.809 389.156 332.809C389.156 332.809 389.066 332.845 388.941 332.881C388.815 332.917 388.635 332.971 388.456 333.043C388.097 333.15 387.719 333.258 387.701 333.258L386.48 332.719C386.48 332.719 386.534 332.486 386.624 332.235C386.66 332.127 386.696 332.001 386.75 331.911L386.822 331.768C386.822 331.768 386.678 331.678 386.516 331.57L386.319 331.427L386.247 331.355C386.247 331.355 386.103 331.247 385.96 331.139L385.798 330.978L385.726 330.906C385.726 330.906 385.313 330.906 384.9 330.906C384.487 330.906 384.092 330.852 384.074 330.834L383.966 330.708L383.858 330.583L383.751 330.439C383.679 330.331 383.625 330.223 383.571 330.152L383.499 330.026C383.499 330.026 383.769 329.846 384.056 329.667C384.2 329.577 384.361 329.505 384.469 329.433L384.613 329.362H384.667L384.559 328.805C384.559 328.805 384.559 328.679 384.523 328.536V328.356L384.541 328.266C384.541 328.266 384.2 328.141 383.858 327.997C383.679 327.925 383.535 327.853 383.427 327.781C383.302 327.71 383.23 327.692 383.212 327.692L383.248 327.548C383.248 327.548 383.284 327.351 383.338 327.243C383.374 327.135 383.427 327.027 383.463 326.938L383.499 326.848V326.812C383.499 326.812 383.93 326.74 384.325 326.686C384.541 326.65 384.738 326.632 384.864 326.614H385.062L385.133 326.596C385.133 326.596 385.223 326.471 385.331 326.363L385.457 326.201L385.529 326.13C385.529 326.13 385.654 326.022 385.762 325.896L385.924 325.734L385.995 325.663C385.995 325.663 385.834 325.447 385.672 325.232C385.529 324.998 385.421 324.783 385.421 324.783C385.421 324.783 385.672 324.603 385.942 324.442C386.211 324.298 386.498 324.154 386.498 324.154C386.516 324.154 386.893 324.208 387.288 324.298C387.701 324.388 388.025 324.478 388.043 324.478L388.168 324.424L388.438 324.334C388.635 324.262 388.815 324.208 388.833 324.208L388.959 324.172L389.264 324.101C389.461 324.047 389.659 323.993 389.677 323.993V323.957L389.713 323.849C389.749 323.759 389.785 323.652 389.821 323.526C389.91 323.292 390.036 323.059 390.036 323.059H390.09L390.252 323.023C390.395 323.023 390.575 322.987 390.772 322.951C390.934 322.915 391.132 322.915 391.275 322.897H391.509C391.509 322.897 391.563 322.915 391.688 322.987C391.796 323.059 391.922 323.149 392.029 323.239C392.281 323.436 392.496 323.616 392.514 323.634H392.963C393.197 323.634 393.412 323.634 393.43 323.634L394.364 323.705L394.4 323.67L394.526 323.58C394.633 323.508 394.759 323.436 394.921 323.346C395.226 323.185 395.531 323.023 395.549 323.023L395.783 323.059C395.908 323.095 396.088 323.131 396.286 323.167L396.537 323.221L396.77 323.275L396.986 323.346C396.986 323.346 397.076 323.58 397.094 323.831C397.112 324.065 397.112 324.298 397.112 324.298L397.237 324.352L397.525 324.442C397.704 324.513 397.902 324.603 397.902 324.603L398.01 324.657L398.261 324.765C398.423 324.855 398.584 324.944 398.602 324.944L398.854 324.909C398.997 324.873 399.213 324.855 399.41 324.837C399.805 324.783 400.2 324.765 400.218 324.765L401.152 325.465C401.152 325.465 400.973 325.699 400.775 325.896C400.667 326.004 400.596 326.094 400.506 326.183C400.416 326.255 400.362 326.309 400.362 326.309C400.362 326.309 400.47 326.417 400.56 326.543L400.685 326.722L400.739 326.794C400.739 326.794 400.811 326.92 400.883 327.045L400.973 327.225L401.009 327.315C401.009 327.315 401.404 327.386 401.799 327.458C401.996 327.512 402.176 327.548 402.32 327.584C402.463 327.62 402.553 327.638 402.553 327.638L402.589 327.781L402.625 327.925V328.087C402.661 328.194 402.661 328.302 402.661 328.392V328.5C402.661 328.5 402.302 328.679 401.942 328.787C401.763 328.841 401.583 328.895 401.44 328.931C401.314 328.967 401.224 328.984 401.206 329.002C401.206 329.002 401.17 329.128 401.134 329.272L401.098 329.451L401.062 329.523C401.062 329.523 401.009 329.649 400.955 329.775L400.919 329.864L400.865 329.954L400.811 330.026C400.811 330.026 401.08 330.205 401.332 330.403C401.458 330.493 401.565 330.601 401.655 330.672C401.745 330.744 401.799 330.798 401.799 330.798L401.709 330.924C401.709 330.924 401.583 331.103 401.475 331.193C401.26 331.391 401.08 331.57 401.08 331.57H401.009H400.811C400.649 331.57 400.434 331.57 400.236 331.552C399.823 331.552 399.446 331.516 399.428 331.498L399.338 331.57L399.123 331.714C398.979 331.804 398.836 331.911 398.818 331.911C398.818 331.911 398.638 332.001 398.476 332.091L398.243 332.217L398.135 332.27C398.135 332.27 398.189 332.504 398.225 332.737C398.225 332.863 398.243 332.971 398.261 333.078V333.025ZM396.25 330.762C396.465 330.654 396.591 330.583 396.609 330.583C396.609 330.583 396.734 330.511 396.914 330.385L397.058 330.277L397.219 330.17L397.291 330.098L397.363 330.026L397.507 329.882L397.632 329.739L397.74 329.595C397.812 329.505 397.866 329.415 397.902 329.344L397.956 329.236L397.992 329.146L398.027 329.074L398.063 329.002L398.099 328.805L398.135 328.536V328.212V328.123V328.051L398.063 327.889L398.01 327.746L397.956 327.62V327.566L397.902 327.512L397.848 327.422L397.812 327.351L397.776 327.279L397.632 327.099L397.525 326.991L397.399 326.866L397.255 326.74L397.094 326.614L397.022 326.543L396.932 326.471L396.752 326.363L396.573 326.255L396.393 326.165L396.142 326.04L396.034 326.004L395.926 325.95L395.639 325.842C395.406 325.752 395.064 325.645 394.705 325.591C394.544 325.555 394.364 325.519 394.184 325.501C394.023 325.483 393.861 325.447 393.735 325.447L393.394 325.411H393.143H392.999H392.909H392.802H392.586H392.335H392.047L391.778 325.465C391.58 325.501 391.419 325.519 391.257 325.555C391.096 325.591 390.934 325.609 390.808 325.645L390.503 325.734H390.431L390.287 325.806L389.982 325.914C389.874 325.95 389.749 326.022 389.605 326.076C389.461 326.147 389.336 326.219 389.192 326.291C389.048 326.381 388.941 326.453 388.833 326.525C388.725 326.614 388.617 326.686 388.546 326.758L388.366 326.938L388.312 326.991H388.294L388.258 327.063L388.115 327.243C388.115 327.243 388.025 327.404 387.953 327.494C387.899 327.584 387.863 327.692 387.809 327.799L387.755 327.961L387.719 328.123V328.266L387.684 328.392V328.446V328.5V328.589L387.701 328.661V328.733L387.755 328.931C387.755 329.002 387.809 329.11 387.845 329.2C387.881 329.308 387.953 329.397 388.025 329.505C388.15 329.703 388.33 329.9 388.474 330.044L388.671 330.205L388.743 330.277L388.815 330.331L389.03 330.475L389.192 330.583L389.39 330.672L389.587 330.78L389.695 330.834L389.803 330.888L390.036 330.978L390.269 331.049L390.485 331.121L390.683 331.175L391.006 331.247H391.132L391.257 331.301L391.401 331.337H391.491L391.598 331.373L391.814 331.409L392.065 331.444H392.353L392.496 331.48H392.622H393.161H393.646L393.987 331.427H394.113L394.238 331.391H394.382L394.579 331.337C394.705 331.301 394.849 331.283 395.028 331.247L395.28 331.175L395.531 331.103L395.765 331.031L395.872 330.996L395.998 330.942L396.178 330.852L396.357 330.78" fill="#536DFE"/>
<path d="M46.2783 281.258C46.2783 281.15 46.2783 281.061 46.2783 280.953C46.2783 280.845 46.2783 280.755 46.2963 280.648C46.3142 280.54 46.3142 280.45 46.3322 280.342C46.3322 280.235 46.3681 280.127 46.3861 280.019C46.3861 279.911 46.422 279.822 46.4399 279.714C46.4579 279.606 46.4759 279.498 46.5118 279.391C46.5297 279.283 46.5656 279.175 46.5836 279.067C46.6195 278.96 46.6375 278.834 46.6734 278.726C46.6914 278.637 46.7273 278.547 46.7452 278.457C46.7452 278.457 46.7452 278.457 46.7452 278.439C46.7452 278.439 46.7452 278.403 46.7452 278.385C46.7811 278.277 46.8171 278.17 46.853 278.062C46.8889 277.954 46.9248 277.846 46.9607 277.739C46.9966 277.631 47.0326 277.523 47.0685 277.433C47.1044 277.326 47.1583 277.236 47.1942 277.128C47.2301 277.056 47.266 276.967 47.3019 276.895C47.3019 276.895 47.3019 276.895 47.3019 276.877C47.3019 276.877 47.3019 276.841 47.3199 276.823C47.3738 276.715 47.4097 276.625 47.4636 276.518C47.5174 276.41 47.5713 276.302 47.6252 276.177C47.697 276.051 47.7509 275.925 47.8227 275.8C47.8946 275.656 47.9664 275.53 48.0562 275.387C48.0562 275.369 48.0741 275.333 48.0921 275.315C48.0921 275.279 48.128 275.261 48.146 275.225C48.2896 274.974 48.4513 274.722 48.6129 274.471C48.7386 274.273 48.8643 274.094 49.008 273.914C49.0978 273.788 49.1876 273.663 49.2953 273.537C49.3671 273.429 49.4569 273.34 49.5467 273.232C49.6186 273.142 49.7083 273.034 49.7981 272.945C49.8879 272.855 49.9598 272.765 50.0496 272.675C50.0496 272.675 50.0855 272.639 50.1034 272.621C50.1034 272.621 50.1034 272.621 50.1214 272.603C50.1932 272.532 50.2471 272.46 50.3189 272.406C50.4087 272.316 50.4985 272.226 50.5883 272.137C50.6781 272.047 50.7679 271.957 50.8756 271.885C50.9654 271.795 51.0552 271.724 51.163 271.634C51.2168 271.598 51.2528 271.562 51.3066 271.526C51.3066 271.526 51.3246 271.526 51.3426 271.508C51.3785 271.472 51.4144 271.454 51.4503 271.418C51.5401 271.346 51.6299 271.275 51.7197 271.203C51.8095 271.131 51.8993 271.077 51.989 271.005C52.0788 270.951 52.1686 270.88 52.2584 270.826C52.3482 270.772 52.438 270.718 52.5278 270.664C52.5458 270.664 52.5637 270.646 52.5817 270.628L247.195 158.278C247.195 158.278 247.321 158.206 247.393 158.17C247.483 158.117 247.573 158.081 247.644 158.045C247.698 158.009 247.752 157.991 247.806 157.973C247.806 157.973 247.824 157.973 247.842 157.973C247.842 157.973 247.878 157.973 247.896 157.955C247.986 157.919 248.057 157.883 248.147 157.847C248.237 157.811 248.327 157.775 248.399 157.757C248.399 157.757 248.435 157.757 248.452 157.757C248.452 157.757 248.47 157.757 248.488 157.757C248.542 157.74 248.596 157.722 248.65 157.704C248.74 157.686 248.83 157.65 248.919 157.632C248.955 157.632 249.009 157.614 249.045 157.596C249.063 157.596 249.081 157.596 249.099 157.596C249.117 157.596 249.153 157.596 249.171 157.596C249.261 157.578 249.35 157.56 249.44 157.542C249.494 157.542 249.548 157.542 249.62 157.542C249.638 157.542 249.656 157.542 249.674 157.542C249.674 157.542 249.71 157.542 249.727 157.542C249.835 157.542 249.925 157.542 250.033 157.542C250.069 157.542 250.123 157.542 250.159 157.542C250.194 157.542 250.23 157.542 250.266 157.542C250.302 157.542 250.338 157.542 250.374 157.542C250.5 157.542 250.625 157.578 250.733 157.596C250.769 157.596 250.787 157.596 250.823 157.614C250.949 157.65 251.056 157.668 251.182 157.704C251.182 157.704 251.2 157.704 251.218 157.704C251.38 157.757 251.559 157.847 251.703 157.937L255.097 159.912C254.935 159.822 254.774 159.751 254.612 159.679C254.486 159.643 254.361 159.607 254.235 159.571C254.199 159.571 254.181 159.553 254.145 159.553C253.984 159.517 253.84 159.499 253.678 159.499C253.642 159.499 253.606 159.499 253.589 159.499C253.427 159.499 253.265 159.499 253.104 159.499C253.086 159.499 253.068 159.499 253.05 159.499C252.87 159.499 252.709 159.535 252.529 159.571C252.511 159.571 252.493 159.571 252.475 159.571C252.296 159.607 252.098 159.661 251.918 159.733C251.918 159.733 251.9 159.733 251.882 159.733C251.685 159.804 251.487 159.876 251.272 159.966C251.272 159.966 251.254 159.966 251.236 159.984C251.02 160.074 250.823 160.182 250.607 160.307L55.9937 272.657C55.5627 272.909 55.1317 273.196 54.7367 273.537C54.7367 273.537 54.7187 273.537 54.7007 273.555C54.3057 273.878 53.9106 274.255 53.5335 274.65C53.5335 274.65 53.5335 274.65 53.5155 274.668C53.1384 275.063 52.7792 275.494 52.456 275.961C52.1327 276.41 51.8274 276.877 51.5401 277.362C51.5401 277.38 51.5221 277.416 51.5042 277.433C51.2348 277.918 50.9834 278.403 50.7499 278.906C50.7499 278.906 50.7499 278.906 50.7499 278.924C50.5344 279.445 50.3369 279.965 50.1753 280.486C50.1753 280.486 50.1753 280.486 50.1753 280.504C50.0136 281.025 49.8879 281.545 49.8161 282.066C49.7263 282.587 49.6904 283.108 49.6904 283.61L50.0316 403.448C50.0316 403.807 50.0675 404.148 50.1214 404.454C50.1214 404.454 50.1214 404.471 50.1214 404.489C50.1753 404.795 50.265 405.064 50.3908 405.297C50.4805 405.495 50.6063 405.674 50.732 405.836C50.7679 405.89 50.8218 405.944 50.8577 405.998C51.0193 406.159 51.1809 406.303 51.3605 406.411L47.9664 404.436C47.7868 404.328 47.6072 404.184 47.4636 404.023C47.4097 403.969 47.3738 403.915 47.3379 403.861C47.284 403.789 47.2122 403.735 47.1762 403.663C47.1044 403.556 47.0505 403.466 46.9966 403.34C46.9607 403.268 46.9248 403.197 46.9069 403.107C46.8709 403.035 46.853 402.945 46.8171 402.855C46.7991 402.784 46.7811 402.694 46.7632 402.622C46.7632 402.586 46.7632 402.55 46.7452 402.514C46.7452 402.514 46.7452 402.496 46.7452 402.478C46.7452 402.442 46.7452 402.425 46.7273 402.389C46.7273 402.317 46.7093 402.245 46.6914 402.173C46.6914 402.101 46.6914 402.029 46.6734 401.958C46.6734 401.886 46.6734 401.814 46.6734 401.742C46.6734 401.67 46.6734 401.599 46.6734 401.509L46.3322 281.653C46.3322 281.563 46.3322 281.456 46.3322 281.366L46.2783 281.258Z" fill="#37295E"/>
<path d="M55.9933 272.567C52.4914 274.596 49.654 279.498 49.672 283.521L50.0132 403.358C50.0132 406.303 52.0963 407.488 54.6644 405.998L252.726 291.673C255.294 290.2 257.341 286.627 257.341 283.682L257 163.844C257 159.822 254.127 158.188 250.625 160.217L56.0112 272.567H55.9933Z" fill="#493781"/>
<path d="M59.3164 279.911L59.6397 392.315L247.483 283.88L247.16 171.476L59.3164 279.911Z" fill="#E1BEE7"/>
<path d="M59.3523 295.371L59.3164 279.911L247.16 171.476L247.196 186.936L59.3523 295.371Z" fill="#CE93D8"/>
<path d="M50.8759 408.565C50.8759 408.565 50.8759 408.637 50.9118 408.673C51.0196 408.96 51.1633 409.248 51.3428 409.517C51.3788 409.571 51.4147 409.625 51.4506 409.661C51.6481 409.93 51.8995 410.199 52.1689 410.469C52.3485 410.63 52.582 410.792 52.8154 410.935C53.013 411.061 53.1746 411.205 53.3901 411.331L157.692 471.932C158.087 472.165 158.518 472.363 158.967 472.542C159.074 472.596 159.2 472.632 159.326 472.668C159.595 472.776 159.901 472.847 160.188 472.937C160.493 473.027 160.798 473.099 161.104 473.171C161.481 473.242 161.84 473.314 162.217 473.368C162.307 473.368 162.397 473.404 162.487 473.404C162.989 473.458 163.51 473.494 164.031 473.494C164.121 473.494 164.193 473.494 164.282 473.494C164.785 473.494 165.306 473.458 165.809 473.404C165.881 473.404 165.952 473.404 166.042 473.386C166.545 473.332 167.03 473.242 167.515 473.135C167.605 473.117 167.694 473.099 167.784 473.063C168.215 472.955 168.646 472.829 169.059 472.668C169.131 472.632 169.221 472.614 169.293 472.596C169.778 472.399 170.262 472.183 170.693 471.932L369.851 356.96C371.664 355.919 372.562 354.536 372.562 353.171V357.193C372.562 358.558 371.682 359.941 369.869 360.982L170.711 475.954C170.298 476.187 169.849 476.403 169.383 476.582C169.365 476.582 169.329 476.582 169.311 476.6C169.239 476.636 169.167 476.654 169.077 476.672C168.808 476.762 168.538 476.87 168.269 476.941C168.125 476.977 167.964 477.013 167.82 477.049C167.73 477.067 167.641 477.085 167.551 477.121C167.479 477.139 167.389 477.157 167.317 477.175C167.012 477.229 166.707 477.283 166.401 477.336C166.294 477.336 166.186 477.354 166.078 477.372C166.006 477.372 165.935 477.372 165.845 477.39C165.737 477.39 165.611 477.426 165.504 477.426C165.198 477.444 164.893 477.462 164.606 477.48C164.516 477.48 164.426 477.48 164.318 477.48C164.228 477.48 164.157 477.48 164.067 477.48C163.923 477.48 163.797 477.48 163.654 477.48C163.313 477.48 162.971 477.444 162.63 477.408C162.594 477.408 162.558 477.408 162.522 477.408C162.433 477.408 162.343 477.39 162.253 477.372C161.984 477.336 161.714 477.3 161.463 477.265C161.355 477.247 161.247 477.211 161.14 477.175C160.834 477.103 160.529 477.031 160.224 476.941C160.062 476.905 159.901 476.87 159.739 476.816C159.613 476.78 159.488 476.726 159.362 476.672C159.236 476.636 159.128 476.582 159.003 476.528C158.554 476.349 158.123 476.151 157.728 475.918L53.426 415.317C53.426 415.317 53.3542 415.281 53.3182 415.245C53.1387 415.137 53.013 415.012 52.8693 414.904C52.6538 414.742 52.4203 414.598 52.2228 414.437C52.2228 414.437 52.1869 414.401 52.1689 414.401C51.9534 414.203 51.7738 414.006 51.5943 413.79C51.5583 413.737 51.5224 413.701 51.5045 413.647C51.4685 413.593 51.4326 413.539 51.3967 413.503C51.3428 413.413 51.271 413.342 51.2351 413.252C51.1453 413.072 51.0555 412.911 50.9837 412.731C50.9837 412.713 50.9837 412.677 50.9657 412.641C50.9657 412.605 50.9478 412.569 50.9298 412.534C50.8939 412.426 50.858 412.318 50.84 412.192C50.8041 412.013 50.7861 411.833 50.7861 411.672C50.7861 411.636 50.7861 411.618 50.7861 411.6V407.596C50.7861 407.919 50.84 408.224 50.9298 408.529L50.8759 408.565Z" fill="#4A3882"/>
<path d="M53.426 403.825C49.8344 405.908 49.8164 409.266 53.3721 411.331L157.674 471.932C161.229 473.997 167.048 473.997 170.64 471.932L369.797 356.96C373.388 354.877 373.406 351.519 369.851 349.455L265.549 288.853C261.993 286.788 256.175 286.788 252.583 288.853L53.426 403.825Z" fill="#37295E"/>
<path d="M250.068 305.355V308.03L254.917 310.849L254.899 308.174L250.068 305.355Z" fill="#7986CB"/>
<path d="M254.899 308.174L254.917 310.849L266.177 304.349L266.159 301.674L254.899 308.174Z" fill="#EDE7F6"/>
<path d="M250.068 305.355L254.899 308.174L266.159 301.674L261.328 298.855L250.068 305.355Z" fill="#B39DDB"/>
<path d="M234.14 314.548L234.158 317.224L238.988 320.025V317.349L234.14 314.548Z" fill="#7986CB"/>
<path d="M238.988 317.349V320.025L250.266 313.525V310.849L238.988 317.349Z" fill="#EDE7F6"/>
<path d="M234.14 314.548L238.988 317.349L250.266 310.849L245.417 308.03L234.14 314.548Z" fill="#B39DDB"/>
<path d="M218.246 323.724V326.399L223.077 329.218V326.543L218.246 323.724Z" fill="#7986CB"/>
<path d="M223.077 326.543V329.218L234.355 322.718L234.337 320.042L223.077 326.543Z" fill="#EDE7F6"/>
<path d="M218.246 323.724L223.077 326.543L234.337 320.043L229.506 317.224L218.246 323.724Z" fill="#B39DDB"/>
<path d="M202.317 332.917L202.335 335.593L207.166 338.412V335.737L202.317 332.917Z" fill="#7986CB"/>
<path d="M207.166 335.736V338.412L218.444 331.894V329.218L207.166 335.736Z" fill="#EDE7F6"/>
<path d="M202.317 332.917L207.166 335.736L218.444 329.219L213.595 326.399L202.317 332.917Z" fill="#B39DDB"/>
<path d="M186.406 342.093L186.424 344.768L191.255 347.587V344.912L186.406 342.093Z" fill="#7986CB"/>
<path d="M191.255 344.912V347.587L202.533 341.087L202.515 338.412L191.255 344.912Z" fill="#EDE7F6"/>
<path d="M186.406 342.093L191.255 344.912L202.515 338.412L197.684 335.593L186.406 342.093Z" fill="#B39DDB"/>
<path d="M170.495 351.286L170.513 353.962L175.344 356.781V354.105L170.495 351.286Z" fill="#7986CB"/>
<path d="M175.344 354.105V356.78L186.622 350.262V347.587L175.344 354.105Z" fill="#EDE7F6"/>
<path d="M170.495 351.286L175.344 354.105L186.622 347.587L181.773 344.768L170.495 351.286Z" fill="#B39DDB"/>
<path d="M154.584 360.479V363.155L159.433 365.956L159.415 363.281L154.584 360.479Z" fill="#7986CB"/>
<path d="M159.415 363.28L159.433 365.956L170.711 359.456L170.693 356.78L159.415 363.28Z" fill="#EDE7F6"/>
<path d="M154.584 360.479L159.415 363.281L170.693 356.78L165.862 353.961L154.584 360.479Z" fill="#B39DDB"/>
<path d="M138.674 369.655V372.331L143.523 375.15V372.474L138.674 369.655Z" fill="#7986CB"/>
<path d="M143.522 372.475V375.15L154.8 368.632L154.782 365.957L143.522 372.475Z" fill="#EDE7F6"/>
<path d="M138.674 369.655L143.523 372.474L154.782 365.956L149.952 363.155L138.674 369.655Z" fill="#B39DDB"/>
<path d="M122.763 378.849V381.524L127.611 384.325L127.593 381.65L122.763 378.849Z" fill="#7986CB"/>
<path d="M127.594 381.649L127.612 384.325L138.89 377.825L138.872 375.149L127.594 381.649Z" fill="#EDE7F6"/>
<path d="M122.763 378.849L127.593 381.65L138.871 375.15L134.04 372.331L122.763 378.849Z" fill="#B39DDB"/>
<path d="M106.852 388.024V390.699L111.7 393.518V390.843L106.852 388.024Z" fill="#7986CB"/>
<path d="M111.7 390.843V393.519L122.978 387.001L122.96 384.325L111.7 390.843Z" fill="#EDE7F6"/>
<path d="M106.852 388.024L111.7 390.843L122.96 384.325L118.129 381.524L106.852 388.024Z" fill="#B39DDB"/>
<path d="M90.9404 397.217V399.893L95.7892 402.712L95.7712 400.036L90.9404 397.217Z" fill="#7986CB"/>
<path d="M95.7715 400.036L95.7894 402.711L107.067 396.193L107.049 393.518L95.7715 400.036Z" fill="#EDE7F6"/>
<path d="M90.9404 397.217L95.7712 400.036L107.049 393.518L102.218 390.699L90.9404 397.217Z" fill="#B39DDB"/>
<path d="M75.0293 406.393V409.068L79.878 411.887V409.212L75.0293 406.393Z" fill="#7986CB"/>
<path d="M79.8779 409.212V411.887L91.1557 405.369L91.1378 402.694L79.8779 409.212Z" fill="#EDE7F6"/>
<path d="M75.0293 406.393L79.878 409.212L91.1379 402.694L86.3071 399.893L75.0293 406.393Z" fill="#B39DDB"/>
<path d="M258.562 310.293V312.968L268.242 318.589V315.913L258.562 310.293Z" fill="#7986CB"/>
<path d="M268.242 315.913V318.589L279.502 312.088V309.413L268.242 315.913Z" fill="#EDE7F6"/>
<path d="M258.562 310.293L268.242 315.913L279.502 309.413L269.822 303.793L258.562 310.293Z" fill="#B39DDB"/>
<path d="M242.634 319.486L242.652 322.162L252.331 327.782L252.313 325.107L242.634 319.486Z" fill="#7986CB"/>
<path d="M252.313 325.106L252.331 327.782L263.609 321.264L263.591 318.588L252.313 325.106Z" fill="#EDE7F6"/>
<path d="M242.634 319.486L252.313 325.106L263.591 318.588L253.912 312.968L242.634 319.486Z" fill="#B39DDB"/>
<path d="M226.74 328.662V331.337L236.42 336.957V334.282L226.74 328.662Z" fill="#7986CB"/>
<path d="M236.42 334.282V336.957L247.68 330.457V327.782L236.42 334.282Z" fill="#EDE7F6"/>
<path d="M226.74 328.662L236.42 334.282L247.68 327.782L238 322.162L226.74 328.662Z" fill="#B39DDB"/>
<path d="M210.812 337.855L210.829 340.531L220.509 346.151L220.491 343.476L210.812 337.855Z" fill="#7986CB"/>
<path d="M220.491 343.476L220.509 346.151L231.787 339.651L231.769 336.976L220.491 343.476Z" fill="#EDE7F6"/>
<path d="M210.812 337.855L220.491 343.476L231.769 336.976L222.089 331.337L210.812 337.855Z" fill="#B39DDB"/>
<path d="M194.9 347.031L194.918 349.706L204.598 355.326V352.651L194.9 347.031Z" fill="#7986CB"/>
<path d="M204.598 352.651V355.326L215.857 348.826V346.151L204.598 352.651Z" fill="#EDE7F6"/>
<path d="M194.9 347.031L204.598 352.651L215.858 346.151L206.178 340.531L194.9 347.031Z" fill="#B39DDB"/>
<path d="M178.989 356.224L179.007 358.9L188.687 364.52L188.669 361.844L178.989 356.224Z" fill="#7986CB"/>
<path d="M188.669 361.844L188.687 364.52L199.965 358.02L199.947 355.344L188.669 361.844Z" fill="#EDE7F6"/>
<path d="M178.989 356.224L188.669 361.844L199.947 355.344L190.267 349.706L178.989 356.224Z" fill="#B39DDB"/>
<path d="M163.079 365.417V368.093L172.759 373.713V371.038L163.079 365.417Z" fill="#7986CB"/>
<path d="M172.759 371.038V373.713L184.037 367.195V364.52L172.759 371.038Z" fill="#EDE7F6"/>
<path d="M163.079 365.417L172.759 371.038L184.036 364.52L174.357 358.899L163.079 365.417Z" fill="#B39DDB"/>
<path d="M147.168 374.593L147.186 377.269L156.865 382.889L156.847 380.213L147.168 374.593Z" fill="#7986CB"/>
<path d="M156.848 380.213L156.866 382.889L168.125 376.389V373.713L156.848 380.213Z" fill="#EDE7F6"/>
<path d="M147.168 374.593L156.847 380.213L168.125 373.713L158.446 368.075L147.168 374.593Z" fill="#B39DDB"/>
<path d="M131.257 383.787V386.462L140.936 392.082V389.407L131.257 383.787Z" fill="#7986CB"/>
<path d="M140.937 389.407V392.082L152.214 385.564V382.889L140.937 389.407Z" fill="#EDE7F6"/>
<path d="M131.257 383.787L140.936 389.407L152.214 382.889L142.535 377.269L131.257 383.787Z" fill="#B39DDB"/>
<path d="M115.346 392.962V395.637L125.043 401.258L125.025 398.582L115.346 392.962Z" fill="#7986CB"/>
<path d="M125.025 398.582L125.043 401.257L136.303 394.757V392.082L125.025 398.582Z" fill="#EDE7F6"/>
<path d="M115.346 392.962L125.025 398.582L136.303 392.082L126.624 386.462L115.346 392.962Z" fill="#B39DDB"/>
<path d="M99.4346 402.155V404.831L109.114 410.451V407.775L99.4346 402.155Z" fill="#7986CB"/>
<path d="M109.114 407.775V410.451L120.392 403.951V401.275L109.114 407.775Z" fill="#EDE7F6"/>
<path d="M99.4346 402.155L109.114 407.775L120.392 401.275L110.712 395.637L99.4346 402.155Z" fill="#B39DDB"/>
<path d="M83.5234 411.331V414.006L93.2209 419.626L93.2029 416.951L83.5234 411.331Z" fill="#7986CB"/>
<path d="M93.2031 416.951L93.2211 419.626L104.481 413.126V410.451L93.2031 416.951Z" fill="#EDE7F6"/>
<path d="M83.5234 411.331L93.2029 416.951L104.481 410.451L94.8012 404.831L83.5234 411.331Z" fill="#B39DDB"/>
<path d="M271.888 318.032V320.707L281.585 326.345L281.567 323.67L271.888 318.032Z" fill="#7986CB"/>
<path d="M281.567 323.67L281.585 326.345L292.845 319.845V317.17L281.567 323.67Z" fill="#EDE7F6"/>
<path d="M271.888 318.032L281.567 323.67L292.845 317.17L283.148 311.532L271.888 318.032Z" fill="#B39DDB"/>
<path d="M255.959 327.226L255.977 329.901L265.656 335.521V332.864L255.959 327.226Z" fill="#7986CB"/>
<path d="M265.656 332.864V335.521L276.934 329.021V326.346L265.656 332.864Z" fill="#EDE7F6"/>
<path d="M255.959 327.226L265.656 332.864L276.934 326.346L267.237 320.708L255.959 327.226Z" fill="#B39DDB"/>
<path d="M240.065 336.401V339.076L249.763 344.714L249.745 342.039L240.065 336.401Z" fill="#7986CB"/>
<path d="M249.745 342.039L249.763 344.715L261.023 338.215V335.539L249.745 342.039Z" fill="#EDE7F6"/>
<path d="M240.065 336.401L249.745 342.039L261.023 335.539L251.325 329.901L240.065 336.401Z" fill="#B39DDB"/>
<path d="M224.137 345.594L224.155 348.27L233.834 353.908V351.232L224.137 345.594Z" fill="#7986CB"/>
<path d="M233.834 351.232V353.908L245.112 347.39V344.714L233.834 351.232Z" fill="#EDE7F6"/>
<path d="M224.137 345.594L233.834 351.232L245.112 344.714L235.415 339.076L224.137 345.594Z" fill="#B39DDB"/>
<path d="M208.244 354.77V357.445L217.942 363.083L217.924 360.408L208.244 354.77Z" fill="#7986CB"/>
<path d="M217.924 360.408L217.942 363.083L229.202 356.583L229.184 353.908L217.924 360.408Z" fill="#EDE7F6"/>
<path d="M208.244 354.77L217.924 360.408L229.183 353.908L219.504 348.27L208.244 354.77Z" fill="#B39DDB"/>
<path d="M192.314 363.963L192.332 366.638L202.012 372.276V369.601L192.314 363.963Z" fill="#7986CB"/>
<path d="M202.012 369.601V372.276L213.29 365.758V363.083L202.012 369.601Z" fill="#EDE7F6"/>
<path d="M192.314 363.963L202.012 369.601L213.29 363.083L203.592 357.463L192.314 363.963Z" fill="#B39DDB"/>
<path d="M176.403 373.157V375.832L186.101 381.452V378.777L176.403 373.157Z" fill="#7986CB"/>
<path d="M186.101 378.777V381.452L197.378 374.952L197.36 372.277L186.101 378.777Z" fill="#EDE7F6"/>
<path d="M176.403 373.157L186.101 378.777L197.361 372.277L187.681 366.639L176.403 373.157Z" fill="#B39DDB"/>
<path d="M160.492 382.332L160.51 385.007L170.19 390.646V387.97L160.492 382.332Z" fill="#7986CB"/>
<path d="M170.189 387.97V390.646L181.467 384.128V381.452L170.189 387.97Z" fill="#EDE7F6"/>
<path d="M160.492 382.332L170.19 387.97L181.467 381.452L171.77 375.832L160.492 382.332Z" fill="#B39DDB"/>
<path d="M144.582 391.525V394.201L154.279 399.839L154.262 397.164L144.582 391.525Z" fill="#7986CB"/>
<path d="M154.262 397.164L154.28 399.839L165.557 393.321L165.54 390.646L154.262 397.164Z" fill="#EDE7F6"/>
<path d="M144.582 391.525L154.262 397.163L165.539 390.645L155.86 385.007L144.582 391.525Z" fill="#B39DDB"/>
<path d="M128.671 400.701V403.376L138.368 409.014V406.339L128.671 400.701Z" fill="#7986CB"/>
<path d="M138.368 406.339V409.014L149.646 402.496V399.821L138.368 406.339Z" fill="#EDE7F6"/>
<path d="M128.671 400.701L138.368 406.339L149.646 399.821L139.949 394.201L128.671 400.701Z" fill="#B39DDB"/>
<path d="M112.76 409.894V412.569L122.457 418.208L122.439 415.532L112.76 409.894Z" fill="#7986CB"/>
<path d="M122.439 415.532L122.457 418.208L133.735 411.69L133.717 409.014L122.439 415.532Z" fill="#EDE7F6"/>
<path d="M112.76 409.894L122.439 415.532L133.717 409.014L124.038 403.394L112.76 409.894Z" fill="#B39DDB"/>
<path d="M96.8486 419.07V421.745L106.546 427.383V424.708L96.8486 419.07Z" fill="#7986CB"/>
<path d="M106.546 424.708V427.383L117.824 420.883V418.208L106.546 424.708Z" fill="#EDE7F6"/>
<path d="M96.8486 419.07L106.546 424.708L117.824 418.208L108.126 412.57L96.8486 419.07Z" fill="#B39DDB"/>
<path d="M285.213 325.789L285.231 328.464L294.91 334.084L294.892 331.409L285.213 325.789Z" fill="#7986CB"/>
<path d="M294.893 331.409L294.911 334.084L306.17 327.584V324.909L294.893 331.409Z" fill="#EDE7F6"/>
<path d="M285.213 325.789L294.892 331.409L306.17 324.909L296.473 319.289L285.213 325.789Z" fill="#B39DDB"/>
<path d="M269.302 334.964V337.64L278.981 343.278V340.603L269.302 334.964Z" fill="#7986CB"/>
<path d="M278.981 340.602V343.278L290.259 336.76V334.084L278.981 340.602Z" fill="#EDE7F6"/>
<path d="M269.302 334.964L278.981 340.603L290.259 334.085L280.58 328.464L269.302 334.964Z" fill="#B39DDB"/>
<path d="M253.391 344.158L253.409 346.833L263.088 352.453L263.07 349.778L253.391 344.158Z" fill="#7986CB"/>
<path d="M263.07 349.778L263.088 352.453L274.348 345.953V343.278L263.07 349.778Z" fill="#EDE7F6"/>
<path d="M253.391 344.158L263.07 349.778L274.348 343.278L264.65 337.658L253.391 344.158Z" fill="#B39DDB"/>
<path d="M237.479 353.351V356.027L247.159 361.647V358.971L237.479 353.351Z" fill="#7986CB"/>
<path d="M247.159 358.971V361.647L258.437 355.129V352.453L247.159 358.971Z" fill="#EDE7F6"/>
<path d="M237.479 353.351L247.159 358.971L258.437 352.453L248.757 346.833L237.479 353.351Z" fill="#B39DDB"/>
<path d="M221.568 362.526L221.586 365.202L231.266 370.822L231.248 368.147L221.568 362.526Z" fill="#7986CB"/>
<path d="M231.248 368.147L231.266 370.822L242.526 364.322L242.508 361.646L231.248 368.147Z" fill="#EDE7F6"/>
<path d="M221.568 362.526L231.248 368.147L242.508 361.647L232.828 356.026L221.568 362.526Z" fill="#B39DDB"/>
<path d="M205.658 371.72V374.396L215.338 380.016V377.34L205.658 371.72Z" fill="#7986CB"/>
<path d="M215.338 377.34V380.016L226.616 373.498V370.822L215.338 377.34Z" fill="#EDE7F6"/>
<path d="M205.658 371.72L215.338 377.34L226.616 370.822L216.936 365.202L205.658 371.72Z" fill="#B39DDB"/>
<path d="M189.729 380.896L189.746 383.571L199.426 389.209V386.534L189.729 380.896Z" fill="#7986CB"/>
<path d="M199.426 386.534V389.209L210.704 382.691L210.686 380.016L199.426 386.534Z" fill="#EDE7F6"/>
<path d="M189.729 380.896L199.426 386.534L210.686 380.016L201.006 374.396L189.729 380.896Z" fill="#B39DDB"/>
<path d="M173.836 390.089V392.764L183.515 398.384V395.709L173.836 390.089Z" fill="#7986CB"/>
<path d="M183.516 395.709V398.384L194.793 391.884V389.209L183.516 395.709Z" fill="#EDE7F6"/>
<path d="M173.836 390.089L183.515 395.709L194.793 389.209L185.114 383.571L173.836 390.089Z" fill="#B39DDB"/>
<path d="M157.906 399.264L157.924 401.94L167.604 407.578V404.902L157.906 399.264Z" fill="#7986CB"/>
<path d="M167.604 404.902V407.578L178.881 401.06L178.863 398.384L167.604 404.902Z" fill="#EDE7F6"/>
<path d="M157.906 399.264L167.604 404.902L178.864 398.384L169.184 392.764L157.906 399.264Z" fill="#B39DDB"/>
<path d="M142.014 408.458V411.133L151.693 416.754V414.078L142.014 408.458Z" fill="#7986CB"/>
<path d="M151.693 414.078V416.754L162.971 410.254V407.578L151.693 414.078Z" fill="#EDE7F6"/>
<path d="M142.014 408.458L151.693 414.078L162.971 407.578L153.273 401.94L142.014 408.458Z" fill="#B39DDB"/>
<path d="M110.191 426.827V429.502L119.871 435.122V432.447L110.191 426.827Z" fill="#7986CB"/>
<path d="M119.871 432.447V435.123L147.006 419.465V416.79L119.871 432.447Z" fill="#EDE7F6"/>
<path d="M110.191 426.827L119.871 432.447L147.006 416.79L137.326 411.151L110.191 426.827Z" fill="#B39DDB"/>
<path d="M298.556 333.528V336.203L308.235 341.841V339.166L298.556 333.528Z" fill="#7986CB"/>
<path d="M308.235 339.166V341.841L319.513 335.323L319.495 332.648L308.235 339.166Z" fill="#EDE7F6"/>
<path d="M298.556 333.528L308.235 339.166L319.495 332.648L309.816 327.028L298.556 333.528Z" fill="#B39DDB"/>
<path d="M282.627 342.721L282.645 345.397L292.324 351.017V348.341L282.627 342.721Z" fill="#7986CB"/>
<path d="M292.324 348.341V351.017L303.602 344.517L303.584 341.841L292.324 348.341Z" fill="#EDE7F6"/>
<path d="M282.627 342.721L292.324 348.341L303.584 341.841L293.905 336.203L282.627 342.721Z" fill="#B39DDB"/>
<path d="M266.733 351.896V354.572L276.413 360.21V357.535L266.733 351.896Z" fill="#7986CB"/>
<path d="M276.413 357.535V360.21L287.691 353.692L287.673 351.035L276.413 357.535Z" fill="#EDE7F6"/>
<path d="M266.733 351.897L276.413 357.535L287.673 351.035L277.993 345.396L266.733 351.897Z" fill="#B39DDB"/>
<path d="M250.805 361.09L250.823 363.765L260.502 369.385V366.71L250.805 361.09Z" fill="#7986CB"/>
<path d="M260.502 366.71V369.385L271.78 362.885L271.762 360.21L260.502 366.71Z" fill="#EDE7F6"/>
<path d="M250.805 361.09L260.502 366.71L271.762 360.21L262.082 354.59L250.805 361.09Z" fill="#B39DDB"/>
<path d="M234.912 370.266V372.941L244.592 378.579V375.904L234.912 370.266Z" fill="#7986CB"/>
<path d="M244.592 375.904V378.579L255.852 372.079V369.404L244.592 375.904Z" fill="#EDE7F6"/>
<path d="M234.912 370.266L244.592 375.904L255.851 369.404L246.172 363.766L234.912 370.266Z" fill="#B39DDB"/>
<path d="M218.982 379.459L219 382.134L228.68 387.755L228.662 385.079L218.982 379.459Z" fill="#7986CB"/>
<path d="M228.662 385.079L228.68 387.755L239.958 381.255L239.94 378.579L228.662 385.079Z" fill="#EDE7F6"/>
<path d="M218.982 379.459L228.662 385.079L239.94 378.579L230.26 372.959L218.982 379.459Z" fill="#B39DDB"/>
<path d="M203.071 388.652V391.328L212.769 396.948L212.751 394.273L203.071 388.652Z" fill="#7986CB"/>
<path d="M212.751 394.272L212.769 396.948L224.029 390.448V387.772L212.751 394.272Z" fill="#EDE7F6"/>
<path d="M203.071 388.652L212.751 394.272L224.029 387.772L214.349 382.134L203.071 388.652Z" fill="#B39DDB"/>
<path d="M187.161 397.828L187.179 400.503L196.859 406.141L196.841 403.466L187.161 397.828Z" fill="#7986CB"/>
<path d="M196.841 403.466L196.859 406.141L208.137 399.623L208.119 396.948L196.841 403.466Z" fill="#EDE7F6"/>
<path d="M187.161 397.828L196.841 403.466L208.118 396.948L198.439 391.328L187.161 397.828Z" fill="#B39DDB"/>
<path d="M171.25 407.021V409.697L180.947 415.317L180.93 412.642L171.25 407.021Z" fill="#7986CB"/>
<path d="M180.93 412.642L180.948 415.317L192.207 408.817V406.142L180.93 412.642Z" fill="#EDE7F6"/>
<path d="M171.25 407.021L180.93 412.642L192.207 406.142L182.528 400.503L171.25 407.021Z" fill="#B39DDB"/>
<path d="M155.339 416.197L155.357 418.872L165.036 424.51L165.018 421.835L155.339 416.197Z" fill="#7986CB"/>
<path d="M165.019 421.835L165.037 424.51L176.314 417.992L176.296 415.317L165.019 421.835Z" fill="#EDE7F6"/>
<path d="M155.339 416.197L165.018 421.835L176.296 415.317L166.617 409.697L155.339 416.197Z" fill="#B39DDB"/>
<path d="M139.428 425.39V428.066L149.107 433.686V431.01L139.428 425.39Z" fill="#7986CB"/>
<path d="M149.107 431.01V433.686L160.385 427.186V424.51L149.107 431.01Z" fill="#EDE7F6"/>
<path d="M139.428 425.39L149.107 431.01L160.385 424.51L150.706 418.89L139.428 425.39Z" fill="#B39DDB"/>
<path d="M123.517 434.565L123.535 437.241L133.214 442.879L133.196 440.204L123.517 434.565Z" fill="#7986CB"/>
<path d="M133.196 440.204L133.214 442.879L144.492 436.361L144.474 433.686L133.196 440.204Z" fill="#EDE7F6"/>
<path d="M123.517 434.565L133.196 440.204L144.474 433.686L134.794 428.065L123.517 434.565Z" fill="#B39DDB"/>
<path d="M311.881 341.285L311.899 343.96L321.578 349.58V346.905L311.881 341.285Z" fill="#7986CB"/>
<path d="M321.578 346.905V349.58L332.838 343.08V340.405L321.578 346.905Z" fill="#EDE7F6"/>
<path d="M311.881 341.285L321.578 346.905L332.838 340.405L323.159 334.785L311.881 341.285Z" fill="#B39DDB"/>
<path d="M295.97 350.478L295.988 353.153L305.667 358.774L305.649 356.098L295.97 350.478Z" fill="#7986CB"/>
<path d="M305.649 356.098L305.667 358.773L316.927 352.255V349.58L305.649 356.098Z" fill="#EDE7F6"/>
<path d="M295.97 350.478L305.649 356.098L316.927 349.58L307.248 343.96L295.97 350.478Z" fill="#B39DDB"/>
<path d="M280.059 359.654L280.077 362.329L289.756 367.949L289.738 365.274L280.059 359.654Z" fill="#7986CB"/>
<path d="M289.738 365.274L289.756 367.949L301.016 361.449V358.774L289.738 365.274Z" fill="#EDE7F6"/>
<path d="M280.059 359.654L289.738 365.274L301.016 358.774L291.336 353.154L280.059 359.654Z" fill="#B39DDB"/>
<path d="M200.504 405.585V408.26L210.183 413.881V411.205L200.504 405.585Z" fill="#7986CB"/>
<path d="M210.184 411.205V413.88L285.105 370.625V367.949L210.184 411.205Z" fill="#EDE7F6"/>
<path d="M200.504 405.585L210.183 411.205L285.105 367.949L275.426 362.329L200.504 405.585Z" fill="#B39DDB"/>
<path d="M184.593 414.778V417.454L194.272 423.074V420.399L184.593 414.778Z" fill="#7986CB"/>
<path d="M194.272 420.398V423.074L205.55 416.556V413.88L194.272 420.398Z" fill="#EDE7F6"/>
<path d="M184.593 414.778L194.272 420.398L205.55 413.88L195.853 408.26L184.593 414.778Z" fill="#B39DDB"/>
<path d="M168.682 423.954V426.629L178.361 432.249V429.574L168.682 423.954Z" fill="#7986CB"/>
<path d="M178.361 429.574V432.249L189.639 425.749V423.074L178.361 429.574Z" fill="#EDE7F6"/>
<path d="M168.682 423.954L178.361 429.574L189.639 423.074L179.959 417.436L168.682 423.954Z" fill="#B39DDB"/>
<path d="M152.771 433.147V435.822L162.45 441.443V438.767L152.771 433.147Z" fill="#7986CB"/>
<path d="M162.45 438.767V441.442L173.728 434.924L173.71 432.249L162.45 438.767Z" fill="#EDE7F6"/>
<path d="M152.771 433.147L162.45 438.767L173.71 432.249L164.03 426.629L152.771 433.147Z" fill="#B39DDB"/>
<path d="M136.859 442.323V444.998L146.539 450.618V447.943L136.859 442.323Z" fill="#7986CB"/>
<path d="M146.539 447.943V450.618L157.817 444.118V441.443L146.539 447.943Z" fill="#EDE7F6"/>
<path d="M136.859 442.323L146.539 447.943L157.817 441.443L148.137 435.823L136.859 442.323Z" fill="#B39DDB"/>
<path d="M221.641 412.175L243.226 424.726L295.611 394.488L274.025 381.937L221.641 412.175Z" fill="#4A3882"/>
<path d="M107.84 439.629L107.696 492.419L94.1016 500.302L94.2452 447.53L107.84 439.629Z" fill="#651FFF"/>
<path d="M94.2449 447.53L94.1012 500.302L80.417 492.419L80.5786 439.629L94.2449 447.53Z" fill="#512DA8"/>
<path d="M107.84 439.629L94.2453 447.53L80.5791 439.629L94.1556 431.729L107.84 439.629Z" fill="#7C4DFF"/>
<path d="M130.09 395.278L129.946 505.258L116.352 513.159L116.513 403.179L130.09 395.278Z" fill="#E040FB"/>
<path d="M116.513 403.179L116.352 513.159L102.686 505.258L102.829 395.278L116.513 403.179Z" fill="#7B1FA2"/>
<path d="M130.09 395.278L116.513 403.179L102.829 395.278L116.424 387.396L130.09 395.278Z" fill="#EA80FC"/>
<path d="M152.358 492.419L152.197 518.114L138.62 525.997L138.764 500.32L152.358 492.419Z" fill="#536DFE"/>
<path d="M138.763 500.32L138.62 525.997L124.936 518.114L125.079 492.419L138.763 500.32Z" fill="#3949AB"/>
<path d="M152.358 492.42L138.763 500.32L125.079 492.42L138.674 484.519L152.358 492.42Z" fill="#8C9EFF"/>
<path d="M152.537 262.513C152.986 262.243 153.345 262.189 153.615 262.297C153.884 262.423 154.01 262.674 154.01 263.069L153.363 263.464C153.363 263.231 153.291 263.087 153.148 263.015C153.004 262.944 152.807 262.997 152.555 263.141C152.304 263.285 152.106 263.464 151.98 263.662C151.855 263.841 151.783 264.057 151.783 264.236C151.783 264.416 151.855 264.524 151.998 264.56C152.142 264.595 152.376 264.56 152.699 264.488C153.148 264.362 153.471 264.38 153.704 264.488C153.938 264.595 154.046 264.829 154.064 265.188C154.064 265.583 153.92 265.978 153.651 266.355C153.381 266.732 153.022 267.055 152.591 267.307C152.178 267.558 151.801 267.63 151.478 267.558C151.172 267.486 151.011 267.217 151.011 266.768L151.657 266.373C151.657 266.66 151.747 266.822 151.909 266.858C152.088 266.894 152.304 266.84 152.573 266.678C152.825 266.535 153.022 266.373 153.166 266.176C153.291 265.978 153.363 265.781 153.363 265.583C153.363 265.386 153.309 265.26 153.166 265.206C153.04 265.152 152.825 265.17 152.501 265.26C152.052 265.386 151.693 265.404 151.46 265.332C151.226 265.242 151.083 265.026 151.083 264.667C151.083 264.29 151.226 263.895 151.496 263.5C151.765 263.105 152.124 262.782 152.537 262.549V262.513Z" fill="#493781"/>
<path d="M154.71 260.986L155.374 260.591V261.274L154.71 261.669V260.986Z" fill="#493781"/>
<path d="M154.728 265.978L154.71 262.512L155.392 262.117V265.601L154.728 265.978Z" fill="#493781"/>
<path d="M156.973 260.358V261.202L157.512 260.896V261.471L156.973 261.776V263.697C156.973 263.841 157.009 263.931 157.063 263.949L157.278 263.913L157.386 263.841L157.476 263.751L157.548 264.272L157.35 264.47L157.099 264.649C156.865 264.793 156.65 264.811 156.524 264.721C156.381 264.631 156.309 264.416 156.309 264.057V262.135L155.842 262.405V261.83L156.291 261.561V260.717L156.955 260.322L156.973 260.358Z" fill="#493781"/>
<path d="M161.966 261.417L162.055 261.758L161.373 262.153L161.319 261.92L161.283 261.686C161.194 261.902 161.068 262.117 160.924 262.315C160.763 262.512 160.601 262.674 160.403 262.782C160.098 262.961 159.847 262.997 159.685 262.907C159.523 262.818 159.434 262.62 159.434 262.297C159.434 261.974 159.559 261.632 159.775 261.309C160.008 261.004 160.332 260.717 160.745 260.465L161.265 260.16V259.855C161.265 259.675 161.211 259.55 161.122 259.514C161.032 259.46 160.888 259.496 160.727 259.586C160.565 259.675 160.457 259.783 160.349 259.927L160.224 260.34L159.577 260.717C159.577 260.447 159.667 260.124 159.901 259.801C160.134 259.46 160.421 259.19 160.78 258.975C161.14 258.76 161.409 258.706 161.625 258.795C161.84 258.885 161.948 259.101 161.948 259.496V261.04C161.948 261.184 161.948 261.309 161.984 261.435L161.966 261.417ZM161.265 261.166V260.663L160.727 260.968C160.529 261.076 160.385 261.22 160.26 261.399C160.152 261.579 160.098 261.74 160.098 261.884L160.206 262.135C160.206 262.135 160.385 262.135 160.529 262.063C160.691 261.974 160.852 261.83 160.978 261.668C161.122 261.489 161.211 261.309 161.247 261.166" fill="#493781"/>
<path d="M165.917 255.994C166.222 255.815 166.455 255.815 166.635 255.94C166.797 256.084 166.904 256.389 166.904 256.856V258.957L166.222 259.352V257.251C166.222 256.964 166.168 256.784 166.078 256.713C165.988 256.641 165.863 256.659 165.683 256.766C165.54 256.856 165.414 256.964 165.306 257.126C165.216 257.269 165.144 257.431 165.091 257.61V257.7V257.754V259.999L164.408 260.394V258.293C164.408 258.005 164.372 257.826 164.264 257.754C164.175 257.682 164.031 257.7 163.869 257.79C163.726 257.88 163.618 257.97 163.528 258.095L163.295 258.472V261.022L162.612 261.417V257.952L163.223 257.592L163.259 258.023C163.349 257.808 163.474 257.61 163.636 257.431C163.78 257.251 163.959 257.108 164.157 257C164.354 256.892 164.516 256.838 164.66 256.856C164.803 256.856 164.911 256.964 164.983 257.126C165.073 256.892 165.198 256.677 165.342 256.479C165.504 256.282 165.683 256.12 165.881 255.994H165.917Z" fill="#493781"/>
<path d="M170.083 255.599L168.197 256.695V256.731C168.197 256.982 168.287 257.18 168.395 257.269C168.521 257.377 168.7 257.359 168.934 257.215C169.113 257.108 169.275 257 169.401 256.874C169.526 256.749 169.652 256.605 169.778 256.443L170.011 256.82C169.886 257 169.742 257.18 169.562 257.377C169.365 257.575 169.149 257.736 168.916 257.88C168.485 258.131 168.144 258.149 167.892 257.988C167.623 257.808 167.515 257.467 167.497 256.964V256.838C167.497 256.336 167.623 255.851 167.856 255.366C168.09 254.881 168.431 254.54 168.808 254.325C169.221 254.091 169.526 254.055 169.742 254.217C169.957 254.36 170.065 254.684 170.065 255.169V255.617L170.083 255.599ZM168.413 255.402C168.305 255.617 168.233 255.851 168.215 256.102L169.401 255.42V255.33C169.401 255.115 169.347 254.953 169.257 254.881C169.167 254.791 169.024 254.809 168.808 254.935C168.646 255.025 168.503 255.186 168.395 255.402" fill="#493781"/>
<path d="M171.465 252.008V252.852L172.004 252.547V253.121L171.465 253.427V255.348C171.465 255.492 171.501 255.581 171.537 255.617L171.753 255.581L171.86 255.51L171.968 255.42L172.04 255.941L171.842 256.138L171.591 256.318C171.34 256.461 171.142 256.479 170.998 256.389C170.855 256.3 170.801 256.084 170.801 255.725V253.804L170.334 254.073V253.499L170.801 253.229V252.385L171.465 251.99V252.008Z" fill="#493781"/>
<path d="M157.53 271.347V272.998C156.255 275.674 155.393 278.062 154.926 280.127C154.459 282.192 154.118 284.598 153.938 287.327L153.83 288.854L151.981 289.931L152.088 288.405C152.268 285.819 152.681 283.341 153.274 281.025C153.866 278.691 154.692 276.356 155.734 274.022L149.754 277.47V275.836L157.548 271.329L157.53 271.347Z" fill="#493781"/>
<path d="M165.593 268.061C166.257 268.761 166.598 270.072 166.598 272.065V275.53C166.598 277.523 166.293 279.229 165.629 280.684C164.964 282.12 164.066 283.162 162.935 283.826C161.804 284.49 160.888 284.472 160.205 283.826C159.523 283.144 159.2 281.815 159.182 279.84V276.374C159.182 274.399 159.505 272.675 160.169 271.221C160.834 269.784 161.732 268.707 162.863 268.061C163.994 267.396 164.91 267.414 165.593 268.079V268.061ZM164.767 276.877V272.801C164.767 271.418 164.587 270.467 164.264 269.928C163.941 269.407 163.474 269.318 162.863 269.677C162.27 270.018 161.804 270.646 161.498 271.544C161.193 272.442 161.031 273.573 161.031 274.956V279.032C161.031 280.414 161.211 281.402 161.534 281.923C161.857 282.443 162.324 282.551 162.917 282.21C163.51 281.869 163.959 281.258 164.282 280.343C164.587 279.463 164.749 278.296 164.749 276.895" fill="#493781"/>
<path d="M177.499 259.819L173.315 269.533L177.858 274.974L175.596 276.284L171.932 271.508L170.675 272.226L170.693 279.121L168.825 280.199L168.771 264.847L170.639 263.769L170.657 270.521L171.771 269.892L175.29 261.094L177.499 259.819Z" fill="#493781"/>
<path d="M152.646 299.519C153.095 299.25 153.454 299.196 153.723 299.304C153.992 299.43 154.118 299.681 154.118 300.076L153.472 300.471C153.472 300.238 153.4 300.094 153.256 300.022C153.112 299.968 152.915 300.004 152.664 300.148C152.412 300.292 152.215 300.471 152.089 300.669C151.963 300.848 151.891 301.064 151.891 301.243C151.891 301.423 151.963 301.53 152.107 301.566C152.251 301.602 152.484 301.566 152.807 301.495C153.256 301.369 153.579 301.387 153.813 301.495C154.046 301.602 154.154 301.836 154.172 302.195C154.172 302.59 154.028 302.985 153.759 303.362C153.49 303.739 153.13 304.062 152.699 304.314C152.286 304.547 151.909 304.637 151.586 304.565C151.281 304.493 151.119 304.224 151.119 303.793V303.757L151.784 303.38C151.784 303.667 151.873 303.829 152.035 303.865C152.215 303.901 152.43 303.847 152.699 303.685C152.951 303.542 153.148 303.38 153.292 303.182C153.418 302.985 153.49 302.787 153.49 302.59C153.49 302.392 153.436 302.267 153.292 302.213C153.166 302.159 152.951 302.177 152.628 302.267C152.179 302.392 151.82 302.41 151.586 302.339C151.353 302.249 151.209 302.033 151.209 301.674C151.209 301.297 151.353 300.902 151.622 300.507C151.891 300.112 152.251 299.789 152.664 299.555L152.646 299.519Z" fill="#E040FB"/>
<path d="M154.818 297.993L155.483 297.616V298.281L154.818 298.676V297.993Z" fill="#E040FB"/>
<path d="M154.836 302.985L154.818 299.538L155.483 299.143L155.501 302.608L154.836 302.985Z" fill="#E040FB"/>
<path d="M157.081 297.365V298.227L157.619 297.922V298.478L157.081 298.784V300.705C157.081 300.848 157.117 300.938 157.17 300.956L157.386 300.92L157.494 300.848L157.583 300.759L157.655 301.279L157.458 301.477L157.206 301.656C156.973 301.8 156.757 301.836 156.632 301.728C156.488 301.639 156.416 301.423 156.416 301.064V299.143L155.949 299.412V298.855L156.398 298.586V297.724L157.063 297.329L157.081 297.365Z" fill="#E040FB"/>
<path d="M162.073 298.424L162.163 298.765L161.481 299.161L161.427 298.927L161.391 298.694C161.301 298.909 161.175 299.125 161.032 299.322C160.87 299.52 160.708 299.681 160.511 299.789C160.205 299.969 159.954 300.004 159.792 299.915C159.631 299.825 159.541 299.627 159.541 299.304C159.541 298.981 159.667 298.64 159.882 298.317C160.116 298.011 160.439 297.724 160.852 297.473L161.373 297.167V296.862C161.373 296.683 161.319 296.557 161.229 296.521C161.139 296.485 160.996 296.503 160.834 296.593C160.672 296.683 160.565 296.79 160.457 296.934L160.331 297.347L159.685 297.724C159.685 297.455 159.774 297.132 160.008 296.808C160.241 296.467 160.529 296.198 160.888 295.982C161.247 295.767 161.516 295.713 161.732 295.803C161.947 295.893 162.055 296.108 162.055 296.503V298.047C162.055 298.191 162.055 298.317 162.091 298.442L162.073 298.424ZM161.373 298.173V297.67L160.834 297.975C160.636 298.083 160.493 298.227 160.367 298.406C160.259 298.586 160.205 298.748 160.205 298.891L160.313 299.143C160.313 299.143 160.493 299.143 160.636 299.071C160.798 298.981 160.96 298.837 161.085 298.676C161.229 298.496 161.319 298.317 161.355 298.173" fill="#E040FB"/>
<path d="M166.024 293.002C166.329 292.822 166.563 292.822 166.742 292.948C166.904 293.091 167.012 293.397 167.012 293.864V295.964L166.329 296.359V294.259C166.329 293.971 166.275 293.792 166.186 293.72C166.096 293.648 165.97 293.666 165.791 293.774C165.647 293.864 165.521 293.971 165.413 294.133C165.324 294.277 165.252 294.438 165.198 294.618V294.708V294.761V297.006L164.516 297.401V295.3C164.516 295.031 164.48 294.833 164.372 294.761C164.282 294.69 164.138 294.707 163.977 294.797C163.833 294.887 163.725 294.977 163.636 295.103L163.402 295.48V298.029L162.72 298.424V294.959L163.33 294.6L163.366 295.013C163.456 294.797 163.582 294.6 163.743 294.42C163.887 294.241 164.067 294.097 164.264 293.989C164.462 293.882 164.623 293.846 164.767 293.846C164.911 293.846 165.018 293.953 165.09 294.133C165.18 293.899 165.306 293.666 165.449 293.469C165.611 293.271 165.791 293.109 165.988 292.984L166.024 293.002Z" fill="#E040FB"/>
<path d="M170.19 292.606L168.305 293.702V293.737C168.305 293.989 168.395 294.186 168.502 294.276C168.628 294.384 168.808 294.366 169.041 294.222C169.221 294.115 169.382 294.007 169.508 293.881C169.634 293.755 169.759 293.612 169.885 293.45L170.119 293.827C169.993 294.007 169.849 294.186 169.67 294.384C169.49 294.581 169.257 294.743 169.023 294.887C168.592 295.138 168.251 295.156 168 294.994C167.73 294.815 167.622 294.492 167.604 293.971V293.845C167.604 293.342 167.73 292.858 167.964 292.373C168.215 291.888 168.538 291.547 168.915 291.331C169.328 291.098 169.634 291.062 169.849 291.224C170.065 291.367 170.173 291.691 170.173 292.157V292.606H170.19ZM168.52 292.409C168.413 292.624 168.341 292.858 168.323 293.109L169.508 292.427V292.337C169.508 292.121 169.454 291.96 169.364 291.888C169.275 291.798 169.131 291.816 168.915 291.942C168.754 292.032 168.61 292.193 168.502 292.409" fill="#E040FB"/>
<path d="M171.573 288.997V289.859L172.112 289.554V290.111L171.573 290.416V292.337C171.573 292.481 171.609 292.571 171.645 292.607L171.86 292.571L171.968 292.499L172.076 292.409L172.147 292.93L171.95 293.127L171.698 293.307C171.447 293.451 171.25 293.486 171.106 293.379C170.962 293.289 170.908 293.073 170.908 292.714V290.793L170.441 291.062V290.506L170.908 290.236V289.375L171.573 288.979V288.997Z" fill="#E040FB"/>
<path d="M154.998 309.862L155.052 325.25L153.184 326.31L153.148 313.094L150.544 314.8L150.526 313.418L154.998 309.862Z" fill="#E040FB"/>
<path d="M162.918 305.086C164.013 304.458 164.875 304.35 165.504 304.781C166.15 305.212 166.473 306.074 166.473 307.366C166.473 308.246 166.276 309.216 165.899 310.293C165.522 311.371 164.965 312.663 164.211 314.136L161.697 319.756L166.851 316.775V318.409L159.362 322.737V321.318L163.007 313.651C163.6 312.358 164.013 311.317 164.247 310.545C164.48 309.772 164.588 309.108 164.588 308.516C164.588 307.708 164.444 307.133 164.139 306.792C163.834 306.451 163.421 306.433 162.918 306.72C162.271 307.097 161.786 307.672 161.445 308.426C161.122 309.18 160.96 310.042 160.96 311.011L159.182 312.035V311.999C159.146 310.67 159.47 309.377 160.152 308.067C160.817 306.756 161.75 305.768 162.936 305.086H162.918Z" fill="#E040FB"/>
<path d="M174.86 299.789C175.542 300.453 175.866 301.782 175.884 303.775V307.24C175.884 309.234 175.56 310.939 174.914 312.394C174.249 313.83 173.351 314.872 172.22 315.536C171.089 316.2 170.173 316.2 169.49 315.536C168.808 314.872 168.485 313.525 168.467 311.55V308.084C168.467 306.109 168.79 304.385 169.455 302.949C170.119 301.495 171.017 300.435 172.148 299.771C173.28 299.106 174.195 299.124 174.86 299.825V299.789ZM174.052 308.587V304.511C174.052 303.129 173.872 302.177 173.531 301.638C173.226 301.118 172.741 301.028 172.148 301.369C171.556 301.71 171.089 302.339 170.783 303.236C170.478 304.134 170.316 305.265 170.316 306.648V310.724C170.316 312.107 170.496 313.094 170.819 313.615C171.143 314.136 171.609 314.243 172.202 313.902C172.795 313.561 173.244 312.95 173.567 312.053C173.872 311.155 174.034 310.006 174.034 308.587" fill="#E040FB"/>
<path d="M186.783 291.529L182.599 301.243L187.143 306.684L184.862 307.995L181.216 303.219L179.941 303.955L179.959 310.832L178.092 311.909L178.056 296.557L179.923 295.48L179.941 302.231L181.037 301.603L184.557 292.804L186.783 291.529Z" fill="#E040FB"/>
<path d="M212.069 244.305C215.356 242.402 218.463 242.078 220.815 243.425C223.15 244.754 224.443 247.573 224.461 251.362C224.461 255.15 223.204 259.46 220.869 263.482C218.534 267.504 215.446 270.772 212.141 272.675V267.773C214.278 266.534 216.308 264.397 217.816 261.758C219.342 259.118 220.169 256.317 220.169 253.839C220.169 251.361 219.307 249.512 217.78 248.65C216.254 247.77 214.224 247.986 212.069 249.225C209.914 250.464 207.885 252.6 206.377 255.24C204.868 257.879 204.024 260.681 204.024 263.159C204.024 265.636 204.868 267.486 206.413 268.348L203.396 273.555C201.061 272.226 199.768 269.407 199.75 265.618C199.75 261.83 201.007 257.52 203.342 253.498C205.676 249.476 208.765 246.208 212.069 244.305Z" fill="#493781"/>
<path d="M212.034 231.502V239.69C207.688 242.204 203.594 246.531 200.505 251.864C197.434 257.197 195.746 262.889 195.746 267.917C195.746 272.926 197.47 276.679 200.577 278.439C203.683 280.198 207.796 279.785 212.16 277.272C216.523 274.758 220.636 270.43 223.707 265.097L228.753 267.988C224.335 275.638 218.445 281.85 212.178 285.477C205.91 289.104 200.002 289.697 195.548 287.165C191.095 284.633 188.634 279.265 188.616 272.064C188.598 264.864 191.023 256.676 195.44 249.027C199.858 241.378 205.748 235.165 212.016 231.538L212.034 231.502Z" fill="#7B1FA2"/>
<path d="M212.034 231.502C218.302 227.875 224.21 227.282 228.664 229.814C233.117 232.346 235.577 237.715 235.595 244.915C235.613 252.115 233.189 260.303 228.771 267.953L223.725 265.062C226.796 259.729 228.484 254.037 228.484 249.009C228.484 243.981 226.76 240.247 223.653 238.487C220.546 236.727 216.434 237.14 212.07 239.654V231.466L212.034 231.502Z" fill="#E040FB"/>
<path d="M206.412 268.329C207.939 269.209 209.968 268.994 212.123 267.755V272.657C208.837 274.56 205.73 274.883 203.396 273.537L206.412 268.329Z" fill="#E040FB"/>
<path d="M93.3648 214.193L93.2571 361.97L83.9727 367.375L84.0804 219.58L93.3648 214.193Z" fill="#536DFE"/>
<path d="M84.0808 219.58L83.9731 367.375L74.6348 361.97L74.7425 214.193L84.0808 219.58Z" fill="#3949AB"/>
<path d="M93.3649 214.193L84.0805 219.58L74.7422 214.193L84.0266 208.806L93.3649 214.193Z" fill="#8C9EFF"/>
<path d="M116.154 303.631L116.064 348.09L106.779 353.477L106.887 309.018L116.154 303.631Z" fill="#E040FB"/>
<path d="M106.887 309.018L106.78 353.477L97.4414 348.09L97.5312 303.631L106.887 309.018Z" fill="#7B1FA2"/>
<path d="M116.154 303.631L106.888 309.018L97.5312 303.631L106.816 298.227L116.154 303.631Z" fill="#EA80FC"/>
<path d="M138.44 248.561L138.35 334.354L129.065 339.759L129.173 253.965L138.44 248.561Z" fill="#651FFF"/>
<path d="M129.174 253.965L129.066 339.759L119.728 334.354L119.817 248.561L129.174 253.965Z" fill="#512DA8"/>
<path d="M138.44 248.561L129.174 253.965L119.817 248.561L129.102 243.174L138.44 248.561Z" fill="#7C4DFF"/>
</svg>
