<svg width="65" height="66" viewBox="0 0 65 66" fill="none" xmlns="http://www.w3.org/2000/svg">
<g opacity="0.6">
<path d="M33.7697 29.3057C26.4288 29.3057 20.5449 35.2904 20.5449 42.5304V47.8427H47.0953V42.6425C46.9832 35.3016 41.1105 29.3057 33.7585 29.3057H33.7697Z" stroke="white" stroke-width="2" stroke-miterlimit="10"/>
<path d="M33.7697 27.95C37.2776 27.95 40.1019 25.1257 40.1019 21.6178C40.1019 18.1099 37.2776 15.2856 33.7697 15.2856C30.2618 15.2856 27.4375 18.1099 27.4375 21.6178C27.5496 25.1257 30.2618 27.95 33.7697 27.95Z" stroke="white" stroke-width="2" stroke-miterlimit="10"/>
<path d="M32.526 1.28711C15.0088 1.28711 0.775391 15.5205 0.775391 33.0377C0.775391 50.5549 15.0088 64.7883 32.526 64.7883C50.0432 64.7883 64.2766 50.5549 64.2766 33.0377C64.2766 15.5205 50.0432 1.28711 32.526 1.28711ZM32.526 60.6079C17.3848 60.6079 4.95576 48.291 4.95576 33.0377C4.95576 17.7844 17.2727 5.46747 32.526 5.46747C47.7793 5.46747 60.0962 17.7844 60.0962 33.0377C60.0962 48.291 47.6672 60.6079 32.526 60.6079Z" stroke="white" stroke-miterlimit="10"/>
</g>
</svg>
