<svg width="67" height="66" viewBox="0 0 67 66" fill="none" xmlns="http://www.w3.org/2000/svg">
<path opacity="0.6" d="M58.4961 29.541C58.1599 29.541 57.8237 29.3169 57.8237 28.9806C57.2633 25.2486 55.6718 21.6398 53.5312 18.5802C53.3071 18.356 53.3071 17.9077 53.6433 17.6723L58.3952 12.9316L53.5312 8.0676L48.7905 12.8083C48.5663 13.0325 48.118 13.0325 47.8827 12.9204C44.8343 10.7686 41.2143 9.30041 37.4822 8.62797C37.146 8.62797 36.9218 8.29174 36.9218 7.95552V1.28711H30.0293V7.95552C30.0293 8.29174 29.8051 8.62797 29.4689 8.62797C25.7368 9.18834 22.2401 10.7798 19.1917 12.9204C18.9676 13.1446 18.5081 13.1446 18.2839 12.8083L13.5432 8.0676L8.67916 12.9316L13.4199 17.6723C13.644 17.8965 13.644 18.3448 13.532 18.5802C11.3801 21.6286 9.91197 25.1365 9.23953 28.8574C9.23953 29.1936 8.90331 29.4177 8.55588 29.4177H1.77539V36.3103H8.55588C8.8921 36.3103 9.23953 36.5344 9.23953 36.8706C9.7999 40.6027 11.2681 44.0994 13.532 47.1478C13.7561 47.372 13.644 47.8203 13.4199 48.0556L8.67916 52.7964L13.5432 57.6604L18.2839 52.9197C18.5081 52.6955 18.9564 52.6955 19.1917 52.8076C22.2401 54.9594 25.748 56.5397 29.4689 57.1C29.8051 57.2121 30.0293 57.4363 30.0293 57.7725V64.4409H36.9218V57.7725C36.9218 57.4363 37.146 57.1 37.4822 57.1C41.2143 56.5397 44.8231 55.0715 47.8827 52.8076C48.1068 52.5834 48.5663 52.6955 48.7905 52.9197L53.5312 57.6604L58.3952 52.7964L53.6433 48.0556C53.4192 47.8315 53.4192 47.3832 53.5312 47.1478C55.7951 44.0994 57.2633 40.4794 57.8237 36.7474C57.8237 36.4111 58.1599 36.187 58.4961 36.187H65.1645V29.2944L58.4961 29.5186V29.541ZM36.3503 48.9747C35.3304 49.1988 34.4338 49.1988 33.4139 49.1988C32.394 49.1988 31.3854 49.0867 30.4776 48.9747C22.7893 47.5065 17.1408 40.8381 17.1408 33.0377C17.1408 24.1166 24.3695 16.7645 33.4139 16.7645C42.4583 16.7645 49.6871 23.9933 49.6871 33.0377C49.575 40.8381 44.0385 47.6186 36.3503 48.9747Z" stroke="white" stroke-width="2" stroke-miterlimit="10"/>
</svg>
