<svg width="511" height="493" viewBox="0 0 511 493" fill="none" xmlns="http://www.w3.org/2000/svg">
<g clip-path="url(#clip0_1293_6168)">
<g style="mix-blend-mode:multiply" opacity="0.3">
<path d="M129.978 392.14C120.195 397.799 104.328 397.799 94.5448 392.14C84.7614 386.482 84.7614 377.316 94.5448 371.657C104.328 365.998 120.195 365.998 129.978 371.657C139.761 377.316 139.761 386.482 129.978 392.14ZM93.1007 342.767C80.5917 335.535 60.3029 335.535 47.7939 342.767C35.2849 349.999 35.2849 361.732 47.7939 368.963C60.3029 376.195 80.5917 376.195 93.1007 368.963C105.61 361.732 105.61 349.999 93.1007 342.767Z" fill="#3A0155"/>
</g>
<g style="mix-blend-mode:multiply" opacity="0.3">
<path d="M410.194 326.026L288.064 255.391C286.133 254.271 283.01 254.271 281.097 255.391L107.45 356.453C105.519 357.574 105.555 359.4 107.468 360.502L182.342 403.801L139.255 428.714C138.894 428.931 138.894 429.455 139.255 429.672L157.487 440.212C158.299 440.682 159.31 440.682 160.122 440.212L202.703 415.589L229.58 431.137C231.512 432.258 234.635 432.258 236.566 431.137L410.212 330.076C412.125 328.955 412.089 327.147 410.176 326.026H410.194Z" fill="#3A0155"/>
</g>
<path d="M50.6455 175.067L226.404 72.4506C226.981 72.1252 227.577 71.9805 228.173 72.0167L226.819 71.9444C226.241 71.9082 225.627 72.0529 225.05 72.3783L49.2917 174.994C47.3423 176.115 46.4217 179.044 47.252 181.539L99.6166 338.337C100.212 340.091 101.512 341.158 102.902 341.23L104.256 341.302C102.866 341.23 101.548 340.163 100.97 338.41L48.6058 181.611C47.7755 179.116 48.6961 176.187 50.6455 175.067Z" fill="url(#paint0_linear_1293_6168)"/>
<path d="M226.403 72.4508C228.353 71.3299 230.627 72.3966 231.458 74.8915L283.822 231.69C284.652 234.185 283.732 237.114 281.782 238.235L106.024 340.851C104.075 341.971 101.8 340.905 100.97 338.41L48.6055 181.611C47.7752 179.116 48.6958 176.188 50.6452 175.067L226.403 72.4508Z" fill="#181019"/>
<path d="M106.007 340.164V345.208C106.007 345.949 106.476 346.69 107.451 347.251L229.581 417.885C231.512 419.006 234.635 419.006 236.566 417.885L410.213 316.824C411.151 316.281 411.639 315.558 411.639 314.835V309.791L106.025 340.182L106.007 340.164Z" fill="url(#paint1_linear_1293_6168)"/>
<path d="M410.195 307.712C412.126 308.833 412.144 310.641 410.231 311.762L236.585 412.823C234.653 413.944 231.531 413.944 229.599 412.823L107.469 342.188C105.538 341.068 105.52 339.26 107.451 338.139L281.097 237.078C283.011 235.957 286.134 235.975 288.065 237.078L410.195 307.712Z" fill="url(#paint2_linear_1293_6168)"/>
<g style="mix-blend-mode:multiply" opacity="0.2">
<path d="M345.953 340.164L287.649 373.881C286.332 374.64 284.22 374.64 282.902 373.881L244.256 351.535C242.938 350.776 242.938 349.546 244.256 348.787L302.559 315.07C303.877 314.311 305.989 314.311 307.306 315.07L345.953 337.416C347.27 338.175 347.27 339.404 345.953 340.164Z" fill="#F3BEFB"/>
</g>
<g style="mix-blend-mode:multiply" opacity="0.6">
<path d="M244.256 349.492L302.56 315.775C303.877 315.016 305.989 315.016 307.307 315.775L345.953 338.121C346.459 338.41 346.765 338.771 346.874 339.133C347.072 338.518 346.765 337.886 345.953 337.416L307.307 315.07C305.989 314.311 303.877 314.311 302.56 315.07L244.256 348.787C243.444 349.257 243.137 349.908 243.336 350.505C243.462 350.125 243.769 349.782 244.256 349.492Z" fill="#CB89F0"/>
</g>
<g style="mix-blend-mode:multiply" opacity="0.2">
<path d="M286.205 246.876L123.895 340.742C122.577 341.501 120.465 341.501 119.147 340.742L116.873 339.422C115.555 338.663 115.555 337.433 116.873 336.674L279.183 242.808C280.501 242.049 282.613 242.049 283.931 242.808L286.205 244.128C287.523 244.887 287.523 246.117 286.205 246.876Z" fill="#F3BEFB"/>
</g>
<g style="mix-blend-mode:multiply" opacity="0.6">
<path d="M116.855 337.379L279.166 243.513C280.483 242.754 282.595 242.754 283.913 243.513L286.187 244.833C286.693 245.122 286.999 245.484 287.108 245.846C287.306 245.231 286.999 244.598 286.187 244.128L283.913 242.808C282.595 242.049 280.483 242.049 279.166 242.808L116.855 336.674C116.043 337.144 115.736 337.795 115.934 338.392C116.061 338.012 116.368 337.668 116.855 337.379Z" fill="#CB89F0"/>
</g>
<path d="M177.757 354.916C177.739 354.826 177.739 354.735 177.757 354.645C177.739 354.554 177.739 354.464 177.757 354.374C177.685 354.048 177.848 353.687 178.281 353.434L186.133 348.896C186.891 348.462 188.137 348.462 188.895 348.896L195.501 352.71C195.934 352.963 196.097 353.307 196.025 353.65C196.043 353.741 196.043 353.831 196.025 353.922C196.043 354.012 196.043 354.102 196.025 354.193C196.097 354.518 195.934 354.88 195.501 355.133L187.649 359.671C186.891 360.105 185.646 360.105 184.887 359.671L178.281 355.856C177.848 355.603 177.685 355.259 177.757 354.916ZM162.378 351.571L168.985 355.386C169.743 355.82 170.988 355.82 171.747 355.386L179.599 350.848C180.032 350.595 180.194 350.252 180.122 349.908C180.14 349.818 180.14 349.727 180.122 349.637C180.14 349.547 180.14 349.456 180.122 349.366C180.194 349.04 180.032 348.679 179.599 348.426L172.992 344.611C172.234 344.177 170.988 344.177 170.23 344.611L162.378 349.149C161.945 349.402 161.783 349.745 161.855 350.089C161.837 350.179 161.837 350.27 161.855 350.36C161.837 350.45 161.837 350.541 161.855 350.631C161.783 350.957 161.945 351.318 162.378 351.571ZM180.609 325.429C180.176 325.682 180.014 326.026 180.086 326.369C180.068 326.46 180.068 326.55 180.086 326.641C180.068 326.731 180.068 326.821 180.086 326.912C180.014 327.237 180.176 327.599 180.609 327.852L187.216 331.666C187.974 332.1 189.22 332.1 189.978 331.666L197.83 327.129C198.263 326.876 198.425 326.532 198.353 326.189C198.371 326.098 198.371 326.008 198.353 325.917C198.371 325.827 198.371 325.737 198.353 325.646C198.425 325.321 198.263 324.959 197.83 324.706C188.1 319.084 191.386 319.192 180.591 325.429H180.609ZM289.165 300.968L297.017 296.431C297.451 296.178 297.613 295.834 297.541 295.491C297.559 295.4 297.559 295.31 297.541 295.219C297.559 295.129 297.559 295.039 297.541 294.948C297.613 294.623 297.451 294.261 297.017 294.008L290.411 290.193C289.653 289.76 288.407 289.76 287.649 290.193L279.797 294.731C279.364 294.984 279.201 295.328 279.274 295.671C279.256 295.762 279.256 295.852 279.274 295.943C279.256 296.033 279.256 296.123 279.274 296.214C279.201 296.539 279.364 296.901 279.797 297.154L286.404 300.968C287.162 301.402 288.407 301.402 289.165 300.968ZM200.357 352.331L208.209 347.793C208.642 347.54 208.804 347.196 208.732 346.853C208.75 346.762 208.75 346.672 208.732 346.582C208.75 346.491 208.75 346.401 208.732 346.31C208.804 345.985 208.642 345.623 208.209 345.37L201.602 341.556C200.844 341.122 199.599 341.122 198.84 341.556L190.988 346.093C190.555 346.347 190.393 346.69 190.465 347.034C190.447 347.124 190.447 347.214 190.465 347.305C190.447 347.395 190.447 347.486 190.465 347.576C190.393 347.901 190.555 348.263 190.988 348.516L197.595 352.331C198.353 352.765 199.599 352.765 200.357 352.331ZM175.79 328.231L167.938 332.769C167.505 333.022 167.342 333.366 167.414 333.709C167.396 333.8 167.396 333.89 167.414 333.981C167.396 334.071 167.396 334.161 167.414 334.252C167.342 334.577 167.505 334.939 167.938 335.192L174.544 339.007C175.303 339.44 176.548 339.44 177.306 339.007L185.158 334.469C185.591 334.216 185.754 333.872 185.682 333.529C185.7 333.438 185.7 333.348 185.682 333.257C185.7 333.167 185.7 333.077 185.682 332.986C185.754 332.661 185.591 332.299 185.158 332.046L178.552 328.231C177.794 327.798 176.548 327.798 175.79 328.231ZM263.804 315.649L271.656 311.111C272.09 310.858 272.252 310.514 272.18 310.171C272.198 310.08 272.198 309.99 272.18 309.899C272.198 309.809 272.198 309.719 272.18 309.628C272.252 309.303 272.09 308.941 271.656 308.688L265.05 304.874C264.292 304.44 263.046 304.44 262.288 304.874L254.436 309.411C254.003 309.664 253.84 310.008 253.913 310.351C253.895 310.442 253.895 310.532 253.913 310.623C253.895 310.713 253.895 310.803 253.913 310.894C253.84 311.219 254.003 311.581 254.436 311.834L261.043 315.649C261.801 316.082 263.046 316.082 263.804 315.649ZM201.169 313.551L193.317 318.089C192.884 318.342 192.721 318.686 192.794 319.029C192.775 319.12 192.775 319.21 192.794 319.3C192.775 319.391 192.775 319.481 192.794 319.572C192.721 319.897 192.884 320.259 193.317 320.512L199.924 324.326C200.682 324.76 201.927 324.76 202.685 324.326L210.537 319.789C210.97 319.536 211.133 319.192 211.061 318.849C211.079 318.758 211.079 318.668 211.061 318.577C211.079 318.487 211.079 318.397 211.061 318.306C211.133 317.981 210.97 317.619 210.537 317.366L203.931 313.551C203.173 313.117 201.927 313.117 201.169 313.551ZM251.115 322.989L258.967 318.451C259.418 318.198 259.562 317.854 259.49 317.511C259.508 317.42 259.508 317.33 259.49 317.239C259.508 317.149 259.508 317.059 259.49 316.968C259.562 316.643 259.4 316.281 258.967 316.028L252.36 312.214C251.602 311.78 250.357 311.78 249.599 312.214L241.747 316.751C241.313 317.004 241.151 317.348 241.223 317.691C241.205 317.782 241.205 317.872 241.223 317.963C241.205 318.053 241.205 318.143 241.223 318.234C241.151 318.559 241.313 318.921 241.747 319.174L248.353 322.989C249.111 323.422 250.357 323.422 251.115 322.989ZM213.046 345.009L220.898 340.471C221.331 340.218 221.494 339.874 221.422 339.531C221.44 339.44 221.44 339.35 221.422 339.26C221.44 339.169 221.44 339.079 221.422 338.988C221.494 338.663 221.331 338.301 220.898 338.048L214.292 334.234C213.534 333.8 212.288 333.8 211.53 334.234L203.678 338.772C203.245 339.025 203.082 339.368 203.155 339.712C203.136 339.802 203.136 339.892 203.155 339.983C203.136 340.073 203.136 340.164 203.155 340.254C203.082 340.579 203.245 340.941 203.678 341.194L210.285 345.009C211.043 345.443 212.288 345.443 213.046 345.009ZM276.494 308.327L284.346 303.789C284.779 303.536 284.942 303.192 284.869 302.849C284.887 302.758 284.887 302.668 284.869 302.577C284.887 302.487 284.887 302.397 284.869 302.306C284.942 301.981 284.779 301.619 284.346 301.366L277.739 297.552C276.981 297.118 275.736 297.118 274.978 297.552L267.126 302.089C266.692 302.342 266.53 302.686 266.602 303.029C266.584 303.12 266.584 303.21 266.602 303.301C266.584 303.391 266.584 303.481 266.602 303.572C266.53 303.897 266.692 304.259 267.126 304.512L273.732 308.327C274.49 308.76 275.736 308.76 276.494 308.327ZM225.736 337.669L233.588 333.131C234.021 332.878 234.183 332.534 234.111 332.191C234.129 332.1 234.129 332.01 234.111 331.92C234.129 331.829 234.129 331.739 234.111 331.648C234.183 331.323 234.021 330.961 233.588 330.708L226.981 326.894C226.223 326.46 224.978 326.46 224.22 326.894L216.368 331.431C215.934 331.685 215.772 332.028 215.844 332.372C215.826 332.462 215.826 332.552 215.844 332.643C215.826 332.733 215.826 332.824 215.844 332.914C215.772 333.239 215.934 333.601 216.368 333.854L222.974 337.669C223.732 338.103 224.978 338.103 225.736 337.669ZM238.425 330.329L246.277 325.791C246.711 325.538 246.873 325.194 246.801 324.851C246.819 324.76 246.819 324.67 246.801 324.58C246.819 324.489 246.819 324.399 246.801 324.308C246.873 323.983 246.711 323.621 246.277 323.368L239.671 319.554C238.913 319.12 237.667 319.12 236.909 319.554L229.057 324.091C228.624 324.345 228.461 324.688 228.534 325.032C228.516 325.122 228.516 325.212 228.534 325.303C228.516 325.393 228.516 325.483 228.534 325.574C228.461 325.899 228.624 326.261 229.057 326.514L235.664 330.329C236.422 330.763 237.667 330.763 238.425 330.329ZM163.1 335.572L155.248 340.109C154.815 340.362 154.653 340.706 154.725 341.049C154.707 341.14 154.707 341.23 154.725 341.321C154.707 341.411 154.707 341.501 154.725 341.592C154.653 341.917 154.815 342.279 155.248 342.532L161.855 346.347C162.613 346.78 163.859 346.78 164.617 346.347L172.469 341.809C172.902 341.556 173.064 341.212 172.992 340.869C173.01 340.778 173.01 340.688 172.992 340.597C173.01 340.507 173.01 340.417 172.992 340.326C173.064 340.001 172.902 339.639 172.469 339.386L165.862 335.572C165.104 335.138 163.859 335.138 163.1 335.572ZM209.833 333.402L217.685 328.864C218.118 328.611 218.281 328.268 218.209 327.924C218.227 327.834 218.227 327.743 218.209 327.653C218.227 327.563 218.227 327.472 218.209 327.382C218.281 327.056 218.118 326.695 217.685 326.442L211.079 322.627C210.321 322.193 209.075 322.193 208.317 322.627L200.465 327.165C200.032 327.418 199.869 327.761 199.942 328.105C199.924 328.195 199.924 328.286 199.942 328.376C199.924 328.467 199.924 328.557 199.942 328.647C199.869 328.973 200.032 329.334 200.465 329.587L207.072 333.402C207.83 333.836 209.075 333.836 209.833 333.402ZM247.902 311.382L255.754 306.844C256.187 306.591 256.349 306.247 256.277 305.904C256.295 305.814 256.295 305.723 256.277 305.633C256.295 305.542 256.295 305.452 256.277 305.362C256.349 305.036 256.187 304.675 255.754 304.422L249.147 300.607C248.389 300.173 247.144 300.173 246.386 300.607L238.534 305.145C238.1 305.398 237.938 305.741 238.01 306.085C237.992 306.175 237.992 306.266 238.01 306.356C237.992 306.446 237.992 306.537 238.01 306.627C237.938 306.953 238.1 307.314 238.534 307.567L245.14 311.382C245.898 311.816 247.144 311.816 247.902 311.382ZM235.212 318.722L243.064 314.184C243.498 313.931 243.66 313.588 243.588 313.244C243.606 313.154 243.606 313.063 243.588 312.973C243.606 312.882 243.606 312.792 243.588 312.702C243.66 312.376 243.498 312.015 243.064 311.762L236.458 307.947C235.7 307.513 234.454 307.513 233.696 307.947L225.844 312.485C225.411 312.738 225.248 313.081 225.321 313.425C225.303 313.515 225.303 313.606 225.321 313.696C225.303 313.786 225.303 313.877 225.321 313.967C225.248 314.293 225.411 314.654 225.844 314.907L232.451 318.722C233.209 319.156 234.454 319.156 235.212 318.722ZM222.523 326.062L230.375 321.524C230.808 321.271 230.97 320.928 230.898 320.584C230.916 320.494 230.916 320.403 230.898 320.313C230.916 320.223 230.916 320.132 230.898 320.042C230.97 319.716 230.808 319.355 230.375 319.102L223.768 315.287C223.01 314.853 221.765 314.853 221.007 315.287L213.155 319.825C212.721 320.078 212.559 320.421 212.631 320.765C212.613 320.855 212.613 320.946 212.631 321.036C212.613 321.126 212.613 321.217 212.631 321.307C212.559 321.633 212.721 321.994 213.155 322.247L219.761 326.062C220.519 326.496 221.765 326.496 222.523 326.062ZM317.451 273.742C317.433 273.832 317.433 273.922 317.451 274.013C317.433 274.103 317.433 274.194 317.451 274.284C317.378 274.609 317.541 274.971 317.974 275.224L324.581 279.039C325.339 279.473 326.584 279.473 327.342 279.039L335.194 274.501C335.627 274.248 335.79 273.904 335.718 273.561C335.736 273.47 335.736 273.38 335.718 273.29C335.736 273.199 335.736 273.109 335.718 273.018C335.79 272.693 335.627 272.331 335.194 272.078L328.588 268.264C327.83 267.83 326.584 267.83 325.826 268.264L317.974 272.801C317.541 273.055 317.378 273.398 317.451 273.742ZM197.162 340.742L205.014 336.204C205.447 335.951 205.609 335.608 205.537 335.264C205.555 335.174 205.555 335.083 205.537 334.993C205.555 334.903 205.555 334.812 205.537 334.722C205.609 334.396 205.447 334.035 205.014 333.782L198.407 329.967C197.649 329.533 196.404 329.533 195.646 329.967L187.794 334.505C187.36 334.758 187.198 335.101 187.27 335.445C187.252 335.535 187.252 335.626 187.27 335.716C187.252 335.807 187.252 335.897 187.27 335.987C187.198 336.313 187.36 336.674 187.794 336.927L194.4 340.742C195.158 341.176 196.404 341.176 197.162 340.742ZM185.718 337.307C184.96 336.873 183.714 336.873 182.956 337.307L175.104 341.845C174.671 342.098 174.508 342.442 174.581 342.785C174.562 342.875 174.562 342.966 174.581 343.056C174.562 343.147 174.562 343.237 174.581 343.327C174.508 343.653 174.671 344.014 175.104 344.267L181.711 348.082C182.469 348.516 183.714 348.516 184.472 348.082L192.324 343.544C192.757 343.291 192.92 342.948 192.848 342.604C192.866 342.514 192.866 342.423 192.848 342.333C192.866 342.243 192.866 342.152 192.848 342.062C192.92 341.736 192.757 341.375 192.324 341.122L185.718 337.307ZM226.548 298.889L218.696 303.427C218.263 303.68 218.1 304.024 218.173 304.367C218.155 304.458 218.155 304.548 218.173 304.638C218.155 304.729 218.155 304.819 218.173 304.91C218.1 305.235 218.263 305.597 218.696 305.85L225.303 309.664C226.061 310.098 227.306 310.098 228.064 309.664L235.916 305.127C236.349 304.874 236.512 304.53 236.44 304.187C236.458 304.096 236.458 304.006 236.44 303.915C236.458 303.825 236.458 303.735 236.44 303.644C236.512 303.319 236.349 302.957 235.916 302.704L229.31 298.889C228.552 298.455 227.306 298.455 226.548 298.889ZM239.238 291.549L231.386 296.087C230.952 296.34 230.79 296.684 230.862 297.027C230.844 297.118 230.844 297.208 230.862 297.298C230.844 297.389 230.844 297.479 230.862 297.57C230.79 297.895 230.952 298.257 231.386 298.51L237.992 302.324C238.75 302.758 239.996 302.758 240.754 302.324L248.606 297.787C249.039 297.533 249.201 297.19 249.129 296.846C249.147 296.756 249.147 296.666 249.129 296.575C249.147 296.485 249.147 296.394 249.129 296.304C249.201 295.979 249.039 295.617 248.606 295.364L241.999 291.549C241.241 291.115 239.996 291.115 239.238 291.549ZM260.591 304.042L268.443 299.504C268.877 299.251 269.039 298.907 268.967 298.564C268.985 298.474 268.985 298.383 268.967 298.293C268.985 298.202 268.985 298.112 268.967 298.022C269.039 297.696 268.877 297.335 268.443 297.081L261.837 293.267C261.079 292.833 259.833 292.833 259.075 293.267L251.223 297.805C250.79 298.058 250.627 298.401 250.7 298.745C250.682 298.835 250.682 298.926 250.7 299.016C250.682 299.106 250.682 299.197 250.7 299.287C250.627 299.613 250.79 299.974 251.223 300.227L257.83 304.042C258.588 304.476 259.833 304.476 260.591 304.042ZM251.927 284.209L244.075 288.747C243.642 289 243.479 289.344 243.552 289.687C243.534 289.778 243.534 289.868 243.552 289.958C243.534 290.049 243.534 290.139 243.552 290.23C243.479 290.555 243.642 290.917 244.075 291.17L250.682 294.984C251.44 295.418 252.685 295.418 253.443 294.984L261.295 290.447C261.729 290.193 261.891 289.85 261.819 289.506C261.837 289.416 261.837 289.326 261.819 289.235C261.837 289.145 261.837 289.054 261.819 288.964C261.891 288.639 261.729 288.277 261.295 288.024L254.689 284.209C253.931 283.775 252.685 283.775 251.927 284.209ZM213.859 306.229L206.007 310.767C205.573 311.02 205.411 311.364 205.483 311.707C205.465 311.798 205.465 311.888 205.483 311.979C205.465 312.069 205.465 312.159 205.483 312.25C205.411 312.575 205.573 312.937 206.007 313.19C212.487 316.932 213.624 318.035 215.375 317.004L223.227 312.467C223.66 312.214 223.822 311.87 223.75 311.527C223.768 311.436 223.768 311.346 223.75 311.255C223.768 311.165 223.768 311.075 223.75 310.984C223.822 310.659 223.66 310.297 223.227 310.044L216.62 306.229C215.862 305.796 214.617 305.796 213.859 306.229ZM273.281 296.72L285.23 289.814C285.664 289.561 285.826 289.217 285.754 288.874C285.772 288.783 285.772 288.693 285.754 288.602C285.772 288.512 285.772 288.422 285.754 288.331C285.826 288.006 285.664 287.644 285.23 287.391L278.624 283.577C277.866 283.143 276.62 283.143 275.862 283.577L263.913 290.483C263.479 290.736 263.317 291.079 263.389 291.423C263.371 291.513 263.371 291.604 263.389 291.694C263.371 291.784 263.371 291.875 263.389 291.965C263.317 292.291 263.479 292.652 263.913 292.905L270.519 296.72C271.277 297.154 272.523 297.154 273.281 296.72ZM273.985 280.702L267.378 276.887C266.62 276.453 265.375 276.453 264.617 276.887L256.765 281.425C256.331 281.678 256.169 282.022 256.241 282.365C256.223 282.456 256.223 282.546 256.241 282.636C256.223 282.727 256.223 282.817 256.241 282.908C256.169 283.233 256.331 283.595 256.765 283.848L263.371 287.662C264.129 288.096 265.375 288.096 266.133 287.662L273.985 283.125C274.418 282.871 274.581 282.528 274.508 282.184C274.526 282.094 274.526 282.004 274.508 281.913C274.526 281.823 274.526 281.732 274.508 281.642C274.581 281.317 274.418 280.955 273.985 280.702ZM228.155 286.903L234.761 290.718C235.519 291.152 236.765 291.152 237.523 290.718L245.375 286.18C245.808 285.927 245.97 285.583 245.898 285.24C245.916 285.149 245.916 285.059 245.898 284.969C245.916 284.878 245.916 284.788 245.898 284.697C245.97 284.372 245.808 284.01 245.375 283.757L238.768 279.943C238.01 279.509 236.765 279.509 236.007 279.943L228.155 284.48C227.721 284.734 227.559 285.077 227.631 285.421C227.613 285.511 227.613 285.601 227.631 285.692C227.613 285.782 227.613 285.873 227.631 285.963C227.559 286.288 227.721 286.65 228.155 286.903ZM189.942 369.108L183.335 365.293C182.577 364.859 181.331 364.859 180.573 365.293L172.721 369.831C172.288 370.084 172.126 370.428 172.198 370.771C172.18 370.862 172.18 370.952 172.198 371.042C172.18 371.133 172.18 371.223 172.198 371.314C172.126 371.639 172.288 372.001 172.721 372.254L179.328 376.068C180.086 376.502 181.331 376.502 182.09 376.068L189.942 371.531C190.375 371.277 190.537 370.934 190.465 370.59C190.483 370.5 190.483 370.41 190.465 370.319C190.483 370.229 190.483 370.138 190.465 370.048C190.537 369.723 190.375 369.361 189.942 369.108ZM202.631 361.768L196.025 357.953C195.266 357.519 194.021 357.519 193.263 357.953L185.411 362.491C184.978 362.744 184.815 363.088 184.887 363.431C184.869 363.522 184.869 363.612 184.887 363.702C184.869 363.793 184.869 363.883 184.887 363.974C184.815 364.299 184.978 364.661 185.411 364.914L192.017 368.728C192.775 369.162 194.021 369.162 194.779 368.728L202.631 364.19C203.082 363.937 203.227 363.594 203.155 363.25C203.173 363.16 203.173 363.07 203.155 362.979C203.173 362.889 203.173 362.798 203.155 362.708C203.227 362.383 203.064 362.021 202.631 361.768ZM183.371 361.551C183.389 361.461 183.389 361.37 183.371 361.28C183.389 361.189 183.389 361.099 183.371 361.009C183.443 360.683 183.281 360.322 182.848 360.068L176.241 356.254C175.483 355.82 174.238 355.82 173.479 356.254L161.53 363.16C161.097 363.413 160.934 363.757 161.007 364.1C160.988 364.19 160.988 364.281 161.007 364.371C160.988 364.462 160.988 364.552 161.007 364.642C160.934 364.968 161.097 365.329 161.53 365.583L168.137 369.397C168.895 369.831 170.14 369.831 170.898 369.397L182.848 362.491C183.281 362.238 183.443 361.894 183.371 361.551ZM215.321 354.446L208.714 350.631C207.956 350.197 206.711 350.197 205.952 350.631L198.1 355.169C197.667 355.422 197.505 355.766 197.577 356.109C197.559 356.2 197.559 356.29 197.577 356.38C197.559 356.471 197.559 356.561 197.577 356.652C197.505 356.977 197.667 357.339 198.1 357.592L204.707 361.406C205.465 361.84 206.711 361.84 207.469 361.406L215.321 356.869C215.754 356.615 215.916 356.272 215.844 355.928C215.862 355.838 215.862 355.748 215.844 355.657C215.862 355.567 215.862 355.476 215.844 355.386C215.916 355.061 215.754 354.699 215.321 354.446ZM144.4 343.96C144.418 343.87 144.418 343.779 144.4 343.689C144.418 343.599 144.418 343.508 144.4 343.418C144.472 343.092 144.31 342.731 143.877 342.478L137.27 338.663C136.512 338.229 135.266 338.229 134.508 338.663L126.656 343.201C126.205 343.454 126.061 343.797 126.133 344.141C126.115 344.231 126.115 344.322 126.133 344.412C126.115 344.503 126.115 344.593 126.133 344.683C126.061 345.009 126.223 345.37 126.656 345.623L133.263 349.438C134.021 349.872 135.266 349.872 136.025 349.438L143.877 344.9C144.31 344.647 144.472 344.304 144.4 343.96ZM167.451 357.284C167.469 357.194 167.469 357.104 167.451 357.013C167.469 356.923 167.469 356.832 167.451 356.742C167.523 356.417 167.36 356.055 166.927 355.802L160.321 351.987C159.562 351.553 158.317 351.553 157.559 351.987L149.707 356.525C149.274 356.778 149.111 357.122 149.183 357.465C149.165 357.556 149.165 357.646 149.183 357.736C149.165 357.827 149.165 357.917 149.183 358.007C149.111 358.333 149.274 358.694 149.707 358.948L156.313 362.762C157.072 363.196 158.317 363.196 159.075 362.762L166.927 358.224C167.36 357.971 167.523 357.628 167.451 357.284ZM160.303 348.227C160.321 348.136 160.321 348.046 160.303 347.956C160.321 347.865 160.321 347.775 160.303 347.684C160.375 347.359 160.212 346.997 159.779 346.744L153.173 342.93C152.414 342.496 151.169 342.496 150.411 342.93L138.461 349.836C138.028 350.089 137.866 350.432 137.938 350.776C137.92 350.866 137.92 350.957 137.938 351.047C137.92 351.137 137.92 351.228 137.938 351.318C137.866 351.644 138.028 352.005 138.461 352.258L145.068 356.073C145.826 356.507 147.072 356.507 147.83 356.073L159.779 349.167C160.212 348.914 160.375 348.57 160.303 348.227ZM346.783 278.804L340.176 274.989C339.418 274.555 338.173 274.555 337.414 274.989L329.562 279.527C329.129 279.78 328.967 280.123 329.039 280.467C329.021 280.557 329.021 280.648 329.039 280.738C329.021 280.829 329.021 280.919 329.039 281.009C328.967 281.335 329.129 281.696 329.562 281.949L336.169 285.764C336.927 286.198 338.173 286.198 338.931 285.764L346.783 281.226C347.216 280.973 347.378 280.63 347.306 280.286C347.324 280.196 347.324 280.105 347.306 280.015C347.324 279.925 347.324 279.834 347.306 279.744C347.378 279.418 347.216 279.057 346.783 278.804ZM321.404 293.484L314.797 289.669C314.039 289.235 312.794 289.235 312.035 289.669L304.183 294.207C303.732 294.46 303.588 294.804 303.66 295.147C303.642 295.237 303.642 295.328 303.66 295.418C303.642 295.509 303.642 295.599 303.66 295.689C303.588 296.015 303.75 296.376 304.183 296.629L310.79 300.444C311.548 300.878 312.794 300.878 313.552 300.444L321.404 295.906C321.837 295.653 321.999 295.31 321.927 294.966C321.945 294.876 321.945 294.785 321.927 294.695C321.945 294.605 321.945 294.514 321.927 294.424C321.999 294.098 321.837 293.737 321.404 293.484ZM334.093 286.144L327.487 282.329C326.729 281.895 325.483 281.895 324.725 282.329L316.873 286.867C316.44 287.12 316.277 287.464 316.349 287.807C316.331 287.897 316.331 287.988 316.349 288.078C316.331 288.169 316.331 288.259 316.349 288.349C316.277 288.675 316.44 289.036 316.873 289.289L323.479 293.104C324.238 293.538 325.483 293.538 326.241 293.104L334.093 288.566C334.526 288.313 334.689 287.97 334.617 287.626C334.635 287.536 334.635 287.445 334.617 287.355C334.635 287.265 334.635 287.174 334.617 287.084C334.689 286.758 334.526 286.397 334.093 286.144ZM227.992 347.106L221.386 343.291C220.627 342.857 219.382 342.857 218.624 343.291L210.772 347.829C210.339 348.082 210.176 348.426 210.248 348.769C210.23 348.86 210.23 348.95 210.248 349.04C210.23 349.131 210.23 349.221 210.248 349.312C210.176 349.637 210.339 349.999 210.772 350.252L217.378 354.066C218.136 354.5 219.382 354.5 220.14 354.066L227.992 349.528C228.425 349.275 228.588 348.932 228.516 348.588C228.534 348.498 228.534 348.408 228.516 348.317C228.534 348.227 228.534 348.136 228.516 348.046C228.588 347.721 228.425 347.359 227.992 347.106ZM139.31 338.265L145.916 342.08C146.674 342.514 147.92 342.514 148.678 342.08L156.53 337.542C156.963 337.289 157.126 336.946 157.053 336.602C157.072 336.512 157.072 336.421 157.053 336.331C157.072 336.24 157.072 336.15 157.053 336.06C157.126 335.734 156.963 335.373 156.53 335.12L149.924 331.305C149.165 330.871 147.92 330.871 147.162 331.305L139.31 335.843C138.877 336.096 138.714 336.439 138.786 336.783C138.768 336.873 138.768 336.964 138.786 337.054C138.768 337.144 138.768 337.235 138.786 337.325C138.714 337.651 138.877 338.012 139.31 338.265ZM291.638 310.424L285.032 306.609C284.274 306.175 283.028 306.175 282.27 306.609L223.516 340.597C223.082 340.851 222.92 341.194 222.992 341.538C222.974 341.628 222.974 341.718 222.992 341.809C222.974 341.899 222.974 341.99 222.992 342.08C222.92 342.405 223.082 342.767 223.516 343.02L230.122 346.835C230.88 347.269 232.126 347.269 232.884 346.835L291.638 312.846C292.072 312.593 292.234 312.25 292.162 311.906C292.18 311.816 292.18 311.725 292.162 311.635C292.18 311.545 292.18 311.454 292.162 311.364C292.234 311.038 292.072 310.677 291.638 310.424ZM308.136 300.752L301.53 296.937C300.772 296.503 299.526 296.503 298.768 296.937L286.819 303.843C286.386 304.096 286.223 304.44 286.295 304.783C286.277 304.874 286.277 304.964 286.295 305.054C286.277 305.145 286.277 305.235 286.295 305.325C286.223 305.651 286.386 306.012 286.819 306.266L293.425 310.08C294.183 310.514 295.429 310.514 296.187 310.08L308.136 303.174C308.57 302.921 308.732 302.577 308.66 302.234C308.678 302.144 308.678 302.053 308.66 301.963C308.678 301.872 308.678 301.782 308.66 301.692C308.732 301.366 308.57 301.005 308.136 300.752ZM301.945 293.701L309.797 289.163C310.23 288.91 310.393 288.566 310.321 288.223C310.339 288.132 310.339 288.042 310.321 287.952C310.339 287.861 310.339 287.771 310.321 287.68C310.393 287.355 310.23 286.993 309.797 286.74L303.191 282.926C302.433 282.492 301.187 282.492 300.429 282.926L292.577 287.463C292.144 287.717 291.981 288.06 292.053 288.404C292.035 288.494 292.035 288.584 292.053 288.675C292.035 288.765 292.035 288.856 292.053 288.946C291.981 289.271 292.144 289.633 292.577 289.886L299.183 293.701C299.942 294.135 301.187 294.135 301.945 293.701ZM283.209 255.12L289.815 258.935C290.573 259.369 291.819 259.369 292.577 258.935L300.429 254.397C300.862 254.144 301.025 253.801 300.952 253.457C300.97 253.367 300.97 253.276 300.952 253.186C300.97 253.095 300.97 253.005 300.952 252.915C301.025 252.589 300.862 252.228 300.429 251.975L293.822 248.16C293.064 247.726 291.819 247.726 291.061 248.16L283.209 252.698C282.775 252.951 282.613 253.294 282.685 253.638C282.667 253.728 282.667 253.819 282.685 253.909C282.667 253.999 282.667 254.09 282.685 254.18C282.613 254.506 282.775 254.867 283.209 255.12ZM270.519 262.46L277.126 266.275C277.884 266.709 279.129 266.709 279.887 266.275L287.739 261.737C288.173 261.484 288.335 261.141 288.263 260.797C288.281 260.707 288.281 260.616 288.263 260.526C288.281 260.436 288.281 260.345 288.263 260.255C288.335 259.929 288.173 259.568 287.739 259.315L281.133 255.5C280.375 255.066 279.129 255.066 278.371 255.5L270.519 260.038C270.086 260.291 269.924 260.634 269.996 260.978C269.978 261.068 269.978 261.159 269.996 261.249C269.978 261.339 269.978 261.43 269.996 261.52C269.924 261.846 270.086 262.207 270.519 262.46ZM240.808 279.563L247.414 283.378C248.173 283.812 249.418 283.812 250.176 283.378L262.126 276.472C262.559 276.218 262.721 275.875 262.649 275.531C262.667 275.441 262.667 275.351 262.649 275.26C262.667 275.17 262.667 275.079 262.649 274.989C262.721 274.664 262.559 274.302 262.126 274.049L255.519 270.234C254.761 269.8 253.516 269.8 252.757 270.234L240.808 277.14C240.375 277.394 240.212 277.737 240.285 278.081C240.266 278.171 240.266 278.261 240.285 278.352C240.266 278.442 240.266 278.533 240.285 278.623C240.212 278.948 240.375 279.31 240.808 279.563ZM257.83 269.8L264.436 273.615C265.194 274.049 266.44 274.049 267.198 273.615L275.05 269.077C275.483 268.824 275.646 268.481 275.573 268.137C275.591 268.047 275.591 267.956 275.573 267.866C275.591 267.776 275.591 267.685 275.573 267.595C275.646 267.269 275.483 266.908 275.05 266.655L268.443 262.84C267.685 262.406 266.44 262.406 265.682 262.84L257.83 267.378C257.396 267.631 257.234 267.974 257.306 268.318C257.288 268.408 257.288 268.499 257.306 268.589C257.288 268.679 257.288 268.77 257.306 268.86C257.234 269.186 257.396 269.547 257.83 269.8ZM294.256 260.345C294.238 260.435 294.238 260.526 294.256 260.616C294.238 260.707 294.238 260.797 294.256 260.887C294.183 261.213 294.346 261.574 294.779 261.828L301.386 265.642C302.144 266.076 303.389 266.076 304.147 265.642L311.999 261.104C312.433 260.851 312.595 260.508 312.523 260.164C312.541 260.074 312.541 259.984 312.523 259.893C312.541 259.803 312.541 259.712 312.523 259.622C312.595 259.297 312.433 258.935 311.999 258.682L305.393 254.867C304.635 254.433 303.389 254.433 302.631 254.867L294.779 259.405C294.346 259.658 294.183 260.002 294.256 260.345ZM314.635 286.361L322.487 281.823C322.92 281.57 323.082 281.226 323.01 280.883C323.028 280.792 323.028 280.702 323.01 280.612C323.028 280.521 323.028 280.431 323.01 280.34C323.082 280.015 322.92 279.653 322.487 279.4L315.88 275.586C315.122 275.152 313.877 275.152 313.118 275.586L305.266 280.123C304.833 280.377 304.671 280.72 304.743 281.064C304.725 281.154 304.725 281.244 304.743 281.335C304.725 281.425 304.725 281.516 304.743 281.606C304.671 281.931 304.833 282.293 305.266 282.546L311.873 286.361C312.631 286.795 313.877 286.795 314.635 286.361ZM164.689 323.585L171.295 327.4C172.053 327.834 173.299 327.834 174.057 327.4L181.909 322.862C182.342 322.609 182.505 322.265 182.433 321.922C182.451 321.832 182.451 321.741 182.433 321.651C182.451 321.56 182.451 321.47 182.433 321.38C182.505 321.054 182.342 320.693 181.909 320.439L175.303 316.625C174.544 316.191 173.299 316.191 172.541 316.625L164.689 321.163C164.256 321.416 164.093 321.759 164.165 322.103C164.147 322.193 164.147 322.284 164.165 322.374C164.147 322.464 164.147 322.555 164.165 322.645C164.093 322.971 164.256 323.332 164.689 323.585ZM177.378 316.245C186.909 321.759 183.606 321.886 194.617 315.522C195.05 315.269 195.212 314.925 195.14 314.582C195.158 314.491 195.158 314.401 195.14 314.311C195.158 314.22 195.158 314.13 195.14 314.04C195.212 313.714 195.05 313.353 194.617 313.099L188.01 309.285C187.252 308.851 186.007 308.851 185.248 309.285L177.396 313.823C176.963 314.076 176.801 314.419 176.873 314.763C176.855 314.853 176.855 314.943 176.873 315.034C176.855 315.124 176.855 315.215 176.873 315.305C176.801 315.63 176.963 315.992 177.396 316.245H177.378ZM151.999 330.925L158.606 334.74C159.364 335.174 160.609 335.174 161.368 334.74L169.22 330.202C169.653 329.949 169.815 329.605 169.743 329.262C169.761 329.172 169.761 329.081 169.743 328.991C169.761 328.9 169.761 328.81 169.743 328.72C169.815 328.394 169.653 328.033 169.22 327.78L162.613 323.965C161.855 323.531 160.609 323.531 159.851 323.965L151.999 328.503C151.566 328.756 151.404 329.099 151.476 329.443C151.458 329.533 151.458 329.624 151.476 329.714C151.458 329.804 151.458 329.895 151.476 329.985C151.404 330.311 151.566 330.672 151.999 330.925ZM190.068 308.905L196.674 312.72C197.433 313.154 198.678 313.154 199.436 312.72L207.288 308.182C207.721 307.929 207.884 307.585 207.812 307.242C207.83 307.151 207.83 307.061 207.812 306.971C207.83 306.88 207.83 306.79 207.812 306.699C207.884 306.374 207.721 306.012 207.288 305.759L200.682 301.945C199.924 301.511 198.678 301.511 197.92 301.945L190.068 306.483C189.635 306.736 189.472 307.079 189.544 307.423C189.526 307.513 189.526 307.603 189.544 307.694C189.526 307.784 189.526 307.875 189.544 307.965C189.472 308.29 189.635 308.652 190.068 308.905ZM215.447 294.225L222.053 298.04C222.812 298.474 224.057 298.474 224.815 298.04L232.667 293.502C233.1 293.249 233.263 292.905 233.191 292.562C233.209 292.471 233.209 292.381 233.191 292.291C233.209 292.2 233.209 292.11 233.191 292.019C233.263 291.694 233.1 291.332 232.667 291.079L226.061 287.265C225.303 286.831 224.057 286.831 223.299 287.265L215.447 291.802C215.014 292.056 214.851 292.399 214.924 292.743C214.905 292.833 214.905 292.923 214.924 293.014C214.905 293.104 214.905 293.195 214.924 293.285C214.851 293.61 215.014 293.972 215.447 294.225ZM202.757 301.565L209.364 305.38C210.122 305.814 211.368 305.814 212.126 305.38L219.978 300.842C220.411 300.589 220.573 300.245 220.501 299.902C220.519 299.811 220.519 299.721 220.501 299.631C220.519 299.54 220.519 299.45 220.501 299.359C220.573 299.034 220.411 298.672 219.978 298.419L213.371 294.605C212.613 294.171 211.368 294.171 210.609 294.605L202.757 299.142C202.324 299.396 202.162 299.739 202.234 300.083C202.216 300.173 202.216 300.263 202.234 300.354C202.216 300.444 202.216 300.535 202.234 300.625C202.162 300.95 202.324 301.312 202.757 301.565ZM301.476 267.432L292.775 262.406C291.819 261.864 290.285 261.864 289.346 262.406L269.436 273.922C268.895 274.23 268.696 274.646 268.768 275.043C268.768 275.134 268.768 275.224 268.768 275.314C268.768 275.405 268.768 275.495 268.768 275.586C268.696 275.983 268.895 276.399 269.436 276.707L286.801 286.74C287.757 287.283 289.292 287.283 290.23 286.74L323.263 267.631C323.804 267.324 324.003 266.908 323.931 266.51C323.931 266.42 323.931 266.329 323.931 266.239C323.931 266.148 323.931 266.058 323.931 265.968C324.003 265.57 323.804 265.154 323.263 264.847L316.801 261.104C316.169 260.743 315.158 260.743 314.508 261.104L303.407 267.432C302.866 267.739 301.999 267.739 301.476 267.432Z" fill="#B069E2"/>
<path d="M208.045 404.343L201.944 400.818C201.601 400.619 201.312 400.167 201.312 399.824V398.395C201.312 398.052 201.601 397.925 201.944 398.124L208.045 401.65C208.388 401.849 208.677 402.301 208.677 402.644V404.072C208.677 404.416 208.388 404.542 208.045 404.343Z" fill="#201521"/>
<path d="M198.587 398.865L192.486 395.34C192.143 395.141 191.854 394.689 191.854 394.346V392.917C191.854 392.574 192.143 392.447 192.486 392.646L198.587 396.172C198.93 396.371 199.219 396.822 199.219 397.166V398.594C199.219 398.938 198.93 399.064 198.587 398.865Z" fill="#201521"/>
<path d="M143.877 343.707L136.025 348.245C135.267 348.679 134.021 348.679 133.263 348.245L126.656 344.43C125.898 343.996 125.898 343.273 126.656 342.839L134.508 338.301C135.267 337.867 136.512 337.867 137.27 338.301L143.877 342.116C144.635 342.55 144.635 343.273 143.877 343.707ZM156.566 334.776L149.96 330.961C149.202 330.527 147.956 330.527 147.198 330.961L139.346 335.499C138.588 335.933 138.588 336.656 139.346 337.09L145.953 340.905C146.711 341.338 147.956 341.338 148.714 340.905L156.566 336.367C157.324 335.933 157.324 335.21 156.566 334.776ZM169.256 327.436L162.649 323.621C161.891 323.187 160.646 323.187 159.888 323.621L152.036 328.159C151.277 328.593 151.277 329.316 152.036 329.75L158.642 333.565C159.4 333.998 160.646 333.998 161.404 333.565L169.256 329.027C170.014 328.593 170.014 327.87 169.256 327.436ZM181.945 320.096L175.339 316.281C174.581 315.847 173.335 315.847 172.577 316.281L164.725 320.819C163.967 321.253 163.967 321.976 164.725 322.41L171.332 326.225C172.09 326.658 173.335 326.658 174.093 326.225L181.945 321.687C182.703 321.253 182.703 320.53 181.945 320.096ZM194.635 312.756L188.028 308.941C187.27 308.507 186.025 308.507 185.267 308.941L177.415 313.479C176.656 313.913 176.656 314.636 177.415 315.07L184.021 318.884C184.779 319.318 186.025 319.318 186.783 318.884L194.635 314.347C195.393 313.913 195.393 313.19 194.635 312.756ZM207.324 305.416L200.718 301.601C199.96 301.167 198.714 301.167 197.956 301.601L190.104 306.139C189.346 306.573 189.346 307.296 190.104 307.73L196.711 311.544C197.469 311.978 198.714 311.978 199.472 311.544L207.324 307.007C208.082 306.573 208.082 305.85 207.324 305.416ZM220.014 298.076L213.407 294.261C212.649 293.827 211.404 293.827 210.646 294.261L202.794 298.799C202.036 299.233 202.036 299.956 202.794 300.39L209.4 304.204C210.158 304.638 211.404 304.638 212.162 304.204L220.014 299.667C220.772 299.233 220.772 298.51 220.014 298.076ZM232.703 290.736L226.097 286.921C225.339 286.487 224.093 286.487 223.335 286.921L215.483 291.459C214.725 291.893 214.725 292.616 215.483 293.05L222.09 296.864C222.848 297.298 224.093 297.298 224.851 296.864L232.703 292.327C233.462 291.893 233.462 291.169 232.703 290.736ZM245.393 283.396L238.786 279.581C238.028 279.147 236.783 279.147 236.025 279.581L228.173 284.119C227.415 284.553 227.415 285.276 228.173 285.71L234.779 289.524C235.537 289.958 236.783 289.958 237.541 289.524L245.393 284.986C246.151 284.553 246.151 283.829 245.393 283.396ZM262.18 273.687L255.573 269.872C254.815 269.439 253.57 269.439 252.812 269.872L240.862 276.779C240.104 277.213 240.104 277.936 240.862 278.37L247.469 282.184C248.227 282.618 249.472 282.618 250.231 282.184L262.18 275.278C262.938 274.844 262.938 274.121 262.18 273.687ZM309.833 286.379L303.227 282.564C302.469 282.13 301.223 282.13 300.465 282.564L292.613 287.102C291.855 287.536 291.855 288.259 292.613 288.693L299.22 292.507C299.978 292.941 301.223 292.941 301.981 292.507L309.833 287.969C310.592 287.536 310.592 286.812 309.833 286.379ZM322.523 279.039L315.916 275.224C315.158 274.79 313.913 274.79 313.155 275.224L305.303 279.762C304.545 280.196 304.545 280.919 305.303 281.353L311.909 285.167C312.667 285.601 313.913 285.601 314.671 285.167L322.523 280.629C323.281 280.196 323.281 279.472 322.523 279.039ZM335.212 271.698L328.606 267.884C327.848 267.45 326.602 267.45 325.844 267.884L317.992 272.422C317.234 272.856 317.234 273.579 317.992 274.013L324.599 277.827C325.357 278.261 326.602 278.261 327.36 277.827L335.212 273.289C335.971 272.856 335.971 272.132 335.212 271.698ZM321.44 293.086L314.833 289.271C314.075 288.837 312.83 288.837 312.072 289.271L304.22 293.809C303.462 294.243 303.462 294.966 304.22 295.4L310.826 299.215C311.584 299.648 312.83 299.648 313.588 299.215L321.44 294.677C322.198 294.243 322.198 293.52 321.44 293.086ZM334.129 285.746L327.523 281.931C326.765 281.497 325.519 281.497 324.761 281.931L316.909 286.469C316.151 286.903 316.151 287.626 316.909 288.06L323.516 291.875C324.274 292.308 325.519 292.308 326.277 291.875L334.129 287.337C334.888 286.903 334.888 286.18 334.129 285.746ZM346.819 278.406L340.212 274.591C339.454 274.157 338.209 274.157 337.451 274.591L329.599 279.129C328.841 279.563 328.841 280.286 329.599 280.72L336.205 284.535C336.963 284.968 338.209 284.968 338.967 284.535L346.819 279.997C347.577 279.563 347.577 278.84 346.819 278.406ZM159.815 346.364L153.209 342.55C152.451 342.116 151.205 342.116 150.447 342.55L138.498 349.456C137.74 349.89 137.74 350.613 138.498 351.047L145.104 354.862C145.862 355.295 147.108 355.295 147.866 354.862L159.815 347.955C160.573 347.522 160.573 346.798 159.815 346.364ZM172.505 339.024L165.898 335.21C165.14 334.776 163.895 334.776 163.137 335.21L155.285 339.748C154.527 340.181 154.527 340.905 155.285 341.339L161.891 345.153C162.649 345.587 163.895 345.587 164.653 345.153L172.505 340.615C173.263 340.181 173.263 339.458 172.505 339.024ZM185.194 331.684L178.588 327.87C177.83 327.436 176.584 327.436 175.826 327.87L167.974 332.408C167.216 332.841 167.216 333.565 167.974 333.998L174.581 337.813C175.339 338.247 176.584 338.247 177.342 337.813L185.194 333.275C185.953 332.841 185.953 332.118 185.194 331.684ZM197.884 324.344L191.277 320.53C190.519 320.096 189.274 320.096 188.516 320.53L180.664 325.067C179.906 325.501 179.906 326.225 180.664 326.658L187.27 330.473C188.028 330.907 189.274 330.907 190.032 330.473L197.884 325.935C198.642 325.501 198.642 324.778 197.884 324.344ZM210.573 317.004L203.967 313.19C203.209 312.756 201.963 312.756 201.205 313.19L193.353 317.727C192.595 318.161 192.595 318.884 193.353 319.318L199.96 323.133C200.718 323.567 201.963 323.567 202.721 323.133L210.573 318.595C211.332 318.161 211.332 317.438 210.573 317.004ZM223.263 309.664L216.656 305.85C215.898 305.416 214.653 305.416 213.895 305.85L206.043 310.387C205.285 310.821 205.285 311.544 206.043 311.978L212.649 315.793C213.407 316.227 214.653 316.227 215.411 315.793L223.263 311.255C224.021 310.821 224.021 310.098 223.263 309.664ZM235.953 302.324L229.346 298.51C228.588 298.076 227.342 298.076 226.584 298.51L218.732 303.047C217.974 303.481 217.974 304.204 218.732 304.638L225.339 308.453C226.097 308.887 227.342 308.887 228.101 308.453L235.953 303.915C236.711 303.481 236.711 302.758 235.953 302.324ZM248.642 294.984L242.036 291.169C241.277 290.736 240.032 290.736 239.274 291.169L231.422 295.707C230.664 296.141 230.664 296.864 231.422 297.298L238.028 301.113C238.786 301.547 240.032 301.547 240.79 301.113L248.642 296.575C249.4 296.141 249.4 295.418 248.642 294.984ZM261.332 287.644L254.725 283.829C253.967 283.396 252.721 283.396 251.963 283.829L244.111 288.367C243.353 288.801 243.353 289.524 244.111 289.958L250.718 293.773C251.476 294.207 252.721 294.207 253.48 293.773L261.332 289.235C262.09 288.801 262.09 288.078 261.332 287.644ZM274.021 280.304L267.415 276.489C266.656 276.055 265.411 276.055 264.653 276.489L256.801 281.027C256.043 281.461 256.043 282.184 256.801 282.618L263.407 286.433C264.166 286.867 265.411 286.867 266.169 286.433L274.021 281.895C274.779 281.461 274.779 280.738 274.021 280.304ZM166.981 355.404L160.375 351.589C159.617 351.155 158.371 351.155 157.613 351.589L149.761 356.127C149.003 356.561 149.003 357.284 149.761 357.718L156.368 361.533C157.126 361.967 158.371 361.967 159.129 361.533L166.981 356.995C167.74 356.561 167.74 355.838 166.981 355.404ZM179.671 348.064L173.064 344.249C172.306 343.815 171.061 343.815 170.303 344.249L162.451 348.787C161.693 349.221 161.693 349.944 162.451 350.378L169.057 354.193C169.815 354.627 171.061 354.627 171.819 354.193L179.671 349.655C180.429 349.221 180.429 348.498 179.671 348.064ZM192.36 340.724L185.754 336.909C184.996 336.475 183.75 336.475 182.992 336.909L175.14 341.447C174.382 341.881 174.382 342.604 175.14 343.038L181.747 346.853C182.505 347.286 183.75 347.286 184.508 346.853L192.36 342.315C193.119 341.881 193.119 341.158 192.36 340.724ZM205.05 333.384L198.443 329.569C197.685 329.135 196.44 329.135 195.682 329.569L187.83 334.107C187.072 334.541 187.072 335.264 187.83 335.698L194.436 339.513C195.194 339.946 196.44 339.946 197.198 339.513L205.05 334.975C205.808 334.541 205.808 333.818 205.05 333.384ZM189.996 368.692L183.389 364.877C182.631 364.443 181.386 364.443 180.628 364.877L172.776 369.415C172.018 369.849 172.018 370.572 172.776 371.006L179.382 374.821C180.14 375.255 181.386 375.255 182.144 374.821L189.996 370.283C190.754 369.849 190.754 369.126 189.996 368.692ZM202.685 361.352L196.079 357.537C195.321 357.103 194.075 357.103 193.317 357.537L185.465 362.075C184.707 362.509 184.707 363.232 185.465 363.666L192.072 367.481C192.83 367.915 194.075 367.915 194.833 367.481L202.685 362.943C203.443 362.509 203.443 361.786 202.685 361.352ZM215.375 354.012L208.768 350.197C208.01 349.763 206.765 349.763 206.007 350.197L198.155 354.735C197.397 355.169 197.397 355.892 198.155 356.326L204.761 360.141C205.519 360.574 206.765 360.574 207.523 360.141L215.375 355.603C216.133 355.169 216.133 354.446 215.375 354.012ZM228.064 346.672L221.458 342.857C220.7 342.423 219.454 342.423 218.696 342.857L210.844 347.395C210.086 347.829 210.086 348.552 210.844 348.986L217.451 352.801C218.209 353.234 219.454 353.234 220.212 352.801L228.064 348.263C228.823 347.829 228.823 347.106 228.064 346.672ZM308.209 300.335L301.602 296.521C300.844 296.087 299.599 296.087 298.841 296.521L286.891 303.427C286.133 303.861 286.133 304.584 286.891 305.018L293.498 308.833C294.256 309.266 295.501 309.266 296.259 308.833L308.209 301.926C308.967 301.493 308.967 300.769 308.209 300.335ZM217.74 326.044L211.133 322.229C210.375 321.795 209.129 321.795 208.371 322.229L200.519 326.767C199.761 327.201 199.761 327.924 200.519 328.358L207.126 332.172C207.884 332.606 209.129 332.606 209.888 332.172L217.74 327.635C218.498 327.201 218.498 326.478 217.74 326.044ZM230.429 318.704L223.823 314.889C223.064 314.455 221.819 314.455 221.061 314.889L213.209 319.427C212.451 319.861 212.451 320.584 213.209 321.018L219.815 324.832C220.573 325.266 221.819 325.266 222.577 324.832L230.429 320.295C231.187 319.861 231.187 319.138 230.429 318.704ZM243.119 311.364L236.512 307.549C235.754 307.115 234.508 307.115 233.75 307.549L225.898 312.087C225.14 312.521 225.14 313.244 225.898 313.678L232.505 317.492C233.263 317.926 234.508 317.926 235.267 317.492L243.119 312.955C243.877 312.521 243.877 311.798 243.119 311.364ZM255.808 304.024L249.202 300.209C248.443 299.775 247.198 299.775 246.44 300.209L238.588 304.747C237.83 305.181 237.83 305.904 238.588 306.338L245.194 310.152C245.953 310.586 247.198 310.586 247.956 310.152L255.808 305.615C256.566 305.181 256.566 304.457 255.808 304.024ZM268.498 296.684L261.891 292.869C261.133 292.435 259.888 292.435 259.129 292.869L251.277 297.407C250.519 297.841 250.519 298.564 251.277 298.998L257.884 302.812C258.642 303.246 259.888 303.246 260.646 302.812L268.498 298.274C269.256 297.841 269.256 297.117 268.498 296.684ZM285.285 286.975L278.678 283.16C277.92 282.727 276.675 282.727 275.916 283.16L263.967 290.067C263.209 290.501 263.209 291.224 263.967 291.658L270.573 295.472C271.332 295.906 272.577 295.906 273.335 295.472L285.285 288.566C286.043 288.132 286.043 287.409 285.285 286.975ZM182.902 359.652L176.295 355.838C175.537 355.404 174.292 355.404 173.534 355.838L161.584 362.744C160.826 363.178 160.826 363.901 161.584 364.335L168.191 368.15C168.949 368.583 170.194 368.583 170.953 368.15L182.902 361.243C183.66 360.81 183.66 360.086 182.902 359.652ZM195.592 352.312L188.985 348.498C188.227 348.064 186.981 348.064 186.223 348.498L178.371 353.036C177.613 353.469 177.613 354.193 178.371 354.627L184.978 358.441C185.736 358.875 186.981 358.875 187.74 358.441L195.592 353.903C196.35 353.469 196.35 352.746 195.592 352.312ZM208.281 344.972L201.675 341.158C200.916 340.724 199.671 340.724 198.913 341.158L191.061 345.696C190.303 346.129 190.303 346.853 191.061 347.286L197.667 351.101C198.425 351.535 199.671 351.535 200.429 351.101L208.281 346.563C209.039 346.129 209.039 345.406 208.281 344.972ZM220.971 337.632L214.364 333.818C213.606 333.384 212.36 333.384 211.602 333.818L203.75 338.355C202.992 338.789 202.992 339.513 203.75 339.946L210.357 343.761C211.115 344.195 212.36 344.195 213.119 343.761L220.971 339.223C221.729 338.789 221.729 338.066 220.971 337.632ZM233.66 330.292L227.054 326.478C226.295 326.044 225.05 326.044 224.292 326.478L216.44 331.015C215.682 331.449 215.682 332.172 216.44 332.606L223.046 336.421C223.804 336.855 225.05 336.855 225.808 336.421L233.66 331.883C234.418 331.449 234.418 330.726 233.66 330.292ZM291.729 309.99L285.122 306.175C284.364 305.741 283.119 305.741 282.36 306.175L223.606 340.163C222.848 340.597 222.848 341.32 223.606 341.754L230.212 345.569C230.971 346.003 232.216 346.003 232.974 345.569L291.729 311.581C292.487 311.147 292.487 310.424 291.729 309.99ZM246.35 322.952L239.743 319.138C238.985 318.704 237.74 318.704 236.981 319.138L229.129 323.675C228.371 324.109 228.371 324.832 229.129 325.266L235.736 329.081C236.494 329.515 237.74 329.515 238.498 329.081L246.35 324.543C247.108 324.109 247.108 323.386 246.35 322.952ZM259.039 315.612L252.433 311.798C251.675 311.364 250.429 311.364 249.671 311.798L241.819 316.335C241.061 316.769 241.061 317.492 241.819 317.926L248.425 321.741C249.184 322.175 250.429 322.175 251.187 321.741L259.039 317.203C259.797 316.769 259.797 316.046 259.039 315.612ZM271.729 308.272L265.122 304.457C264.364 304.024 263.119 304.024 262.36 304.457L254.508 308.995C253.75 309.429 253.75 310.152 254.508 310.586L261.115 314.401C261.873 314.835 263.119 314.835 263.877 314.401L271.729 309.863C272.487 309.429 272.487 308.706 271.729 308.272ZM284.418 300.932L277.812 297.117C277.054 296.684 275.808 296.684 275.05 297.117L267.198 301.655C266.44 302.089 266.44 302.812 267.198 303.246L273.805 307.061C274.563 307.495 275.808 307.495 276.566 307.061L284.418 302.523C285.176 302.089 285.176 301.366 284.418 300.932ZM297.108 293.592L290.501 289.777C289.743 289.343 288.498 289.343 287.74 289.777L279.888 294.315C279.129 294.749 279.129 295.472 279.888 295.906L286.494 299.721C287.252 300.155 288.498 300.155 289.256 299.721L297.108 295.183C297.866 294.749 297.866 294.026 297.108 293.592ZM275.158 266.221L268.552 262.406C267.794 261.972 266.548 261.972 265.79 262.406L257.938 266.944C257.18 267.378 257.18 268.101 257.938 268.535L264.545 272.349C265.303 272.783 266.548 272.783 267.306 272.349L275.158 267.812C275.916 267.378 275.916 266.654 275.158 266.221ZM287.848 258.881L281.241 255.066C280.483 254.632 279.238 254.632 278.48 255.066L270.628 259.604C269.869 260.038 269.869 260.761 270.628 261.195L277.234 265.009C277.992 265.443 279.238 265.443 279.996 265.009L287.848 260.471C288.606 260.038 288.606 259.314 287.848 258.881ZM300.537 251.54L293.931 247.726C293.173 247.292 291.927 247.292 291.169 247.726L283.317 252.264C282.559 252.698 282.559 253.421 283.317 253.855L289.924 257.669C290.682 258.103 291.927 258.103 292.685 257.669L300.537 253.131C301.295 252.697 301.295 251.974 300.537 251.54ZM312.108 258.23L305.501 254.415C304.743 253.981 303.498 253.981 302.74 254.415L294.888 258.953C294.129 259.387 294.129 260.11 294.888 260.544L301.494 264.358C302.252 264.792 303.498 264.792 304.256 264.358L312.108 259.821C312.866 259.387 312.866 258.664 312.108 258.23ZM323.353 264.413L316.891 260.67C316.259 260.309 315.249 260.309 314.599 260.67L303.498 266.998C302.956 267.305 302.09 267.305 301.566 266.998L292.866 261.972C291.909 261.43 290.375 261.43 289.436 261.972L269.527 273.488C268.57 274.031 268.57 274.935 269.527 275.477L286.891 285.511C287.848 286.053 289.382 286.053 290.321 285.511L323.353 266.401C324.31 265.859 324.31 264.955 323.353 264.413Z" fill="url(#paint3_linear_1293_6168)"/>
<g style="mix-blend-mode:screen" opacity="0.1">
<path d="M304.725 232.16L117.017 340.688L81.6924 177.327L269.4 68.7808L304.725 232.16Z" fill="#EE8AFF"/>
</g>
<g style="mix-blend-mode:screen" opacity="0.2">
<path d="M304.725 232.16L117.018 340.688V190.271L304.725 81.7432V232.16Z" fill="#EE8AFF"/>
</g>
<path d="M304.725 83.3341L117.018 191.88V180.472L304.725 71.9263V83.3341Z" fill="url(#paint4_linear_1293_6168)"/>
<g opacity="0.6">
<path d="M302.595 75.3614C302.306 75.1987 301.927 75.2348 301.53 75.4518L296.422 78.3986C295.754 78.7783 295.23 79.628 295.23 80.2969V85.4133C295.23 85.7568 295.375 86.0279 295.61 86.1726C295.718 86.2449 295.862 86.281 296.007 86.281C296.205 86.281 296.44 86.2087 296.675 86.0822L301.783 83.1353C302.451 82.7557 302.974 81.9059 302.974 81.237V76.1207C302.974 75.7772 302.83 75.506 302.595 75.3614ZM302.487 81.237C302.487 81.7432 302.054 82.4122 301.548 82.7014L296.44 85.6483C296.205 85.7748 296.007 85.811 295.88 85.7387C295.754 85.6664 295.736 85.5036 295.736 85.4133V80.2969C295.736 79.7907 296.169 79.1218 296.675 78.8325L301.783 75.8857C301.927 75.7953 302.072 75.7591 302.198 75.7591C302.252 75.7591 302.306 75.7591 302.342 75.7953C302.469 75.8676 302.487 76.0303 302.487 76.1207V81.237Z" fill="#A62FCC"/>
<path d="M292.847 80.4957L287.739 83.4426C287.071 83.8222 286.548 84.6719 286.548 85.3409V90.4572C286.548 90.8007 286.692 91.0719 286.927 91.2165C287.053 91.2888 287.18 91.325 287.324 91.325C287.523 91.325 287.757 91.2527 287.992 91.1261L293.1 88.1793C293.768 87.7996 294.292 86.9499 294.292 86.281V81.1646C294.292 80.8211 294.147 80.5499 293.912 80.4053C293.624 80.2426 293.245 80.2788 292.847 80.4957ZM293.786 86.281C293.786 86.7872 293.353 87.4561 292.847 87.7454L287.739 90.6922C287.505 90.8188 287.306 90.8549 287.18 90.7826C287.053 90.7103 287.035 90.5476 287.035 90.4572V85.3409C287.035 84.8347 287.468 84.1657 287.974 83.8765L293.082 80.9296C293.227 80.8392 293.371 80.8031 293.497 80.8031C293.551 80.8031 293.606 80.8031 293.642 80.8392C293.768 80.9115 293.786 81.0742 293.786 81.1646V86.281Z" fill="#A62FCC"/>
<path d="M284.147 85.5216L279.039 88.4685C278.371 88.8481 277.848 89.6978 277.848 90.3667V95.4831C277.848 95.8266 277.992 96.0978 278.227 96.2424C278.335 96.3147 278.479 96.3509 278.624 96.3509C278.822 96.3509 279.057 96.2786 279.274 96.152L284.382 93.2051C285.05 92.8255 285.573 91.9758 285.573 91.3068V86.1905C285.573 85.847 285.429 85.5758 285.194 85.4312C284.905 85.2685 284.526 85.3046 284.147 85.5216ZM285.086 91.3068C285.086 91.8131 284.653 92.482 284.147 92.7712L279.039 95.7181C278.804 95.8447 278.606 95.8808 278.479 95.8085C278.353 95.7362 278.335 95.5735 278.335 95.4831V90.3667C278.335 89.8605 278.768 89.1916 279.274 88.9023L284.382 85.9555C284.526 85.8651 284.671 85.8289 284.797 85.8289C284.851 85.8289 284.905 85.8289 284.942 85.8651C285.068 85.9374 285.068 86.1001 285.068 86.1905V91.3068H285.086Z" fill="#A62FCC"/>
</g>
<path d="M305.321 223.898C305.158 223.7 304.924 223.609 304.671 223.627L299.454 224.224C299.148 224.26 298.895 224.495 298.823 224.802C298.787 224.983 298.823 225.164 298.913 225.309C298.967 225.417 299.057 225.507 299.184 225.58L300.249 226.194L123.209 328.575C123.317 329.082 123.408 329.588 123.516 330.076L301.711 227.026L303.371 227.984C303.552 228.093 303.787 228.111 303.985 228.039C304.184 227.966 304.346 227.803 304.418 227.587L305.465 224.567C305.537 224.332 305.501 224.061 305.339 223.88L305.321 223.898Z" fill="#FFDDFF"/>
<path style="mix-blend-mode:screen" d="M278.732 168.956L270.213 169.354C268.714 169.427 266.945 170.367 265.393 171.921L248.047 189.169C246.963 190.253 245.772 191.049 244.617 191.447L229.256 196.816C227.884 197.304 226.44 198.335 225.213 199.745L205.375 222.434C204.13 223.844 202.686 224.893 201.296 225.381L181.765 232.088C180.556 232.504 179.274 233.372 178.137 234.547L163.101 250.059C161.693 251.505 160.086 252.463 158.66 252.716L142.866 255.482C141.079 255.79 139.057 257.2 137.487 259.225L123.209 277.557V329.298L301.657 226.104V158.489L291.584 160.297C290.249 160.532 288.787 161.381 287.451 162.665L283.462 166.516C281.927 167.998 280.213 168.884 278.769 168.956H278.732Z" fill="url(#paint5_linear_1293_6168)"/>
<path style="mix-blend-mode:screen" d="M296.855 187.741L288.84 196.274C287.342 197.865 285.591 198.913 284.075 199.112L259.147 202.475C257.866 202.656 256.422 203.415 255.086 204.608L239.49 218.746C238.443 219.686 237.324 220.373 236.277 220.699L216.494 226.863C215.032 227.315 213.479 228.418 212.18 229.937L192.342 253.006C191.259 254.271 189.978 255.266 188.732 255.808L173.335 262.624C172.252 263.094 171.151 263.907 170.158 264.938L152.812 283.143C151.494 284.517 149.996 285.475 148.624 285.819L133.967 289.453V335.518L312.414 232.323V182.823L301.349 184.938C299.887 185.228 298.245 186.24 296.837 187.741H296.855Z" fill="url(#paint6_linear_1293_6168)"/>
<path style="mix-blend-mode:screen" d="M309.635 203.397L300.826 211.334C299.49 212.527 298.046 213.286 296.783 213.449L287.974 214.588C286.62 214.769 285.086 215.6 283.696 216.92L271.711 228.274C270.267 229.648 268.66 230.497 267.27 230.624L252.812 231.944C251.169 232.088 249.238 233.263 247.613 235.071L221.133 264.847C219.544 266.637 217.631 267.794 216.007 267.957L205.393 269.078C203.841 269.241 202.054 270.289 200.501 271.934L181.422 292.219C179.833 293.918 177.974 294.967 176.386 295.075L165.158 295.853C163.822 295.943 162.252 296.72 160.826 298.022L146.277 311.238V342.623L324.725 239.428V198.335L313.082 201.408C311.963 201.698 310.772 202.403 309.653 203.397H309.635Z" fill="url(#paint7_linear_1293_6168)"/>
<path style="mix-blend-mode:screen" d="M321.079 227.387L312.27 235.306C310.917 236.535 309.436 237.295 308.155 237.439L299.816 238.379C298.281 238.56 296.494 239.591 294.978 241.2L287.794 248.811C286.043 250.655 283.985 251.74 282.343 251.667L264.166 250.836C262.415 250.763 260.213 251.975 258.408 254.036L237.649 277.665C235.989 279.563 233.967 280.756 232.27 280.865L216.801 281.751C215.267 281.841 213.462 282.835 211.873 284.444L192.541 304.259C191.133 305.705 189.509 306.663 188.083 306.899L176.422 308.833C175.177 309.032 173.769 309.791 172.487 310.966L157.686 324.417V349.257L336.133 246.063V222.217L324.473 225.417C323.371 225.724 322.198 226.411 321.097 227.387H321.079Z" fill="url(#paint8_linear_1293_6168)"/>
<path style="mix-blend-mode:screen" d="M331.837 243.225L325.682 247.636C323.804 248.974 321.909 249.986 320.068 250.601L313.624 252.788C311.277 253.584 308.841 255.012 306.494 256.928L301.115 261.358C298.823 263.238 296.44 264.648 294.147 265.444L277.144 271.41C275.05 272.151 272.884 273.38 270.772 275.025L251.422 290.176C248.931 292.128 246.35 293.484 243.931 294.135L232.072 297.317C229.472 298.004 226.711 299.522 224.057 301.692L206.819 315.812C204.292 317.891 201.638 319.355 199.147 320.096L192.559 322.031C189.364 322.971 185.952 325.122 182.848 328.141L170.321 340.363L170.23 356.525L348.678 253.331L348.768 237.566L338.859 239.826C336.584 240.35 334.165 241.507 331.783 243.225H331.837Z" fill="url(#paint9_linear_1293_6168)"/>
<path d="M178.354 360.629L124.004 329.208V197.666C124.004 197.268 123.679 196.943 123.282 196.943C122.884 196.943 122.56 197.268 122.56 197.666V329.642C122.56 329.895 122.704 330.148 122.921 330.275L177.632 361.913C177.74 361.985 177.866 362.003 177.993 362.003C178.245 362.003 178.48 361.877 178.625 361.642C178.823 361.298 178.715 360.846 178.354 360.648V360.629Z" fill="#FFDDFF"/>
<path d="M125.862 196.762L123.769 194.339C123.606 194.159 123.353 194.05 123.101 194.104C122.848 194.141 122.649 194.303 122.541 194.538L120.447 199.365C120.321 199.655 120.393 199.998 120.628 200.197C120.772 200.323 120.935 200.378 121.115 200.378C121.241 200.378 121.368 200.342 121.476 200.287L125.646 197.865C125.826 197.756 125.971 197.575 126.007 197.359C126.043 197.142 125.989 196.925 125.844 196.762H125.862Z" fill="#FFDDFF"/>
<path d="M181.115 362.636L180.519 359.491C180.465 359.256 180.303 359.039 180.068 358.948C179.833 358.858 179.581 358.894 179.364 359.039L175.14 362.184C174.888 362.365 174.779 362.709 174.888 362.998C174.942 363.179 175.068 363.305 175.212 363.396C175.321 363.45 175.447 363.486 175.573 363.486H180.393C180.61 363.486 180.808 363.396 180.953 363.215C181.097 363.052 181.151 362.835 181.097 362.618L181.115 362.636Z" fill="#FFDDFF"/>
<g style="mix-blend-mode:screen">
<path d="M163.39 189.422L154.617 194.484V192.604L163.39 187.523V189.422Z" fill="#FECFC4"/>
<path d="M171.639 184.649L165.917 187.939V186.059L171.639 182.75V184.649Z" fill="#FECFC4"/>
<path d="M186.007 176.332L174.166 183.184V181.286L186.007 174.434V176.332Z" fill="#FECFC4"/>
<path d="M202.09 167.04L188.552 174.868V172.97L202.09 165.142V167.04Z" fill="#FECFC4"/>
<path d="M204.617 163.677V165.576L218.155 157.747V155.849L204.617 163.677Z" fill="#FECFC4"/>
<path d="M226.332 153.011L220.683 156.283V154.385L226.332 151.13V153.011Z" fill="#FECFC4"/>
<path d="M242.578 143.628L228.859 151.546V149.666L242.578 141.729V143.628Z" fill="#FECFC4"/>
<path d="M168.245 191.736L154.617 199.618V197.738L168.245 189.837V191.736Z" fill="#FECFC4"/>
<path d="M176.494 186.963L170.79 190.272V188.373L176.494 185.083V186.963Z" fill="#FECFC4"/>
<path d="M186.008 181.467L179.04 185.499V183.619L186.008 179.569V181.467Z" fill="#FECFC4"/>
<path d="M196.295 175.519L188.552 180.002V178.104L196.295 173.621V175.519Z" fill="#FECFC4"/>
<path d="M198.841 172.156V174.055L211.314 166.841V164.943L198.841 172.156Z" fill="#FECFC4"/>
<path d="M222.235 160.514L213.859 165.359V163.478L222.235 158.633V160.514Z" fill="#FECFC4"/>
<path d="M242.577 148.762L224.779 159.049V157.151L242.577 146.864V148.762Z" fill="#FECFC4"/>
<path d="M163.39 199.691L154.617 204.753V202.873L163.39 197.792V199.691Z" fill="#FECFC4"/>
<path d="M171.639 194.918L165.917 198.208V196.328L171.639 193.02V194.918Z" fill="#FECFC4"/>
<path d="M186.007 186.601L174.166 193.453V191.555L186.007 184.703V186.601Z" fill="#FECFC4"/>
<path d="M202.09 177.309L188.552 185.137V183.239L202.09 175.411V177.309Z" fill="#FECFC4"/>
<path d="M204.617 173.946V175.845L218.155 168.016V166.118L204.617 173.946Z" fill="#FECFC4"/>
<path d="M226.332 163.28L220.683 166.552V164.654L226.332 161.399V163.28Z" fill="#FECFC4"/>
<path d="M242.578 153.897L228.859 161.815V159.935L242.578 151.999V153.897Z" fill="#FECFC4"/>
<path d="M168.245 202.005L154.617 209.887V208.007L168.245 200.106V202.005Z" fill="#FECFC4"/>
<path d="M176.494 197.232L170.79 200.54V198.642L176.494 195.352V197.232Z" fill="#FECFC4"/>
<path d="M186.008 191.736L179.04 195.767V193.869L186.008 189.837V191.736Z" fill="#FECFC4"/>
<path d="M196.295 185.788L188.552 190.272V188.373L196.295 183.89V185.788Z" fill="#FECFC4"/>
<path d="M198.841 182.425V184.323L211.314 177.11V175.211L198.841 182.425Z" fill="#FECFC4"/>
<path d="M222.235 170.783L213.859 175.628V173.747L222.235 168.902V170.783Z" fill="#FECFC4"/>
<path d="M242.577 159.031L224.779 169.318V167.42L242.577 157.133V159.031Z" fill="#FECFC4"/>
<path d="M163.39 209.941L154.617 215.021V213.141L163.39 208.061V209.941Z" fill="#FECFC4"/>
<path d="M171.639 205.186L165.917 208.477V206.597L171.639 203.288V205.186Z" fill="#FECFC4"/>
<path d="M186.007 196.87L174.166 203.722V201.824L186.007 194.972V196.87Z" fill="#FECFC4"/>
<path d="M202.09 187.577L188.552 195.406V193.507L202.09 185.679V187.577Z" fill="#FECFC4"/>
<path d="M204.617 184.215V186.113L218.155 178.285V176.387L204.617 184.215Z" fill="#FECFC4"/>
<path d="M226.332 173.548L220.683 176.82V174.922L226.332 171.668V173.548Z" fill="#FECFC4"/>
<path d="M242.578 164.165L228.859 172.084V170.204L242.578 162.267V164.165Z" fill="#FECFC4"/>
<path d="M168.245 212.273L154.617 220.156V218.275L168.245 210.375V212.273Z" fill="#FECFC4"/>
<path d="M176.494 207.501L170.79 210.809V208.911L176.494 205.621V207.501Z" fill="#FECFC4"/>
<path d="M186.008 202.005L179.04 206.036V204.138L186.008 200.106V202.005Z" fill="#FECFC4"/>
<path d="M196.295 196.056L188.552 200.54V198.642L196.295 194.158V196.056Z" fill="#FECFC4"/>
<path d="M198.841 192.694V194.574L211.314 187.361V185.48L198.841 192.694Z" fill="#FECFC4"/>
<path d="M222.235 181.051L213.859 185.896V184.016L222.235 179.153V181.051Z" fill="#FECFC4"/>
<path d="M242.577 169.3L224.779 179.587V177.688L242.577 167.401V169.3Z" fill="#FECFC4"/>
<path d="M267.054 141.35L258.011 134.118C260.754 130.521 263.661 127.917 267.054 125.947V141.35Z" fill="#EC84F6"/>
<path d="M267.054 141.35L252.433 154.565C250.339 149.304 252.523 141.295 258.011 134.118L267.054 141.35Z" fill="#FFAFF5"/>
<path d="M267.054 141.35V156.753C260.267 160.676 254.526 159.827 252.433 154.566L267.054 141.35Z" fill="#FECFC4"/>
<path d="M267.054 141.35L279.491 143.212C276.494 149.07 272.144 153.806 267.054 156.753V141.35Z" fill="#FFE9BC"/>
<path d="M267.054 141.35L281.675 128.134C283.245 132.075 282.487 137.355 279.491 143.212L267.054 141.35Z" fill="#711AA3"/>
<path d="M267.054 141.35V125.947C273.841 122.024 279.581 122.873 281.675 128.134L267.054 141.35Z" fill="#962DCC"/>
<path d="M304.925 119.42L298.282 137.246C295.195 137.553 292.975 136.74 291.351 134.679L304.925 119.438V119.42Z" fill="#EC84F6"/>
<path d="M304.924 119.42L312.307 128.749C307.812 133.793 302.902 136.776 298.281 137.246L304.924 119.42Z" fill="#FFAFF5"/>
<path d="M304.924 119.42L291.35 134.661C287.271 129.508 290.051 118.516 297.542 110.091C305.033 101.667 314.419 99.027 318.498 104.161C320.123 106.222 320.682 108.916 320.249 112.55L304.924 119.402V119.42Z" fill="#962DCC"/>
<path d="M304.924 119.42L320.249 112.568C319.581 118.046 316.801 123.704 312.307 128.749L304.924 119.42Z" fill="#FECFC4"/>
</g>
<path d="M40.302 280.485V353.777C40.2298 358.73 43.4608 363.702 49.9951 367.481C62.9193 374.947 83.876 374.947 96.7821 367.481C103.172 363.793 106.403 358.965 106.475 354.12V280.828L40.302 280.485Z" fill="#6D00BA"/>
<path d="M42.2697 280.503H40.3022V353.777C40.2661 356.019 40.9339 358.26 42.2697 360.412V280.503Z" fill="#6D00BA"/>
<path d="M99.021 280.811L64.0029 280.63V372.29C75.2484 374.206 87.9199 372.615 96.8008 367.481C97.595 367.029 98.3351 366.541 99.021 366.053V280.793V280.811Z" fill="#E29700"/>
<path d="M93.7139 280.774V369.036C94.7788 368.548 95.8077 368.041 96.7825 367.481C103.172 363.793 106.403 358.966 106.476 354.121V280.829L93.7139 280.756V280.774Z" fill="#D66EE5"/>
<path d="M73.3893 280.521L93.6781 295.762C84.9958 299.648 74.6528 300.769 64.1113 298.961L73.3893 280.521Z" fill="#FFD03B"/>
<path d="M96.7289 266.908C105.068 271.735 108.732 278.966 105.213 285.963C103.155 290.031 99.4725 293.176 93.6783 295.762L73.3895 280.521L57.7938 279.201L41.5664 275.061C46.6928 264.883 65.0863 259.062 82.6675 262.063C88.1729 263.003 92.9382 264.702 96.7289 266.89V266.908Z" fill="url(#paint10_linear_1293_6168)"/>
<path d="M73.3891 280.521L64.1111 298.961C58.5515 298.003 53.7862 296.394 49.9775 294.189C46.566 292.218 43.9306 289.795 42.1797 286.957L73.3891 280.521Z" fill="#8A18ED"/>
<path d="M73.3891 280.521L42.1797 286.957C39.7068 282.962 39.5082 279.147 41.566 275.08L73.3891 280.521Z" fill="#8A18ED"/>
<path style="mix-blend-mode:screen" d="M66.1512 298.456C63.7144 298.13 61.44 297.696 59.2017 297.118C51.3678 295.057 42.2523 290.338 40.4111 282.691C41.1332 288.078 46.9635 295.256 58.8046 298.546C83.1368 305.38 104.978 294.225 106.314 282.691C103.75 294.171 84.2378 300.77 66.1512 298.456Z" fill="url(#paint11_radial_1293_6168)"/>
<path d="M112.595 331.414V395.069C119.021 395.178 125.519 393.84 130.447 391.002C135.104 388.308 137.468 384.783 137.523 381.257V331.558L112.613 331.432L112.595 331.414Z" fill="#E29700"/>
<path d="M94.5991 331.323V389.917C95.1226 390.297 95.6821 390.64 96.2778 391.002C101.982 394.292 109.834 395.594 117.216 394.907V331.45L94.5811 331.323H94.5991Z" fill="#D66EE5"/>
<path d="M134.815 331.54V387.53C136.566 385.56 137.487 383.408 137.523 381.257V331.558H134.815V331.54Z" fill="#E29700"/>
<path d="M96.476 331.323L89.2197 331.287V380.986C89.1655 384.602 91.5121 388.236 96.2955 390.984C96.3496 391.02 96.4218 391.056 96.476 391.074V331.305V331.323Z" fill="#6D00BA"/>
<path d="M113.372 331.251L117.217 345.045C109.347 345.768 102.054 344.394 96.4043 341.122L113.372 331.251Z" fill="#FFACF6"/>
<path d="M130.34 321.361C137.885 325.718 139.654 332.082 134.852 337.578L113.372 331.232L130.34 321.361Z" fill="#FFD03B"/>
<path d="M134.852 337.579C131.26 341.701 125.087 344.304 117.217 345.027L113.372 331.233L134.852 337.579Z" fill="#FFD03B"/>
<path d="M113.372 331.251L96.404 341.122C88.8589 336.765 87.0899 330.401 91.8914 324.905L113.372 331.251Z" fill="#8A18ED"/>
<path d="M117.054 317.457L113.372 331.251L91.8916 324.905C94.545 321.868 98.7328 319.608 103.733 318.379C107.776 317.366 112.361 317.023 117.054 317.457Z" fill="#F87BFF"/>
<path d="M130.34 321.362L113.372 331.233L117.054 317.438C122.307 317.927 126.567 319.174 130.34 321.362Z" fill="#9E5BF4"/>
<path style="mix-blend-mode:screen" d="M137.396 332.444C137.324 332.842 137.18 333.438 136.891 334.125C136.349 335.553 135.05 337.343 133.064 338.988C131.097 340.67 128.371 342.062 125.284 343.038C122.198 344.014 118.75 344.557 115.302 344.719C111.855 344.918 108.371 344.683 105.212 344.014C102.053 343.345 99.1651 342.333 96.8908 341.086C94.5984 339.874 92.8836 338.518 91.8547 337.397C90.8077 336.277 90.3926 335.499 90.3926 335.499C90.3926 335.499 90.7536 336.295 91.7464 337.488C92.7211 338.663 94.3637 340.2 96.6561 341.501C98.9305 342.839 101.819 344.032 105.05 344.737C108.281 345.461 111.819 345.732 115.338 345.569C118.858 345.37 122.36 344.792 125.501 343.743C128.66 342.713 131.385 341.122 133.371 339.35C135.375 337.578 136.548 335.626 137.017 334.161C137.27 333.438 137.378 332.842 137.432 332.426C137.486 332.01 137.486 331.793 137.486 331.793C137.486 331.793 137.486 332.01 137.396 332.408V332.444Z" fill="url(#paint12_radial_1293_6168)"/>
<path d="M333.642 174.615L333.588 157.91L329.418 155.487L329.472 172.192C329.472 173.187 329.833 173.874 330.393 174.217L334.562 176.64C334.003 176.314 333.642 175.609 333.642 174.615Z" fill="#962DCC"/>
<path d="M350.808 140.572C350.23 140.247 349.436 140.283 348.57 140.789L332.559 150.045C330.826 151.058 329.418 153.48 329.418 155.487L333.588 157.91C333.588 155.903 334.996 153.462 336.728 152.468L352.739 143.212C353.606 142.705 354.4 142.651 354.978 142.995L350.808 140.572Z" fill="url(#paint13_linear_1293_6168)"/>
<g style="mix-blend-mode:screen" opacity="0.3">
<path d="M350.808 140.572C350.23 140.247 349.436 140.283 348.569 140.789L352.739 143.212C353.605 142.705 354.4 142.651 354.977 142.995L350.808 140.572Z" fill="#FFAFF5"/>
</g>
<g style="mix-blend-mode:screen" opacity="0.3">
<path d="M332.559 150.045C330.826 151.058 329.418 153.48 329.418 155.487L333.588 157.91C333.588 155.903 334.996 153.462 336.728 152.468L332.559 150.045Z" fill="#FFAFF5"/>
</g>
<path d="M355.898 145.019C355.898 143.012 354.472 142.217 352.74 143.211L336.729 152.468C334.996 153.48 333.588 155.903 333.588 157.909L333.642 174.614C333.642 176.621 335.068 177.417 336.801 176.404L352.812 167.148C354.545 166.135 355.953 163.713 355.953 161.706L355.898 145.001V145.019Z" fill="#D473F1"/>
<path d="M325.97 154.926C325.393 154.601 324.616 154.637 323.732 155.143L266.331 188.336C264.598 189.349 263.19 191.771 263.19 193.778L263.245 210.483C263.245 211.477 263.606 212.182 264.165 212.508L268.335 214.93C267.775 214.605 267.414 213.9 267.414 212.906L267.36 196.201C267.36 194.194 268.75 191.771 270.501 190.759L327.902 157.566C328.768 157.06 329.562 157.006 330.14 157.349L325.97 154.926Z" fill="url(#paint14_linear_1293_6168)"/>
<path d="M266.349 188.336C264.616 189.349 263.208 191.771 263.208 193.778L267.378 196.201C267.378 194.194 268.768 191.771 270.518 190.759L266.349 188.336Z" fill="#FFAFF5"/>
<g style="mix-blend-mode:screen" opacity="0.3">
<path d="M325.971 154.926C325.393 154.601 324.617 154.637 323.732 155.143L327.902 157.566C328.769 157.06 329.563 157.006 330.14 157.349L325.971 154.926Z" fill="#FFAFF5"/>
</g>
<path d="M331.061 159.374C331.061 157.367 329.653 156.571 327.902 157.566L270.501 190.759C268.768 191.771 267.36 194.194 267.36 196.2L267.415 212.905C267.415 214.912 268.822 215.708 270.573 214.713L327.974 181.52C329.707 180.508 331.115 178.085 331.115 176.079L331.061 159.374Z" fill="white"/>
<path style="mix-blend-mode:screen" d="M270.14 190.831C269.49 191.301 269.002 191.862 268.641 192.386C267.901 193.471 267.594 194.465 267.468 195.134C267.342 195.821 267.378 196.183 267.378 196.183C267.378 196.183 267.378 195.803 267.522 195.134C267.667 194.465 268.046 193.507 268.804 192.476C269.183 191.97 269.67 191.464 270.302 191.03C271.331 190.415 292.035 179.478 327.919 157.53C295.392 175.283 272.324 189.367 270.158 190.795L270.14 190.831Z" fill="url(#paint15_radial_1293_6168)"/>
<path style="mix-blend-mode:screen" d="M337.126 151.925C335.7 152.775 334.527 154.023 333.967 155.577C333.823 155.975 333.714 156.391 333.642 156.825C333.588 157.168 333.588 157.44 333.588 157.62C333.588 157.801 333.588 157.91 333.588 157.91C333.588 157.91 333.588 157.512 333.786 156.861C333.895 156.427 334.111 155.939 334.382 155.451C335.122 154.167 336.241 153.137 337.505 152.377C341.295 150.099 352.721 143.211 352.721 143.211C352.721 143.211 341.079 149.557 337.108 151.925H337.126Z" fill="url(#paint16_radial_1293_6168)"/>
<path style="mix-blend-mode:color-dodge" d="M336.657 163.388C342.538 163.388 347.306 158.612 347.306 152.721C347.306 146.83 342.538 142.055 336.657 142.055C330.775 142.055 326.007 146.83 326.007 152.721C326.007 158.612 330.775 163.388 336.657 163.388Z" fill="url(#paint17_radial_1293_6168)"/>
<g style="mix-blend-mode:screen" opacity="0.5">
<g style="mix-blend-mode:screen">
<path d="M367.342 185.607L356.313 191.989V193.525L367.342 187.143V185.607ZM380.447 178.032L369.418 184.414V185.95L380.447 179.568V178.032ZM387.108 174.181L382.505 176.838V178.375L387.108 175.718V174.181ZM389.184 172.988V174.524L391.295 173.313V171.776L389.184 172.988ZM362.631 192.531L356.313 196.183V197.72L362.631 194.068V192.531ZM374.869 185.462L364.707 191.338V192.874L374.869 186.999V185.462ZM376.945 185.806L383.786 181.846V180.31L376.945 184.269V185.806ZM385.844 180.653L391.277 177.507V175.971L385.844 179.116V180.653ZM367.342 193.995L356.313 200.377V201.914L367.342 195.532V193.995ZM380.447 186.42L369.418 192.802V194.339L380.447 187.957V186.42ZM387.108 182.569L382.505 185.227V186.764L387.108 184.106V182.569ZM389.184 182.913L391.295 181.702V180.165L389.184 181.376V182.913ZM362.631 200.902L356.313 204.553V206.09L362.631 202.438V200.902ZM364.707 201.245L374.869 195.369V193.833L364.707 199.708V201.245ZM376.945 194.176L383.786 190.217V188.68L376.945 192.639V194.176ZM385.844 189.024L391.277 185.878V184.341L385.844 187.487V189.024ZM367.342 202.366L356.313 208.748V210.284L367.342 203.903V202.366ZM380.447 194.791L369.418 201.173V202.709L380.447 196.328V194.791ZM382.523 195.134L387.126 192.477V190.94L382.523 193.598V195.134ZM389.184 191.284L391.295 190.072V188.536L389.184 189.747V191.284ZM356.313 214.479L362.631 210.827V209.29L356.313 212.942V214.479ZM364.707 209.634L374.869 203.758V202.221L364.707 208.097V209.634ZM376.945 202.565L383.786 198.605V197.069L376.945 201.028V202.565ZM385.844 197.412L391.277 194.267V192.73L385.844 195.876V197.412Z" fill="#FF88C9"/>
</g>
<g style="mix-blend-mode:screen">
<path d="M367.234 219.071L356.205 225.453V226.989L367.234 220.607V219.071ZM379.129 212.201L369.31 217.877V219.414L379.129 213.737V212.201ZM362.523 225.977L356.205 229.629V231.165L362.523 227.514V225.977ZM374.761 218.908L364.599 224.784V226.32L374.761 220.445V218.908ZM376.837 219.251L379.147 217.914V216.377L376.837 217.715V219.251ZM367.234 227.441L356.205 233.823V235.36L367.234 228.978V227.441ZM379.129 220.571L369.31 226.248V227.785L379.129 222.108V220.571ZM362.523 234.347L356.205 237.999V239.536L362.523 235.884V234.347ZM364.599 234.691L374.761 228.815V227.279L364.599 233.154V234.691ZM376.837 227.622L379.147 226.284V224.747L376.837 226.085V227.622ZM367.234 235.812L356.205 242.194V243.73L367.234 237.348V235.812ZM379.129 228.942L369.31 234.619V236.155L379.129 230.478V228.942ZM356.205 247.925L362.523 244.273V242.736L356.205 246.388V247.925ZM364.599 243.079L374.761 237.204V235.667L364.599 241.543V243.079ZM376.837 236.011L379.147 234.673V233.136L376.837 234.474V236.011Z" fill="#FF88C9"/>
</g>
<g style="mix-blend-mode:screen">
<path d="M68.8402 193.091L62.5225 196.743V198.28L68.8402 194.628V193.091ZM70.916 193.435L76.2409 190.361V188.825L70.916 191.898V193.435ZM78.3167 189.168L85.1578 185.209V183.672L78.3167 187.631V189.168ZM87.2156 184.016L101.728 175.627V174.09L87.2156 182.479V184.016ZM73.5513 194.556L62.5225 200.938V202.474L73.5513 196.092V194.556ZM81.8004 189.783L75.6091 193.362V194.899L81.8004 191.32V189.783ZM83.8762 190.126L88.4791 187.469V185.932L83.8762 188.59V190.126ZM90.5369 186.276L101.71 179.821V178.285L90.5369 184.739V186.276ZM62.5225 206.669L68.8402 203.017V201.48L62.5225 205.132V206.669ZM70.916 201.823L76.2409 198.75V197.213L70.916 200.287V201.823ZM78.3167 197.557L85.1578 193.597V192.061L78.3167 196.02V197.557ZM87.2156 192.404L101.728 184.016V182.479L87.2156 190.868V192.404Z" fill="#FF88C9"/>
</g>
<g style="mix-blend-mode:screen">
<path d="M82.8296 167.6L78.9668 169.842V171.378L82.8296 169.137V167.6ZM84.9054 167.943L91.6022 164.074V162.538L84.9054 166.407V167.943ZM93.678 162.863L101.566 158.307V156.771L93.678 161.326V162.863ZM87.5408 169.046L78.9668 174V175.536L87.5408 170.583V169.046ZM97.1798 163.478L89.6166 167.853V169.39L97.1798 165.014V163.478ZM99.2556 163.821L101.638 162.447V160.911L99.2556 162.285V163.821ZM78.9848 179.731L82.8477 177.489V175.952L78.9848 178.194V179.731ZM84.9235 176.296L91.6202 172.427V170.89L84.9235 174.759V176.296ZM93.696 171.216L101.747 166.551V165.014L93.696 169.661V171.197V171.216Z" fill="#FF88C9"/>
</g>
<g style="mix-blend-mode:screen">
<path d="M62.9376 239.97L56.4395 243.731V245.321L62.9376 241.561V239.97ZM65.0676 240.332L75.5189 234.293V232.702L65.0676 238.741V240.332ZM77.6488 233.064L84.6705 228.996V227.405L77.6488 231.473V233.064ZM86.8005 227.767L101.71 219.143V217.552L86.8005 226.176V227.767ZM67.7752 241.489L56.4395 248.051V249.642L67.7752 243.08V241.489ZM81.2409 233.697L69.9052 240.259V241.85L81.2409 235.288V233.697ZM83.3709 234.058L88.1001 231.328V229.737L83.3709 232.467V234.058ZM90.2301 230.099L101.728 223.446V221.855L90.2301 228.49V230.081V230.099ZM56.4395 253.945L62.9376 250.185V248.594L56.4395 252.354V253.945ZM65.0676 248.955L75.5189 242.917V241.326L65.0676 247.364V248.955ZM77.6488 241.688L84.6705 237.62V236.029L77.6488 240.097V241.688ZM86.8005 236.39L101.71 227.767V226.176L86.8005 234.8V236.39Z" fill="#FF88C9"/>
</g>
<g style="mix-blend-mode:screen">
<path d="M329.219 90.9092L336.114 86.9318V85.3409L329.219 89.3182V90.9092ZM338.244 85.7024L343.045 82.9183V81.3273L338.244 84.1115V85.7024ZM345.175 81.6889L353.262 77.0065V75.4155L345.175 80.098V81.6889ZM341.854 86.3352L329.273 93.621V95.212L341.854 87.9262V86.3352ZM343.984 86.6968L346.475 85.2505V83.6595L343.984 85.1058V86.6968ZM348.605 84.0211L353.262 81.3273V79.7364L348.605 82.4302V84.0211ZM329.345 99.4605L345.284 90.2403V88.6493L329.345 97.8696V99.4605ZM347.414 89.0109L353.262 85.6301V84.0392L347.414 87.4199V89.0109Z" fill="#FF88C9"/>
</g>
<g style="mix-blend-mode:screen">
<path d="M340.465 102.407L329.129 108.97V110.561L340.465 103.998V102.407ZM353.93 94.6151L342.595 101.178V102.769L353.93 96.2061V94.6151ZM360.79 90.6559L356.06 93.3858V94.9767L360.79 92.2468V90.6559ZM362.92 89.4265V91.0174L370.808 86.4616V84.8706L362.92 89.4446V89.4265ZM335.627 109.512L329.129 113.273V114.864L335.627 111.103V109.512ZM348.208 102.244L337.757 108.283V109.874L348.208 103.835V102.244ZM350.338 102.606L357.36 98.5383V96.9473L350.338 101.015V102.606ZM359.49 97.3089L370.808 90.7643V89.1734L359.49 95.718V97.3089ZM340.465 111.031L329.129 117.593V119.184L340.465 112.622V111.031ZM353.93 103.239L342.595 109.801V111.392L353.93 104.83V103.239ZM360.79 99.2795L356.06 102.009V103.6L360.79 100.87V99.2795ZM362.92 99.6411L370.808 95.0852V93.4943L362.92 98.0682V99.6592V99.6411ZM335.627 118.136L329.129 121.896V123.487L335.627 119.727V118.136ZM337.757 118.497L348.208 112.459V110.868L337.757 116.906V118.497ZM350.338 111.23L357.36 107.162V105.571L350.338 109.639V111.23ZM359.49 105.933L370.808 99.388V97.797L359.49 104.342V105.933ZM340.465 119.654L329.129 126.217V127.808L340.465 121.245V119.654ZM353.93 111.862L342.595 118.425V120.016L353.93 113.453V111.862ZM356.06 112.224L360.79 109.494V107.903L356.06 110.633V112.224ZM362.92 108.265L370.808 103.691V102.1L362.92 106.674V108.265ZM329.129 132.111L335.627 128.35V126.759L329.129 130.52V132.111ZM337.757 127.121L348.208 121.083V119.492L337.757 125.53V127.121ZM350.338 119.853L357.36 115.786V114.195L350.338 118.262V119.853ZM359.49 114.556L370.808 108.012V106.421L359.49 112.965V114.556Z" fill="#FF88C9"/>
</g>
</g>
<path d="M399.473 280.232V340.561C399.455 341.755 400.231 342.966 401.82 343.87C404.942 345.678 409.996 345.678 413.119 343.87C414.653 342.984 415.448 341.809 415.466 340.652V280.322L399.491 280.232H399.473Z" fill="#7500D1"/>
<path d="M413.065 276.942C411.819 276.219 410.412 275.803 408.679 275.64C405.195 275.315 401.946 276.291 400.357 278.099C398.769 279.925 399.365 282.022 401.856 283.468C403.733 284.553 406.134 285.005 408.733 284.77C411.332 284.535 413.372 283.667 414.563 282.311C416.152 280.485 415.556 278.388 413.065 276.942Z" fill="#8A18ED"/>
<path d="M384.924 295.545V348.968C384.906 350.161 385.682 351.373 387.271 352.277C390.393 354.085 395.448 354.085 398.57 352.277C400.105 351.391 400.899 350.216 400.917 349.059V295.635L384.942 295.545H384.924Z" fill="#E29700"/>
<path d="M398.516 292.273C397.271 291.55 395.863 291.134 394.13 290.971C390.646 290.646 387.397 291.622 385.809 293.43C384.22 295.256 384.816 297.353 387.307 298.799C389.184 299.884 391.585 300.336 394.184 300.101C396.783 299.866 398.823 298.998 400.014 297.642C401.603 295.816 401.007 293.719 398.516 292.273Z" fill="#FFD03B"/>
<path d="M370.375 310.641V357.375C370.357 358.568 371.133 359.779 372.722 360.683C375.845 362.491 380.899 362.491 384.022 360.683C385.556 359.797 386.35 358.622 386.368 357.465V310.731L370.393 310.641H370.375Z" fill="#C334CE"/>
<path d="M383.985 307.369C382.739 306.645 381.331 306.23 379.599 306.067C376.115 305.741 372.866 306.718 371.277 308.526C369.689 310.352 370.285 312.449 372.776 313.895C374.653 314.98 377.053 315.432 379.653 315.197C382.252 314.962 384.292 314.094 385.483 312.738C387.072 310.912 386.476 308.815 383.985 307.369Z" fill="#E467E8"/>
<path d="M355.61 328.141V365.926C355.592 367.119 356.368 368.331 357.956 369.235C361.079 371.042 366.133 371.042 369.256 369.235C370.79 368.349 371.584 367.174 371.602 366.016V328.232L355.628 328.141H355.61Z" fill="#EA82F5"/>
<path d="M369.202 324.869C367.956 324.146 366.548 323.73 364.815 323.567C361.332 323.242 358.083 324.218 356.494 326.026C354.906 327.852 355.501 329.949 357.992 331.396C359.87 332.48 362.27 332.932 364.87 332.697C367.469 332.462 369.509 331.594 370.7 330.238C372.288 328.412 371.693 326.315 369.202 324.869Z" fill="#FFACF6"/>
<path d="M340.826 344.665V374.477C340.808 375.67 341.585 376.882 343.173 377.786C346.296 379.594 351.35 379.594 354.473 377.786C356.007 376.9 356.801 375.725 356.819 374.568V344.755L340.845 344.665H340.826Z" fill="#C334CE"/>
<path d="M354.436 341.375C353.191 340.652 351.783 340.236 350.05 340.073C346.566 339.748 343.317 340.724 341.728 342.532C340.14 344.358 340.736 346.455 343.227 347.901C345.104 348.986 347.505 349.438 350.104 349.203C352.703 348.968 354.743 348.1 355.934 346.744C357.523 344.918 356.927 342.821 354.436 341.375Z" fill="#E467E8"/>
<path d="M209.148 401.722C209.148 401.722 209.057 401.559 209.003 401.487C208.949 401.433 208.895 401.379 208.841 401.342L201.873 397.311C201.765 397.239 201.657 397.239 201.603 397.275L198.317 399.191C199.382 401.415 203.624 404.868 205.844 406.405L209.13 404.488C209.13 404.488 209.238 404.362 209.238 404.235V402.011C209.238 401.921 209.22 401.813 209.184 401.722H209.148Z" fill="url(#paint18_linear_1293_6168)"/>
<path d="M205.537 403.241L198.57 399.209C198.353 399.083 198.173 399.191 198.173 399.426V401.65C198.173 401.903 198.335 402.192 198.552 402.319L205.519 406.35C205.736 406.477 205.898 406.368 205.917 406.133V403.91C205.917 403.657 205.754 403.349 205.537 403.241Z" fill="#2A182A"/>
<path d="M334.815 390.405C333.533 389.664 331.927 389.664 330.627 390.405L234.707 445.871C233.894 446.341 232.883 446.341 232.053 445.871L184.003 418.084C184.003 418.084 183.894 417.975 183.894 417.885V415.354C183.894 415.083 184.039 414.848 184.273 414.703L202.468 404.181C203.533 403.566 202.288 401.325 201.187 401.957L182.992 412.479C181.963 413.076 181.331 414.161 181.331 415.354V418.012C181.331 418.934 181.818 419.783 182.613 420.235L230.771 448.095C231.584 448.565 232.468 448.8 233.371 448.8C234.273 448.8 235.176 448.565 235.97 448.095L331.891 392.629C332.396 392.339 333.01 392.339 333.497 392.629L505.79 492.262H510.916L334.779 390.405H334.815Z" fill="url(#paint19_linear_1293_6168)"/>
<g style="mix-blend-mode:screen">
<path d="M184.887 412.696C185.374 412.407 200.79 403.494 201.439 403.132C201.602 403.042 202.27 402.771 201.945 402.5C201.728 402.319 201.512 402.5 201.313 402.608C201.006 402.789 184.544 412.298 184.183 412.515C183.93 412.66 183.389 412.931 183.551 413.166C183.75 413.437 184.436 412.985 184.887 412.714V412.696Z" fill="#351D35"/>
</g>
<g style="mix-blend-mode:screen">
<path d="M334.273 390.64C333.298 390.08 332.089 390.08 331.114 390.64L235.284 445.944C233.858 446.775 232.973 446.576 231.944 446.106C226.692 443.702 185.392 419.205 183.731 418.409C183.587 418.337 183.19 418.5 183.226 418.662C183.226 418.753 229.598 445.708 231.421 446.612C232.883 447.336 234.291 447.209 235.446 446.54L331.385 391.074C332.197 390.604 333.226 390.604 334.02 391.074L509.002 492.262H510.031L334.291 390.64H334.273Z" fill="#351D35"/>
</g>
<path d="M192.848 341.086L172.956 376.051L184.165 382.451L204.472 346.817C200.248 345.895 195.808 343.924 192.848 341.086Z" fill="#D473F1"/>
<path d="M202.27 361.841L181.458 349.945L139.4 423.87L160.213 435.766L202.325 361.859H202.27V361.841Z" fill="#301B30"/>
<path d="M259.112 242.049L248.137 235.74C255.736 240.097 260.448 249.498 260.448 262.84C260.448 289.38 241.838 321.669 218.968 334.812C207.614 341.339 197.307 341.935 189.798 337.633L200.773 343.942C208.264 348.245 218.57 347.648 229.942 341.122C252.812 327.978 271.422 295.708 271.422 269.15C271.422 255.789 266.711 246.406 259.112 242.049Z" fill="#962DCC"/>
<path d="M223.372 337.325C246.242 324.182 264.852 291.911 264.852 265.353C264.852 253.113 260.881 244.201 254.365 239.446C263.011 243.297 268.498 253.077 268.498 267.468C268.498 294.008 249.888 326.297 227.018 339.44C214.708 346.509 203.643 346.618 196.025 341.049C203.336 344.304 212.903 343.345 223.372 337.325Z" fill="#6C0099"/>
<g style="mix-blend-mode:screen" opacity="0.7">
<path d="M223.372 241.055C200.502 254.199 181.892 286.47 181.892 313.009C181.892 339.549 200.502 350.451 223.372 337.307C246.242 324.164 264.852 291.893 264.852 265.335C264.852 238.777 246.242 227.894 223.372 241.037V241.055Z" fill="#F5ABFF"/>
</g>
<path d="M260.411 239.808L249.437 233.498C241.603 228.996 230.845 229.611 218.967 236.445C195.086 250.167 175.664 283.866 175.664 311.563C175.664 325.502 180.592 335.319 188.516 339.874L199.491 346.184C191.567 341.628 186.639 331.811 186.639 317.872C186.639 290.175 206.061 256.458 229.942 242.754C241.801 235.939 252.577 235.324 260.411 239.808Z" fill="url(#paint20_linear_1293_6168)"/>
<path d="M229.942 343.237C206.061 356.959 186.639 345.569 186.639 317.854C186.639 290.139 206.061 256.44 229.942 242.736C239.13 237.457 247.649 235.902 254.671 237.548C265.899 240.187 273.245 251.053 273.245 268.101C273.245 295.816 253.823 329.515 229.942 343.237ZM188.462 316.806C188.462 343.345 207.072 354.247 229.942 341.104C252.812 327.96 271.422 295.689 271.422 269.132C271.422 242.574 252.812 231.69 229.942 244.833C207.072 257.977 188.462 290.248 188.462 316.788V316.806Z" fill="#D473F1"/>
<path d="M186.639 317.854C187.288 272.277 227.144 231.057 254.671 237.548C227.704 232.901 189.852 272.476 186.639 317.854Z" fill="url(#paint21_radial_1293_6168)"/>
</g>
<defs>
<linearGradient id="paint0_linear_1293_6168" x1="101.855" y1="210.971" x2="105.709" y2="203.835" gradientUnits="userSpaceOnUse">
<stop stop-color="#8B3DCE"/>
<stop offset="1" stop-color="#CB89F0"/>
</linearGradient>
<linearGradient id="paint1_linear_1293_6168" x1="229.689" y1="364.227" x2="236.621" y2="364.227" gradientUnits="userSpaceOnUse">
<stop stop-color="#8B3DCE"/>
<stop offset="1" stop-color="#CB89F0"/>
</linearGradient>
<linearGradient id="paint2_linear_1293_6168" x1="106.007" y1="324.959" x2="411.657" y2="324.959" gradientUnits="userSpaceOnUse">
<stop stop-color="#F5ABFF"/>
<stop offset="0.46" stop-color="#FFC5FF"/>
<stop offset="1" stop-color="#FFDEFF"/>
</linearGradient>
<linearGradient id="paint3_linear_1293_6168" x1="126.061" y1="311.364" x2="347.36" y2="311.364" gradientUnits="userSpaceOnUse">
<stop stop-color="#FFC5FF"/>
<stop offset="1" stop-color="#FFDEFF"/>
</linearGradient>
<linearGradient id="paint4_linear_1293_6168" x1="226.873" y1="121.209" x2="302.433" y2="70.915" gradientUnits="userSpaceOnUse">
<stop stop-color="#D473F1"/>
<stop offset="0.41" stop-color="#DD7BF5"/>
<stop offset="1" stop-color="#F28FFF"/>
</linearGradient>
<linearGradient id="paint5_linear_1293_6168" x1="194.346" y1="212.563" x2="227.095" y2="269.196" gradientUnits="userSpaceOnUse">
<stop stop-color="#FFEC3D"/>
<stop offset="0.25" stop-color="#FFB36B"/>
<stop offset="0.49" stop-color="#FF8094"/>
<stop offset="0.71" stop-color="#FF5BB2"/>
<stop offset="0.89" stop-color="#FF45C4"/>
<stop offset="1" stop-color="#FF3DCB"/>
</linearGradient>
<linearGradient id="paint6_linear_1293_6168" x1="207.469" y1="231.871" x2="233.957" y2="277.702" gradientUnits="userSpaceOnUse">
<stop stop-color="#FFEC3D"/>
<stop offset="0.25" stop-color="#FFB36B"/>
<stop offset="0.49" stop-color="#FF8094"/>
<stop offset="0.71" stop-color="#FF5BB2"/>
<stop offset="0.89" stop-color="#FF45C4"/>
<stop offset="1" stop-color="#FF3DCB"/>
</linearGradient>
<linearGradient id="paint7_linear_1293_6168" x1="222.902" y1="248.649" x2="244.415" y2="285.862" gradientUnits="userSpaceOnUse">
<stop stop-color="#FFEC3D"/>
<stop offset="0.25" stop-color="#FFB36B"/>
<stop offset="0.49" stop-color="#FF8094"/>
<stop offset="0.71" stop-color="#FF5BB2"/>
<stop offset="0.89" stop-color="#FF45C4"/>
<stop offset="1" stop-color="#FF3DCB"/>
</linearGradient>
<linearGradient id="paint8_linear_1293_6168" x1="235.754" y1="266.384" x2="252.092" y2="294.637" gradientUnits="userSpaceOnUse">
<stop stop-color="#FFEC3D"/>
<stop offset="0.25" stop-color="#FFB36B"/>
<stop offset="0.49" stop-color="#FF8094"/>
<stop offset="0.71" stop-color="#FF5BB2"/>
<stop offset="0.89" stop-color="#FF45C4"/>
<stop offset="1" stop-color="#FF3DCB"/>
</linearGradient>
<linearGradient id="paint9_linear_1293_6168" x1="252.523" y1="284.842" x2="262.981" y2="302.925" gradientUnits="userSpaceOnUse">
<stop stop-color="#FFEC3D"/>
<stop offset="0.25" stop-color="#FFB36B"/>
<stop offset="0.49" stop-color="#FF8094"/>
<stop offset="0.71" stop-color="#FF5BB2"/>
<stop offset="0.89" stop-color="#FF45C4"/>
<stop offset="1" stop-color="#FF3DCB"/>
</linearGradient>
<linearGradient id="paint10_linear_1293_6168" x1="41.5664" y1="278.514" x2="106.53" y2="278.514" gradientUnits="userSpaceOnUse">
<stop stop-color="#FF98FF"/>
<stop offset="1" stop-color="#FFAFF5"/>
</linearGradient>
<radialGradient id="paint11_radial_1293_6168" cx="0" cy="0" r="1" gradientUnits="userSpaceOnUse" gradientTransform="translate(76.3137 299.305) scale(41.2635 41.3284)">
<stop stop-color="#FF9412"/>
<stop offset="0.24" stop-color="#BE6E0D"/>
<stop offset="0.77" stop-color="#361F03"/>
<stop offset="1"/>
</radialGradient>
<radialGradient id="paint12_radial_1293_6168" cx="0" cy="0" r="1" gradientUnits="userSpaceOnUse" gradientTransform="translate(115.573 344.882) scale(32.7076 32.759)">
<stop stop-color="#FF9412"/>
<stop offset="0.24" stop-color="#BE6E0D"/>
<stop offset="0.77" stop-color="#361F03"/>
<stop offset="1"/>
</radialGradient>
<linearGradient id="paint13_linear_1293_6168" x1="347.775" y1="138.818" x2="335.942" y2="159.268" gradientUnits="userSpaceOnUse">
<stop stop-color="#FFAFF5"/>
<stop offset="1" stop-color="#FF98FF"/>
</linearGradient>
<linearGradient id="paint14_linear_1293_6168" x1="281.53" y1="201.064" x2="278.49" y2="206.321" gradientUnits="userSpaceOnUse">
<stop stop-color="#FFAFF5"/>
<stop offset="0.07" stop-color="#FFA6F8"/>
<stop offset="0.22" stop-color="#FF9BFD"/>
<stop offset="0.38" stop-color="#FF98FF"/>
<stop offset="0.48" stop-color="#F790FB"/>
<stop offset="0.63" stop-color="#E37CF1"/>
<stop offset="0.8" stop-color="#C35AE1"/>
<stop offset="1" stop-color="#962DCC"/>
</linearGradient>
<radialGradient id="paint15_radial_1293_6168" cx="0" cy="0" r="1" gradientUnits="userSpaceOnUse" gradientTransform="translate(300.248 173.222) scale(51.5343 51.6154)">
<stop stop-color="#FFAFF5"/>
<stop offset="0.01" stop-color="#FAACF0"/>
<stop offset="0.39" stop-color="#90638B"/>
<stop offset="0.68" stop-color="#422D40"/>
<stop offset="0.9" stop-color="#120C11"/>
<stop offset="1"/>
</radialGradient>
<radialGradient id="paint16_radial_1293_6168" cx="0" cy="0" r="1" gradientUnits="userSpaceOnUse" gradientTransform="translate(339.22 150.642) scale(26.8773 26.9195)">
<stop stop-color="#FFAFF5"/>
<stop offset="0.01" stop-color="#FAACF0"/>
<stop offset="0.39" stop-color="#90638B"/>
<stop offset="0.68" stop-color="#422D40"/>
<stop offset="0.9" stop-color="#120C11"/>
<stop offset="1"/>
</radialGradient>
<radialGradient id="paint17_radial_1293_6168" cx="0" cy="0" r="1" gradientUnits="userSpaceOnUse" gradientTransform="translate(336.664 152.737) rotate(-45.045) scale(10.6582 10.6582)">
<stop stop-color="#F5A25E"/>
<stop offset="0.04" stop-color="#C7844C"/>
<stop offset="0.07" stop-color="#9C673C"/>
<stop offset="0.1" stop-color="#774E2D"/>
<stop offset="0.14" stop-color="#563921"/>
<stop offset="0.19" stop-color="#3B2716"/>
<stop offset="0.24" stop-color="#25180E"/>
<stop offset="0.29" stop-color="#140D07"/>
<stop offset="0.36" stop-color="#080503"/>
<stop offset="0.46" stop-color="#010100"/>
<stop offset="0.74"/>
</radialGradient>
<linearGradient id="paint18_linear_1293_6168" x1="204.996" y1="402.68" x2="205.684" y2="403.855" gradientUnits="userSpaceOnUse">
<stop stop-color="#40243F"/>
<stop offset="0.19" stop-color="#3D223C"/>
<stop offset="1" stop-color="#351D35"/>
</linearGradient>
<linearGradient id="paint19_linear_1293_6168" x1="482.414" y1="539.104" x2="345.023" y2="455.446" gradientUnits="userSpaceOnUse">
<stop stop-color="#6C0087"/>
<stop offset="0.25" stop-color="#570968"/>
<stop offset="0.56" stop-color="#411249"/>
<stop offset="0.82" stop-color="#341836"/>
<stop offset="1" stop-color="#301B30"/>
</linearGradient>
<linearGradient id="paint20_linear_1293_6168" x1="178.596" y1="334.139" x2="239.976" y2="227.991" gradientUnits="userSpaceOnUse">
<stop stop-color="#FF98FF"/>
<stop offset="1" stop-color="#FFAFF5"/>
</linearGradient>
<radialGradient id="paint21_radial_1293_6168" cx="0" cy="0" r="1" gradientUnits="userSpaceOnUse" gradientTransform="translate(220.393 249.859) scale(44.8736 44.9442)">
<stop stop-color="#FFE2F5"/>
<stop offset="1" stop-color="#FFAFF5"/>
</radialGradient>
<clipPath id="clip0_1293_6168">
<rect width="510" height="492" fill="white" transform="translate(0.952148 0.261719)"/>
</clipPath>
</defs>
</svg>
