<svg width="65" height="66" viewBox="0 0 65 66" fill="none" xmlns="http://www.w3.org/2000/svg">
<g opacity="0.6">
<path d="M8.56491 5.479C7.43296 5.479 6.41309 6.38682 6.41309 7.63084C6.41309 8.87487 7.32089 9.78265 8.56491 9.78265C9.80893 9.78265 10.7167 8.87487 10.7167 7.63084C10.7167 6.38682 9.69686 5.479 8.56491 5.479Z" stroke="white" stroke-miterlimit="10"/>
<path d="M20.5452 21.0679H6.42383V59.2627H20.5452V21.0679Z" stroke="white" stroke-miterlimit="10"/>
<path d="M0.775391 64.7993H64.3887V15.4194H0.775391V64.7993ZM36.8184 21.068H52.2959C52.6321 21.068 52.9683 21.4042 52.9683 21.7404C52.9683 22.0767 52.6321 22.4241 52.2959 22.4241H36.8184C36.4822 22.4241 36.146 22.0879 36.146 21.7404C36.0339 21.4042 36.3701 21.068 36.8184 21.068ZM29.7017 28.0726H59.4238C59.76 28.0726 60.0962 28.4088 60.0962 28.7451C60.0962 29.0813 59.76 29.4175 59.4238 29.4175H29.7017C29.3655 29.4175 29.0293 29.0813 29.0293 28.7451C29.0293 28.4088 29.3655 28.0726 29.7017 28.0726ZM52.9795 35.873C52.9795 36.2092 52.6433 36.5566 52.3071 36.5566H36.8296C36.4934 36.5566 36.1572 36.2204 36.1572 35.873C36.1572 35.5255 36.4934 35.2005 36.8296 35.2005H52.3071C52.6433 35.2005 52.9795 35.5367 52.9795 35.873ZM29.7017 42.2051H59.4238C59.76 42.2051 60.0962 42.5414 60.0962 42.8888C60.0962 43.2362 59.76 43.5613 59.4238 43.5613H29.7017C29.3655 43.5613 29.0293 43.225 29.0293 42.8888C29.0293 42.5526 29.3655 42.2051 29.7017 42.2051ZM52.9795 50.0055C52.9795 50.3418 52.6433 50.678 52.3071 50.678H36.8296C36.4934 50.678 36.1572 50.3418 36.1572 50.0055C36.1572 49.6693 36.4934 49.3219 36.8296 49.3219H52.3071C52.6433 49.3219 52.9795 49.6581 52.9795 50.0055ZM29.7017 56.3377H59.4238C59.76 56.3377 60.0962 56.6739 60.0962 57.0213C60.0962 57.3688 59.76 57.6938 59.4238 57.6938H29.7017C29.3655 57.6938 29.0293 57.3576 29.0293 57.0213C29.0293 56.6851 29.3655 56.3377 29.7017 56.3377ZM4.95576 20.4067C4.95576 20.0705 5.29198 19.7343 5.6282 19.7343H21.2177C21.5539 19.7343 21.8902 20.0705 21.8902 20.4067V59.9577C21.8902 60.2939 21.5539 60.6414 21.2177 60.6414H5.74028C5.40405 60.6414 5.06783 60.3051 5.06783 59.9577V20.4067H4.95576Z" stroke="white" stroke-miterlimit="10"/>
<path d="M19.8618 5.479C18.7298 5.479 17.71 6.38682 17.71 7.63084C17.71 8.87487 18.6178 9.78265 19.8618 9.78265C21.1058 9.78265 22.0136 8.87487 22.0136 7.63084C22.0136 6.38682 20.9937 5.479 19.8618 5.479Z" stroke="white" stroke-miterlimit="10"/>
<path d="M0.775391 1.28711V14.0523H64.3887V1.28711H0.775391ZM8.57575 11.116C6.65928 11.116 5.06783 9.53575 5.06783 7.60807C5.06783 5.6804 6.64808 4.11137 8.57575 4.11137C10.5034 4.11137 12.0837 5.69161 12.0837 7.60807C12.0837 9.52454 10.5034 11.116 8.57575 11.116ZM19.8728 11.116C17.9564 11.116 16.3649 9.53575 16.3649 7.60807C16.3649 5.6804 17.9451 4.11137 19.8728 4.11137C21.8005 4.11137 23.3807 5.69161 23.3807 7.60807C23.3807 9.52454 21.8005 11.116 19.8728 11.116Z" stroke="white" stroke-miterlimit="10"/>
</g>
</svg>
