<svg width="466" height="466" viewBox="0 0 466 466" fill="none" xmlns="http://www.w3.org/2000/svg">
<g clip-path="url(#clip0_1192_3980)">
<g style="mix-blend-mode:multiply" opacity="0.07">
<path d="M232.75 433.254C343.268 433.254 432.861 343.661 432.861 233.143C432.861 122.625 343.268 33.0322 232.75 33.0322C122.232 33.0322 32.6396 122.625 32.6396 233.143C32.6396 343.661 122.232 433.254 232.75 433.254Z" fill="#653DFF"/>
</g>
<path opacity="0.13" d="M232.75 0.642822C104.343 0.642822 0.25 104.736 0.25 233.143C0.25 361.55 104.343 465.643 232.75 465.643C361.157 465.643 465.25 361.55 465.25 233.143C465.25 104.736 361.157 0.642822 232.75 0.642822ZM232.75 450.076C112.942 450.076 15.817 352.951 15.817 233.143C15.817 113.335 112.942 16.2098 232.75 16.2098C352.558 16.2098 449.683 113.335 449.683 233.143C449.683 352.951 352.558 450.076 232.75 450.076Z" fill="#99AFFF"/>
<g style="mix-blend-mode:multiply" opacity="0.07">
<path d="M232.75 433.254C343.268 433.254 432.861 343.661 432.861 233.143C432.861 122.625 343.268 33.0322 232.75 33.0322C122.232 33.0322 32.6396 122.625 32.6396 233.143C32.6396 343.661 122.232 433.254 232.75 433.254Z" fill="#C5C5C5"/>
</g>
<path opacity="0.19" d="M232.75 433.254C343.268 433.254 432.861 343.661 432.861 233.143C432.861 122.625 343.268 33.0322 232.75 33.0322C122.232 33.0322 32.6396 122.625 32.6396 233.143C32.6396 343.661 122.232 433.254 232.75 433.254Z" fill="#99AFFF"/>
<path d="M374.711 130.916L307.595 63.6638L440.775 62.6846L374.711 130.916Z" fill="#FFCB00"/>
<path d="M329.077 134.546L331.041 87.2377L440.775 62.6846L329.077 134.546Z" fill="#F2A400"/>
<path d="M329.077 134.546L342.934 98.9607L359.074 115.248L329.077 134.546Z" fill="#F5BD00"/>
<path d="M440.775 62.6846L342.935 98.9606L374.711 130.916L440.775 62.6846Z" fill="#FFCB00"/>
<path d="M242.898 107.287C236.898 102.986 228.82 102.986 222.82 107.287L99.3535 195.835L99.6247 361.713L366.061 362.223L366.144 195.621L242.896 107.287H242.898Z" fill="#481AB6"/>
<path d="M328.097 143.5H137.399C128.568 143.5 121.408 150.659 121.408 159.491V314.769C121.408 323.601 128.568 330.76 137.399 330.76H328.097C336.929 330.76 344.088 323.601 344.088 314.769V159.491C344.088 150.659 336.929 143.5 328.097 143.5Z" fill="white"/>
<path d="M366.144 195.622L366.064 362.223H99.3564V195.838L232.735 302.672L366.144 195.622Z" fill="#653DFF"/>
<path d="M214.845 221.312C217.509 214.857 221.07 210.016 225.526 206.79C229.983 203.563 234.362 201.949 238.665 201.949C241.636 201.949 244.197 202.694 246.348 204.176C248.5 205.662 250.268 207.583 251.651 209.938C253.035 212.296 254.084 215.01 254.802 218.083C255.518 221.156 255.877 224.23 255.877 227.303C255.877 230.788 255.518 233.911 254.802 236.676C255.314 236.676 255.774 236.703 256.186 236.753C256.595 236.806 257.054 236.831 257.569 236.831C259.721 236.831 261.511 236.447 262.947 235.679C264.381 234.911 265.533 233.861 266.405 232.528C267.273 231.197 267.916 229.66 268.325 227.918C268.735 226.178 268.94 224.333 268.94 222.387C268.94 216.547 268.042 211.605 266.251 207.558C264.459 203.513 262.076 200.259 259.106 197.801C256.133 195.343 252.753 193.575 248.965 192.498C245.173 191.424 241.282 190.884 237.287 190.884C230.832 190.884 225.094 192.011 220.075 194.263C215.054 196.518 210.828 199.566 207.398 203.408C203.964 207.249 201.327 211.683 199.484 216.7C197.641 221.721 196.717 226.946 196.717 232.375C196.717 239.136 197.689 244.823 199.637 249.433C201.583 254.043 204.169 257.784 207.398 260.651C210.625 263.521 214.26 265.57 218.308 266.798C222.353 268.028 226.425 268.641 230.525 268.641C236.262 268.641 242.05 267.772 247.89 266.029C253.73 264.289 259.158 262.188 264.18 259.73C265.511 259.218 266.638 258.961 267.56 258.961C269.405 258.961 270.889 259.577 272.016 260.804C273.141 262.035 273.706 263.416 273.706 264.955C273.706 267.209 272.117 269.334 268.943 271.332C265.767 273.331 261.898 275.073 257.341 276.557C252.781 278.041 248.043 279.221 243.127 280.092C238.208 280.961 234.008 281.398 230.525 281.398C222.739 281.398 215.927 279.989 210.087 277.172C204.247 274.355 199.406 270.642 195.565 266.032C191.723 261.422 188.854 256.222 186.96 250.435C185.062 244.647 184.118 238.782 184.118 232.839C184.118 225.362 185.449 218.294 188.113 211.633C190.777 204.974 194.438 199.162 199.1 194.19C203.76 189.222 209.294 185.305 215.696 182.435C222.099 179.568 228.989 178.131 236.365 178.131C242.512 178.131 248.299 179.08 253.73 180.974C259.158 182.872 263.924 185.661 268.022 189.35C272.117 193.038 275.371 197.623 277.778 203.104C280.184 208.585 281.389 214.912 281.389 222.083C281.389 225.259 280.977 228.488 280.159 231.765C279.338 235.044 278.007 237.964 276.164 240.525C274.321 243.086 271.911 245.187 268.94 246.824C265.968 248.464 262.332 249.282 258.031 249.282C256.698 249.282 255.161 249.205 253.421 249.051C251.679 248.898 250.295 248.514 249.271 247.899C247.119 250.563 244.558 252.74 241.588 254.43C238.615 256.119 235.595 256.965 232.521 256.965C230.063 256.965 227.655 256.35 225.298 255.122C222.94 253.892 220.866 252.202 219.074 250.051C217.281 247.899 215.847 245.391 214.77 242.521C213.695 239.653 213.156 236.528 213.156 233.148C213.156 229.153 213.718 225.209 214.845 221.315V221.312ZM229.905 219.469C228.368 221.312 227.266 223.441 226.601 225.847C225.933 228.254 225.602 230.534 225.602 232.683C225.602 233.813 225.73 235.041 225.986 236.372C226.239 237.705 226.651 238.933 227.216 240.06C227.778 241.19 228.547 242.134 229.521 242.902C230.493 243.671 231.695 244.055 233.131 244.055C234.974 244.055 236.536 243.543 237.819 242.518C239.1 241.496 240.149 240.163 240.97 238.524C241.789 236.887 242.376 235.041 242.738 232.992C243.097 230.943 243.275 228.897 243.275 226.846C243.275 225.412 243.197 223.953 243.044 222.467C242.891 220.983 242.607 219.65 242.198 218.472C241.786 217.295 241.249 216.321 240.584 215.552C239.916 214.784 239.072 214.4 238.048 214.4C236.611 214.4 235.102 215.015 233.516 216.243C231.926 217.473 230.724 218.548 229.905 219.469Z" fill="#FFCB00"/>
<path d="M221.509 274.352L99.9609 362.223H366.063L242.818 274.352C236.458 269.755 227.869 269.755 221.509 274.352Z" fill="#6022F4"/>
<path d="M307.53 108.949C304.361 108.949 301.84 108.414 300.01 107.352L301.376 105.795C305.473 108.175 314.304 106.511 317.362 105.667L318.115 107.477C317.992 107.51 315.077 108.308 311.431 108.713C310.038 108.868 308.735 108.946 307.527 108.946L307.53 108.949Z" fill="#F2A400"/>
<path d="M72.7422 330.813C69.0338 330.813 65.4233 330.667 62.0086 330.384L62.2496 328.48C65.5839 328.759 69.1166 328.9 72.7448 328.9C76.3729 328.9 80.001 328.767 83.8098 328.501L84.0107 330.406C80.1365 330.675 76.3452 330.813 72.7448 330.813H72.7422ZM40.5814 326.085C33.4984 323.625 27.3847 320.17 22.4133 315.816L24.1357 314.515C28.8811 318.671 34.7262 321.972 41.5029 324.328L40.5789 326.085H40.5814ZM10.9665 300.415C8.56119 295.177 6.98441 289.277 6.27637 282.872L8.61894 282.701C9.3069 288.935 10.8385 294.67 13.1685 299.747L10.9665 300.417V300.415ZM130.686 288.644L130.312 286.756C137.395 285.829 144.034 283.454 149.51 279.884L150.981 281.375C145.189 285.152 138.171 287.665 130.686 288.644ZM108.586 287.231C101.566 285.418 95.1034 282.405 89.3713 278.275L90.9305 276.843C96.414 280.795 102.593 283.675 109.299 285.408L108.589 287.231H108.586ZM164.256 266.941L162.094 266.188C164.73 261.183 166.234 255.494 166.566 249.275L168.913 249.358C168.569 255.808 167.003 261.723 164.253 266.941H164.256ZM8.7495 265.138L6.40944 264.962C7.06476 259.155 8.27496 253.224 10.0074 247.329L12.2948 247.773C10.5899 253.578 9.39729 259.421 8.75202 265.138H8.7495ZM75.7803 264.086C72.4635 259.022 69.9603 253.337 68.3433 247.186L70.6432 246.787C72.215 252.762 74.6404 258.281 77.8567 263.187L75.7828 264.086H75.7803ZM164.755 231.862C163.259 225.799 160.957 220.242 157.911 215.349L160.01 214.485C163.151 219.532 165.524 225.254 167.06 231.486L164.755 231.862ZM18.868 231.021L16.6987 230.286C18.1047 227.539 19.5434 225.133 20.9721 223.135C23.0008 220.298 25.3886 217.521 28.0651 214.884L29.8779 216.102C27.2817 218.658 24.9693 221.35 23.0058 224.096C21.6274 226.022 20.2364 228.352 18.8705 231.021H18.868ZM65.948 229.399C65.8953 228.021 65.8677 226.625 65.8677 225.249C65.8677 220.694 66.1589 216.087 66.7364 211.55L69.074 211.746C68.5065 216.218 68.2178 220.76 68.2178 225.249C68.2178 226.605 68.2429 227.981 68.2956 229.339L65.9455 229.399H65.948ZM45.5603 204.163L44.1719 202.619C50.0421 199.127 56.4723 196.121 63.2891 193.691L64.2331 195.441C57.5745 197.816 51.2925 200.751 45.5603 204.161V204.163ZM145.171 201.494C139.974 197.605 133.893 194.552 127.093 192.418L127.94 190.635C135.015 192.857 141.347 196.038 146.763 200.088L145.171 201.497V201.494ZM72.7171 194.389L70.4298 193.944C72.107 188.23 74.2738 182.485 76.8675 176.871L79.0695 177.544C76.5109 183.085 74.3717 188.752 72.7171 194.391V194.389ZM84.7614 190.173L84.3045 188.298C90.2048 187.348 96.1002 186.866 101.827 186.866H101.835C103.331 186.866 104.835 186.899 106.307 186.964L106.179 188.872C104.75 188.81 103.289 188.777 101.837 188.777H101.83C96.2534 188.777 90.5112 189.247 84.7614 190.171V190.173ZM87.8823 161.429L85.7934 160.553C89.1177 155.313 92.8663 150.136 96.9338 145.164L98.8922 146.224C94.8724 151.138 91.169 156.255 87.8823 161.432V161.429ZM111.898 132.088L110.1 130.858C115.85 125.302 119.875 122.233 120.362 121.867C121.899 120.471 123.468 119.097 125.03 117.779L126.722 119.105C125.168 120.416 123.606 121.786 122.077 123.175L121.997 123.243C121.956 123.273 117.801 126.386 111.901 132.088H111.898ZM142.718 107.246L141.259 105.747C147.16 101.949 153.304 98.5992 159.52 95.7921L160.663 97.4643C154.557 100.224 148.521 103.515 142.718 107.249V107.246ZM284.581 101.482C278.138 98.6143 271.54 96.0909 264.971 93.9818L265.835 92.2042C272.494 94.3434 279.18 96.8994 285.708 99.8044L284.581 101.482ZM180.398 90.3839L179.657 88.5686C186.63 86.688 193.853 85.3598 201.132 84.6241L201.421 86.5223C194.295 87.2429 187.222 88.5409 180.395 90.3839H180.398ZM244.34 88.6765C237.169 87.2956 229.986 86.4068 222.983 86.0352L223.137 84.127C230.27 84.5061 237.586 85.41 244.883 86.816L244.34 88.6765Z" fill="#F2A400"/>
</g>
<defs>
<clipPath id="clip0_1192_3980">
<rect width="465" height="465" fill="white" transform="translate(0.25 0.642822)"/>
</clipPath>
</defs>
</svg>
